<svg width="1024" height="1440" viewBox="0 0 1024 1440" fill="none" xmlns="http://www.w3.org/2000/svg">
<rect width="1024" height="1440" fill="#BBBBBB"/>
<path d="M610.756 887.324C606.389 906.99 591.429 919.17 591.429 919.17C591.429 919.17 583.551 899.464 587.918 879.799C592.286 860.133 607.245 847.953 607.245 847.953C607.245 847.953 615.123 867.658 610.756 887.324Z" fill="#FF9447"/>
<path d="M571.025 887.324C575.393 906.99 590.352 919.17 590.352 919.17C590.352 919.17 598.23 899.464 593.863 879.799C589.495 860.133 574.536 847.953 574.536 847.953C574.536 847.953 566.658 867.658 571.025 887.324Z" fill="#FF9447"/>
<path d="M577.443 883.098C589.427 897.308 590.891 919.154 590.891 919.154C590.891 919.154 572.924 917.959 560.94 903.748C548.956 889.537 547.492 867.692 547.492 867.692C547.492 867.692 565.459 868.887 577.443 883.098Z" fill="#3F3D56"/>
<path d="M604.338 883.098C592.354 897.308 590.891 919.154 590.891 919.154C590.891 919.154 608.857 917.959 620.841 903.748C632.825 889.537 634.289 867.692 634.289 867.692C634.289 867.692 616.323 868.887 604.338 883.098Z" fill="#3F3D56"/>
<path d="M234.79 837.151C251.511 837.588 264.812 852.348 264.812 852.348C264.812 852.348 251.004 866.4 234.283 865.963C217.562 865.526 204.261 850.766 204.261 850.766C204.261 850.766 218.069 836.714 234.79 837.151Z" fill="#FF9447"/>
<path d="M150.726 767.624C165.833 776.366 183.155 770.438 183.155 770.438C183.155 770.438 175.985 750.336 160.879 741.593C145.772 732.851 128.45 738.779 128.45 738.779C128.45 738.779 135.62 758.882 150.726 767.624Z" fill="#FF9447"/>
<path d="M152.262 758.936C168.917 757.082 183.496 769.929 183.496 769.929C183.496 769.929 171.071 785.782 154.415 787.636C137.76 789.49 123.182 776.643 123.182 776.643C123.182 776.643 135.607 760.791 152.262 758.936Z" fill="#3F3D56"/>
<path d="M213.315 762.449C211.719 782.729 222.2 800.544 222.2 800.544C222.2 800.544 235.269 785.48 236.865 765.2C238.462 744.92 227.981 727.105 227.981 727.105C227.981 727.105 214.911 742.169 213.315 762.449Z" fill="#3F3D56"/>
<path d="M291.753 886.824C283.017 904.197 286.023 925.807 286.023 925.807C286.023 925.807 303.192 919.25 311.928 901.877C320.663 884.504 317.658 862.894 317.658 862.894C317.658 862.894 300.489 869.451 291.753 886.824Z" fill="#3F3D56"/>
<path d="M266.409 1075.71L267.683 1074.66C263.195 1066.73 260.745 1057.35 260.643 1047.72C260.679 1033.63 266.361 1020.6 271.856 1007.99C272.876 1005.65 273.892 1003.32 274.87 1000.99C278.975 991.486 282.246 981.483 284.629 971.145C293.153 932.563 284.761 887.043 262.183 849.379C244.272 819.501 217.571 793.374 180.557 769.505L179.838 771.159C216.642 794.892 243.171 820.839 260.942 850.483C283.249 887.693 291.549 932.619 283.146 970.659C280.79 980.87 277.558 990.751 273.502 1000.14C272.527 1002.46 271.515 1004.78 270.498 1007.11C264.916 1019.92 259.144 1033.16 259.107 1047.71C259.208 1057.72 261.75 1067.47 266.409 1075.71Z" fill="#3F3D56"/>
<path d="M107.596 771.964C115.657 771.964 122.192 764.004 122.192 754.184C122.192 744.365 115.657 736.404 107.596 736.404C99.5349 736.404 93 744.365 93 754.184C93 764.004 99.5349 771.964 107.596 771.964Z" fill="#FF9447"/>
<path d="M509.272 1123.12L508.845 1122.63L377.48 971.877L378.534 970.514L509.472 1120.78L590.735 1060.32L591.536 1061.92L509.272 1123.12Z" fill="#3F3D56"/>
<path d="M364.948 903.909H266.616V1077.96H364.948V903.909Z" fill="#FF9447"/>
<path d="M639.969 933.854H523.2V1076.09H639.969V933.854Z" fill="#FF9447"/>
<path d="M601.558 1138.79H383.385V1284.77H601.558V1138.79Z" fill="#FF9447"/>
<path d="M378.776 1062.06H278.908V886.129H378.776V1062.06ZM280.444 1060.18H377.239V888.001H280.444V1060.18Z" fill="#3F3D56"/>
<path d="M619.227 1268.86H399.517V1121.01H619.227V1268.86ZM401.054 1266.99H617.691V1122.88H401.054V1266.99Z" fill="#3F3D56"/>
<path d="M654.565 1062.06H536.26V917.946H654.565V1062.06ZM537.796 1060.18H653.028V919.817H537.796V1060.18Z" fill="#3F3D56"/>
<path d="M826.416 746.264C812.085 716.768 783.734 715.393 783.734 715.393C783.734 715.393 756.107 711.09 738.384 756.012C721.865 797.883 699.067 838.311 734.714 848.112L741.153 823.701L745.14 849.93C750.216 850.375 755.307 850.481 760.392 850.247C798.567 848.746 834.922 850.687 833.752 834C832.196 811.817 840.204 774.644 826.416 746.264Z" fill="#2F2E41"/>
<path d="M840.368 1090.88C840.368 1090.88 822.387 1129.58 836.173 1132.5C849.958 1135.42 858.948 1098.91 858.948 1098.91L840.368 1090.88Z" fill="#A0616A"/>
<path d="M875.73 909.089C873.333 939.753 869.737 1101.83 859.548 1106.94C849.359 1112.06 832.576 1112.06 832.576 1112.06V968.957C832.576 968.957 836.772 868.933 851.756 857.252H860.423C861.43 857.251 862.423 857.538 863.323 858.088C864.223 858.638 865.006 859.437 865.607 860.421C865.685 860.545 865.757 860.676 865.829 860.807C869.725 868.065 877.546 885.85 875.73 909.089Z" fill="#D0CDE1"/>
<path d="M720.196 1140.16L722.594 1219.74C722.594 1219.74 714.802 1297.86 721.395 1321.96L740.575 1325.61C740.575 1325.61 762.152 1247.49 759.155 1219.74L771.741 1140.16L739.975 1091.25L720.196 1140.16Z" fill="#A0616A"/>
<path d="M793.318 1112.42L796.315 1151.12L808.902 1238C808.902 1238 816.094 1291.29 831.078 1325.61L840.668 1362.84L856.85 1355.54C856.85 1355.54 861.645 1278.88 842.466 1219.01L839.469 1145.27L819.091 1103.66L793.318 1112.42Z" fill="#A0616A"/>
<path d="M827.482 987.574L745.37 968.592C745.37 968.592 721.395 1014.59 713.604 1143.08L732.184 1148.93L737.578 1114.61L741.174 1151.12L804.706 1158.42L810.7 1120.45L814.895 1160.61L847.261 1154.04C847.261 1154.04 844.264 1016.78 827.482 987.574Z" fill="#2F2E41"/>
<path d="M745.07 1319.4H716.9L713.903 1341.31C713.903 1341.31 677.942 1405.55 704.913 1401.9C731.884 1398.25 732.483 1380.73 732.483 1380.73C732.483 1380.73 743.871 1367.59 745.07 1361.02C746.269 1354.45 742.073 1338.39 742.073 1338.39L745.07 1319.4Z" fill="#2F2E41"/>
<path d="M858.948 1342.04L832.576 1348.61V1396.06C832.576 1396.06 824.785 1442.79 846.961 1439.87C869.138 1436.95 865.541 1397.52 865.541 1397.52L858.948 1342.04Z" fill="#2F2E41"/>
<path d="M777.435 823.668C794.979 823.668 809.201 806.343 809.201 784.972C809.201 763.602 794.979 746.277 777.435 746.277C759.891 746.277 745.669 763.602 745.669 784.972C745.669 806.343 759.891 823.668 777.435 823.668Z" fill="#A0616A"/>
<path d="M771.442 817.097C771.442 817.097 781.032 842.65 778.634 847.031C776.237 851.411 826.583 844.11 826.583 844.11C826.583 844.11 803.807 802.495 803.807 793.734L771.442 817.097Z" fill="#A0616A"/>
<path d="M695.323 1055.11C695.323 1055.11 677.342 1093.8 691.127 1096.72C704.913 1099.64 713.903 1063.14 713.903 1063.14L695.323 1055.11Z" fill="#A0616A"/>
<path opacity="0.15" d="M842.166 935.372C842.166 935.372 847.56 969.687 840.968 988.669C839.002 994.328 836.023 995.897 832.576 995.386V968.957C832.576 968.957 836.772 868.933 851.756 857.252H860.423C861.43 857.251 862.423 857.538 863.323 858.088C864.223 858.638 865.006 859.437 865.607 860.421L842.166 935.372Z" fill="black"/>
<path d="M822.084 828.604C814.242 830.651 786.594 837.613 775.999 836.901C775.347 836.855 774.696 837.004 774.102 837.335L767.246 841.19L735.921 859.265C735.113 859.731 734.458 860.516 734.063 861.492C733.667 862.468 733.554 863.578 733.741 864.643L745.014 928.724C745.198 929.766 745.094 930.852 744.718 931.814C744.342 932.776 743.715 933.559 742.935 934.041C733.775 939.676 706.742 959.123 743.272 973.337C786.426 990.129 796.016 986.479 805.006 983.559C813.996 980.638 831.977 1007.65 838.57 988.669C844.408 971.86 840.847 943.028 839.955 936.647C839.837 935.799 839.907 934.927 840.159 934.124L862.476 862.764C862.824 861.651 862.822 860.421 862.471 859.309C862.12 858.197 861.443 857.283 860.572 856.741L834.933 840.807C834.563 840.577 834.225 840.277 833.931 839.92L825.716 829.913C825.249 829.342 824.671 828.924 824.037 828.695C823.402 828.467 822.731 828.435 822.084 828.604Z" fill="#D0CDE1"/>
<path d="M740.874 860.172H736.088C735.243 860.172 734.424 860.532 733.773 861.188C733.122 861.845 732.679 862.757 732.521 863.769L716.9 963.846L701.317 1026.63C701.317 1026.63 663.557 1049.27 691.727 1061.68C719.897 1074.09 734.281 1069.71 731.285 1055.84C728.288 1041.97 757.057 951.434 757.057 951.434L740.874 860.172Z" fill="#D0CDE1"/>
<path d="M787.204 740.514C798.525 740.514 807.703 729.334 807.703 715.543C807.703 701.751 798.525 690.571 787.204 690.571C775.882 690.571 766.704 701.751 766.704 715.543C766.704 729.334 775.882 740.514 787.204 740.514Z" fill="#2F2E41"/>
<path d="M764.546 708.971C764.547 702.804 766.421 696.855 769.807 692.27C773.194 687.686 777.853 684.79 782.888 684.14C782.171 684.048 781.451 684.001 780.73 684C778.037 683.998 775.37 684.642 772.881 685.896C770.393 687.15 768.131 688.99 766.226 691.309C764.322 693.628 762.81 696.381 761.779 699.412C760.748 702.442 760.218 705.691 760.218 708.971C760.218 712.252 760.748 715.5 761.779 718.531C762.81 721.562 764.322 724.315 766.226 726.634C768.131 728.953 770.393 730.792 772.881 732.046C775.37 733.3 778.037 733.945 780.73 733.943C781.451 733.942 782.171 733.895 782.888 733.802C777.853 733.153 773.194 730.257 769.807 725.672C766.421 721.088 764.547 715.139 764.546 708.971Z" fill="#2F2E41"/>
<path d="M820.08 743.42L792.07 725.548L753.389 732.859L745.387 775.915L765.308 774.981L770.873 759.164V774.721L780.066 774.29L785.401 749.107L788.736 775.915L821.414 775.103L820.08 743.42Z" fill="#2F2E41"/>
<path d="M808.902 787.71C811.219 787.71 813.097 783.706 813.097 778.767C813.097 773.827 811.219 769.823 808.902 769.823C806.585 769.823 804.706 773.827 804.706 778.767C804.706 783.706 806.585 787.71 808.902 787.71Z" fill="#A0616A"/>
<path d="M354.193 932.918H291.199V934.79H354.193V932.918Z" fill="white"/>
<path d="M353.903 953.449H290.91V955.321H353.903V953.449Z" fill="white"/>
<path d="M353.613 973.98H290.62V975.852H353.613V973.98Z" fill="white"/>
<path d="M353.324 994.511H290.33V996.383H353.324V994.511Z" fill="white"/>
<path d="M353.034 1015.04H290.041V1016.91H353.034V1015.04Z" fill="white"/>
<path d="M352.745 1035.57H289.751V1037.44H352.745V1035.57Z" fill="white"/>
<path d="M583.889 1157.51H419.491V1159.38H583.889V1157.51Z" fill="white"/>
<path d="M583.599 1178.97H419.201V1180.84H583.599V1178.97Z" fill="white"/>
<path d="M583.31 1200.44H418.912V1202.31H583.31V1200.44Z" fill="white"/>
<path d="M583.02 1221.91H418.622V1223.78H583.02V1221.91Z" fill="white"/>
<path d="M582.731 1243.37H418.333V1245.24H582.731V1243.37Z" fill="white"/>
<path d="M626.909 954.441H550.088V956.313H626.909V954.441Z" fill="white"/>
<path d="M626.62 974.972H549.798V976.844H626.62V974.972Z" fill="white"/>
<path d="M626.33 995.503H549.508V997.375H626.33V995.503Z" fill="white"/>
<path d="M626.04 1016.03H549.219V1017.91H626.04V1016.03Z" fill="white"/>
<path d="M625.751 1036.57H548.929V1038.44H625.751V1036.57Z" fill="white"/>
</svg>
