<svg width="184" height="73" viewBox="0 0 184 73" fill="none" xmlns="http://www.w3.org/2000/svg">
<rect width="96" height="73" fill="black"/>
<path d="M11.7598 67V41.4062H17.8594C20.8477 41.4062 23.168 42.3438 24.8203 44.2188C26.4727 46.082 27.2988 48.707 27.2988 52.0938V56.3828C27.2988 59.7695 26.4609 62.3887 24.7852 64.2402C23.1094 66.0801 20.6777 67 17.4902 67H11.7598ZM14.9766 44.1836V64.2402H17.5605C19.8223 64.2402 21.4746 63.5957 22.5176 62.3066C23.5605 61.0059 24.0938 59.084 24.1172 56.541V52.0059C24.1172 49.3105 23.5957 47.3359 22.5527 46.082C21.5215 44.8164 19.957 44.1836 17.8594 44.1836H14.9766ZM44.5957 55.1699H35.543V64.2402H46.0898V67H32.3262V41.4062H45.9141V44.1836H35.543V52.4102H44.5957V55.1699ZM62.1562 60.3203H53.5078L51.5215 67H48.2168L56.4609 41.4062H59.2207L67.4824 67H64.1777L62.1562 60.3203ZM54.3516 57.543H61.3301L57.832 45.9062L54.3516 57.543ZM78.6973 56.6465H74.1973V67H70.9629V41.4062H78.1348C80.6426 41.4062 82.541 42.0625 83.8301 43.375C85.1191 44.6758 85.7637 46.5859 85.7637 49.1055C85.7637 50.6875 85.4121 52.0703 84.709 53.2539C84.0176 54.4258 83.0332 55.3105 81.7559 55.9082L86.7129 66.7891V67H83.25L78.6973 56.6465ZM74.1973 53.8867H78.0996C79.4473 53.8867 80.5195 53.4531 81.3164 52.5859C82.125 51.7188 82.5293 50.5586 82.5293 49.1055C82.5293 45.8242 81.041 44.1836 78.0645 44.1836H74.1973V53.8867ZM95.4141 57.4551H88.1543V54.8008H95.4141V57.4551Z" fill="#FFFAFA"/>
<path d="M99.0176 67V41.4062H105.117C108.105 41.4062 110.426 42.3438 112.078 44.2188C113.73 46.082 114.557 48.707 114.557 52.0938V56.3828C114.557 59.7695 113.719 62.3887 112.043 64.2402C110.367 66.0801 107.936 67 104.748 67H99.0176ZM102.234 44.1836V64.2402H104.818C107.08 64.2402 108.732 63.5957 109.775 62.3066C110.818 61.0059 111.352 59.084 111.375 56.541V52.0059C111.375 49.3105 110.854 47.3359 109.811 46.082C108.779 44.8164 107.215 44.1836 105.117 44.1836H102.234ZM122.941 67H119.725V41.4062H122.941V67ZM140.836 60.3203H132.188L130.201 67H126.896L135.141 41.4062H137.9L146.162 67H142.857L140.836 60.3203ZM133.031 57.543H140.01L136.512 45.9062L133.031 57.543ZM157.377 56.6465H152.877V67H149.643V41.4062H156.814C159.322 41.4062 161.221 42.0625 162.51 43.375C163.799 44.6758 164.443 46.5859 164.443 49.1055C164.443 50.6875 164.092 52.0703 163.389 53.2539C162.697 54.4258 161.713 55.3105 160.436 55.9082L165.393 66.7891V67H161.93L157.377 56.6465ZM152.877 53.8867H156.779C158.127 53.8867 159.199 53.4531 159.996 52.5859C160.805 51.7188 161.209 50.5586 161.209 49.1055C161.209 45.8242 159.721 44.1836 156.744 44.1836H152.877V53.8867ZM174.586 54.2559L179.824 41.4062H183.463L176.186 57.4551V67H172.969V57.4551L165.691 41.4062H169.348L174.586 54.2559Z" fill="#0B0A0A"/>
</svg>
