<svg width="200" height="251" viewBox="0 0 200 251" fill="none" xmlns="http://www.w3.org/2000/svg">
<path d="M96.5 213C149.795 213 193 165.318 193 106.5C193 47.6817 149.795 0 96.5 0C43.2045 0 0 47.6817 0 106.5C0 165.318 43.2045 213 96.5 213Z" fill="#FAD307"/>
<path d="M150.82 13H42.1782C33.7951 13 27 20.4817 27 29.7081V178.295C27 190.283 35.8275 200 46.7178 200H150.822C159.205 200 166 192.518 166 183.292V29.7098C166 20.4817 159.203 13 150.82 13Z" fill="#70B1E1"/>
<path d="M150.92 200H47V166.711H150.919C159.274 166.711 166 159.225 166 150V183.255C166.002 192.513 159.245 200 150.92 200Z" fill="#5F87C4"/>
<path d="M42.4248 13C33.9055 13 27 20.4817 27 29.7081V178.295C27 190.283 35.971 200 47.0382 200H52V13H42.4248Z" fill="#656D7A"/>
<path d="M57 13H52V200H57V13Z" fill="#353944"/>
<path d="M150.865 166.436H45.3159C39.0663 166.436 34 171.935 34 178.718C34 185.501 39.0663 191 45.3159 191H150.857C159.227 191 166 183.639 166 174.564V150C166 159.074 159.227 166.436 150.865 166.436Z" fill="white"/>
<path d="M166 158V166.334C166 175.537 159.227 183 150.857 183H34.6337C33.7969 180.384 33.7696 177.419 34.6669 174.666H150.867C159.227 174.666 166 167.203 166 158Z" fill="#DFDFDF"/>
<path d="M154 85H69V140H154V85Z" fill="#FDFEFF"/>
<path d="M147.916 95.4987H74.989V99.4012H147.916V95.4987Z" fill="#E8E7E8"/>
<path d="M147.916 110.533H74.989V114.435H147.916V110.533Z" fill="#E8E7E8"/>
<path d="M147.916 125.55H74.989V129.453H147.916V125.55Z" fill="#E8E7E8"/>
<path d="M5.13281 211.031L5.27344 210.516L5.85938 209.883C5.89062 209.852 5.90625 209.82 5.90625 209.789V209.648C5.90625 209.414 6.14844 209.156 6.63281 208.875C6.66406 208.484 6.92969 208.195 7.42969 208.008L7.54688 207.914V207.727C7.54688 207.492 7.71094 207.336 8.03906 207.258C8.38281 207.18 8.64844 207.031 8.83594 206.812C9.11719 206.75 9.5625 206.414 10.1719 205.805C10.2344 205.68 10.3125 205.617 10.4062 205.617L10.9453 205.57C11.3984 205.086 11.6875 204.836 11.8125 204.82C11.9375 204.805 12.0703 204.75 12.2109 204.656C12.3516 204.562 12.5547 204.492 12.8203 204.445C12.8984 204.336 13.4531 204.016 14.4844 203.484H14.9766C15.0391 203.484 15.1406 203.422 15.2812 203.297C15.4375 203.172 15.6641 203.086 15.9609 203.039C16.2734 202.992 16.6797 202.891 17.1797 202.734C17.6953 202.562 18.1094 202.445 18.4219 202.383L18.8672 202.148H19.5938L19.8281 201.961L21.3047 201.773L22.8047 201.422L23.2266 201.469L23.5312 201.422L24.0469 201.539C24.1094 201.539 24.2109 201.508 24.3516 201.445C24.5078 201.367 24.6484 201.328 24.7734 201.328C25.2422 201.328 25.6641 201.383 26.0391 201.492C26.4297 201.602 26.7266 201.672 26.9297 201.703C27.1328 201.719 27.2969 201.758 27.4219 201.82C27.5469 201.883 27.625 201.914 27.6562 201.914L28.2656 201.867C28.2969 201.867 28.3594 201.922 28.4531 202.031C28.5625 202.141 28.7109 202.227 28.8984 202.289H29.3203C29.3516 202.32 29.3984 202.336 29.4609 202.336C29.6484 202.492 29.9844 202.688 30.4688 202.922C30.8125 203.188 30.9922 203.328 31.0078 203.344C31.1328 203.297 31.6172 203.625 32.4609 204.328C33.3047 205.031 33.8438 205.57 34.0781 205.945L34.5703 206.578L34.8047 207.188L35.0391 207.586C35.2891 208.227 35.5156 208.977 35.7188 209.836L35.9062 210.305C35.9375 210.336 35.9531 210.406 35.9531 210.516L35.8125 211.172L36 212.039C36 212.227 35.9375 212.5 35.8125 212.859C35.875 213.016 35.9062 213.109 35.9062 213.141C35.9062 213.172 35.8438 213.422 35.7188 213.891C35.5938 214.344 35.5312 214.609 35.5312 214.688L35.625 215.156C35.625 215.219 35.5547 215.32 35.4141 215.461C35.2891 215.586 35.2266 215.68 35.2266 215.742C35.2266 215.945 35.1719 216.141 35.0625 216.328C34.9531 216.516 34.8828 216.641 34.8516 216.703L34.4531 217.359C34.3906 217.594 34.3125 217.727 34.2188 217.758C34.125 217.789 34.0781 217.898 34.0781 218.086C34.0469 218.117 33.9375 218.211 33.75 218.367L33.5156 218.719L32.5547 219.727C32.4609 220.07 32.0859 220.469 31.4297 220.922L31.1484 221.203C30.3047 221.891 29.7891 222.297 29.6016 222.422C29.4141 222.547 29.2578 222.688 29.1328 222.844C29.0078 223 28.8047 223.156 28.5234 223.312C28.4766 223.391 28.2812 223.555 27.9375 223.805L27.6094 223.758C27.5 223.945 27.3672 224.078 27.2109 224.156C27.0547 224.234 26.9375 224.305 26.8594 224.367C26.7812 224.43 26.7266 224.461 26.6953 224.461C26.6641 224.461 26.5938 224.445 26.4844 224.414C26.3281 224.648 26.1094 224.82 25.8281 224.93C25.5625 225.039 25.3594 225.141 25.2188 225.234C25.0781 225.328 24.9922 225.375 24.9609 225.375L24.5859 225.234C24.5859 225.578 24.4609 225.766 24.2109 225.797C23.9609 225.828 23.75 225.898 23.5781 226.008L23.0859 225.961C22.5078 226.539 21.6797 226.828 20.6016 226.828C20.3984 227.078 20.2656 227.203 20.2031 227.203L19.7812 227.109C19.6562 227.172 19.5469 227.203 19.4531 227.203C19.375 227.203 19.0859 227.281 18.5859 227.438C18.3984 227.312 18.1719 227.25 17.9062 227.25L17.9531 227.648C17.9531 227.805 17.7422 227.883 17.3203 227.883C17.1641 227.883 16.9922 227.836 16.8047 227.742C16.6172 227.805 16.5 227.836 16.4531 227.836C16.3594 227.836 16.2891 227.781 16.2422 227.672C16.1953 227.547 16.1562 227.484 16.125 227.484C15.8125 228 15.2656 228.258 14.4844 228.258C14.4062 228.258 13.9609 228.359 13.1484 228.562L12.8672 228.609C12.8047 228.609 12.7422 228.594 12.6797 228.562L12.2812 228.516C12.2188 228.516 12.0938 228.477 11.9062 228.398C11.8125 228.57 11.7344 228.656 11.6719 228.656C11.375 228.656 11.0078 228.703 10.5703 228.797C10.4297 228.719 10.1016 228.664 9.58594 228.633C9.08594 228.586 8.77344 228.492 8.64844 228.352H8.60156C8.57031 228.352 8.51562 228.367 8.4375 228.398H8.34375C8.28125 228.398 8.20312 228.375 8.10938 228.328C8.01562 228.281 7.85938 228.242 7.64062 228.211C7.4375 228.18 7.22656 228.016 7.00781 227.719C6.78906 227.406 6.67969 227.141 6.67969 226.922C6.67969 226.625 6.80469 226.352 7.05469 226.102C7.30469 225.852 7.5625 225.727 7.82812 225.727C7.95312 225.727 8.125 225.773 8.34375 225.867H8.60156L8.97656 225.914L9.11719 225.867C9.05469 225.648 9.02344 225.531 9.02344 225.516C9.02344 225.047 9.1875 224.648 9.51562 224.32L9.84375 223.406C9.875 223.344 9.96875 223.258 10.125 223.148C10.2812 223.039 10.3594 222.891 10.3594 222.703L10.5703 222.211L10.6172 221.883L10.8516 221.555C10.9766 221.383 11.0547 221.219 11.0859 221.062C11.1172 220.906 11.2266 220.797 11.4141 220.734C11.4141 220.406 11.5234 220.141 11.7422 219.938C11.9766 219.734 12.0938 219.578 12.0938 219.469C12.0938 219.156 12.2031 218.984 12.4219 218.953C12.5 218.891 12.5391 218.828 12.5391 218.766C12.5391 218.703 12.5 218.602 12.4219 218.461C12.5312 218.148 12.6797 217.977 12.8672 217.945C13.0703 217.914 13.1953 217.883 13.2422 217.852C13.1172 217.82 13.0547 217.742 13.0547 217.617C13.0547 217.477 13.1016 217.344 13.1953 217.219L13.4297 216.609C13.5078 216.406 13.7031 216.211 14.0156 216.023C13.9219 215.93 13.875 215.852 13.875 215.789C13.875 215.758 13.9219 215.695 14.0156 215.602L14.3438 215.695C14.3438 215.664 14.3594 215.648 14.3906 215.648L14.4375 215.109L14.3906 214.781C14.3906 214.75 14.5703 214.648 14.9297 214.477L15.0234 214.242C14.8047 214.242 14.5938 214.211 14.3906 214.148C14.0938 214.273 13.875 214.383 13.7344 214.477C13.7031 214.523 13.5703 214.547 13.3359 214.547H13.1953C13.1641 214.547 13.0234 214.508 12.7734 214.43C12.7109 214.461 12.6406 214.539 12.5625 214.664C12.5 214.773 12.4531 214.828 12.4219 214.828L11.7188 214.594C11.6562 214.594 11.5312 214.68 11.3438 214.852C11.1719 215.023 11.0078 215.109 10.8516 215.109C10.7734 215.109 10.6406 215.062 10.4531 214.969C10.3281 215.062 10.0312 215.109 9.5625 215.109C9.35938 215.109 9.14844 215.156 8.92969 215.25L8.55469 215.203L8.25 215.25C8.1875 215.25 7.95312 215.109 7.54688 214.828C7.3125 214.891 7.16406 214.922 7.10156 214.922L6.72656 214.734C6.47656 214.609 6.27344 214.539 6.11719 214.523C5.97656 214.508 5.83594 214.469 5.69531 214.406C5.57031 214.344 5.5 214.312 5.48438 214.312C5.46875 214.297 5.39844 214.219 5.27344 214.078C5.14844 213.938 5.00781 213.836 4.85156 213.773C4.69531 213.711 4.61719 213.578 4.61719 213.375L4.52344 212.32C4.52344 212.227 4.5625 212.102 4.64062 211.945C4.71875 211.789 4.75781 211.648 4.75781 211.523C4.75781 211.32 4.88281 211.156 5.13281 211.031ZM10.7109 213.375H10.8047C11.0547 213.375 11.1797 213.477 11.1797 213.68C11.1797 213.742 11.1484 213.82 11.0859 213.914C11.1484 213.945 11.1953 213.961 11.2266 213.961C11.2891 213.961 11.3984 213.844 11.5547 213.609C11.7109 213.359 12.1172 213.234 12.7734 213.234C12.8047 213.234 12.8438 213.25 12.8906 213.281C12.9375 213.312 12.9766 213.328 13.0078 213.328C13.0391 213.328 13.1094 213.281 13.2188 213.188C13.3281 213.094 13.4141 213.047 13.4766 213.047L14.5312 212.812C15.5312 212.656 16.0312 212.461 16.0312 212.227L15.9844 211.898C16.0469 211.773 16.1875 211.586 16.4062 211.336C16.6406 211.07 16.7578 210.797 16.7578 210.516L16.8984 209.977V209.742C16.8984 209.32 17.1875 209.062 17.7656 208.969V208.922L17.5312 208.195L17.5781 208.102C17.7969 207.992 17.9062 207.914 17.9062 207.867C17.9062 207.836 17.8281 207.742 17.6719 207.586C17.5312 207.414 17.4609 206.93 17.4609 206.133C17.4609 205.68 17.7188 205.453 18.2344 205.453C18.9062 205.453 19.5078 205.75 20.0391 206.344C20.5703 206.938 20.8359 207.602 20.8359 208.336C20.8359 208.883 20.5625 209.703 20.0156 210.797L19.875 211.312H20.25L20.8359 211.219L21.2578 211.266C21.4609 211.266 21.6953 211.203 21.9609 211.078C22.2266 210.953 22.4688 210.875 22.6875 210.844C22.9219 210.812 23.1484 210.719 23.3672 210.562C23.8203 210.453 24.2031 210.375 24.5156 210.328C24.8438 210.281 25.1484 210.18 25.4297 210.023H25.5469C25.5781 210.023 25.6406 210.086 25.7344 210.211H25.7812C25.8125 210.211 25.8594 210.195 25.9219 210.164C26.0156 209.945 26.2188 209.781 26.5312 209.672C26.8594 209.547 27.0703 209.422 27.1641 209.297L27.5625 208.875C27.5625 208.844 27.8125 208.68 28.3125 208.383C28.8281 208.07 29.2109 207.914 29.4609 207.914C29.9453 207.914 30.2344 208.102 30.3281 208.477L30.4688 208.875V208.922C30.4688 209.312 30.1562 209.789 29.5312 210.352C28.9219 210.914 28.1094 211.32 27.0938 211.57C26.0781 211.82 25.4609 211.945 25.2422 211.945C25.1484 211.945 25.0547 211.867 24.9609 211.711L24.4688 211.852L24.3281 212.086C24.3281 212.117 24.2969 212.133 24.2344 212.133L23.9531 211.945H23.8594C23.7031 212.086 23.4062 212.227 22.9688 212.367C22.5469 212.508 22.2188 212.625 21.9844 212.719H21.5156C21.2656 212.719 20.9219 212.797 20.4844 212.953L20.0625 213C19.5156 213.094 19.2109 213.156 19.1484 213.188C19.0859 213.219 18.9688 213.43 18.7969 213.82L18.2109 215.109C18.1328 215.297 18 215.539 17.8125 215.836L17.4609 216.398C17.4297 216.398 17.4141 216.414 17.4141 216.445L17.5312 216.797V216.844C16.5625 218.141 15.8984 219.266 15.5391 220.219C15.1797 221.172 14.7812 222.039 14.3438 222.82C13.9219 223.586 13.6562 224.117 13.5469 224.414C13.4375 224.711 13.3359 224.945 13.2422 225.117C13.1484 225.289 13.1016 225.391 13.1016 225.422C13.1016 225.5 13.1484 225.539 13.2422 225.539H13.4297C13.6016 225.398 13.7734 225.32 13.9453 225.305C14.1172 225.289 14.2969 225.266 14.4844 225.234L14.7422 225.328H15.1172C15.1328 225.328 15.2656 225.25 15.5156 225.094L15.7031 225.141L16.125 225.094L16.5234 225.141C16.5547 225.141 16.6094 225.117 16.6875 225.07C16.7656 225.023 16.8672 224.992 16.9922 224.977C17.1172 224.961 17.2109 224.93 17.2734 224.883C17.3359 224.836 17.3828 224.812 17.4141 224.812L17.625 224.859C17.6562 224.891 17.6875 224.906 17.7188 224.906C17.8125 224.906 17.9062 224.781 18 224.531L18.4219 224.672C18.4219 224.438 18.4922 224.32 18.6328 224.32C19.0703 224.32 19.3203 224.305 19.3828 224.273L19.6406 224.32H19.6875C19.7188 224.32 19.8125 224.273 19.9688 224.18L22.5234 223.219C22.7109 223.188 23.0625 222.984 23.5781 222.609L24.0469 222.398C24.375 222.242 24.5859 222.117 24.6797 222.023C24.7734 221.93 24.8516 221.883 24.9141 221.883C25.3672 221.883 25.6719 221.688 25.8281 221.297C25.8906 221.266 26.0156 221.172 26.2031 221.016L26.4375 220.969C26.6719 220.906 26.9297 220.766 27.2109 220.547L27.6562 220.195C27.75 220.102 27.9219 220.039 28.1719 220.008C28.75 219.305 29.1641 218.891 29.4141 218.766L29.7656 218.578C29.7969 218.312 29.9062 218.102 30.0938 217.945C30.2812 217.789 30.3984 217.617 30.4453 217.43C30.5078 217.227 30.6016 217.125 30.7266 217.125H30.8672C30.9297 217.125 30.9609 217.094 30.9609 217.031L30.9141 216.609C30.9141 216.344 31.0703 216.211 31.3828 216.211V216.07L31.3359 215.695V215.648C31.3359 215.383 31.4531 215.211 31.6875 215.133C31.9375 215.055 32.0625 214.906 32.0625 214.688C32.0625 214.516 32.0391 214.336 31.9922 214.148C31.9453 213.961 31.9219 213.852 31.9219 213.82C31.9219 213.523 32.1328 213.281 32.5547 213.094L32.6016 213C32.6016 212.969 32.5391 212.906 32.4141 212.812C32.3047 212.719 32.25 212.625 32.25 212.531C32.25 212.484 32.2812 212.383 32.3438 212.227C32.4062 212.07 32.4375 211.977 32.4375 211.945C32.4375 211.914 32.3984 211.836 32.3203 211.711C32.2422 211.586 32.2031 211.469 32.2031 211.359C32.2031 211.234 32.25 211.078 32.3438 210.891C32.4375 210.703 32.4844 210.578 32.4844 210.516C32.4844 210.375 32.4688 210.258 32.4375 210.164C32.25 210.07 32.1562 209.961 32.1562 209.836V209.742L32.2031 209.555L32.1562 209.25L32.25 208.969C32.1562 208.688 32.0781 208.414 32.0156 208.148C31.9531 207.867 31.8438 207.648 31.6875 207.492C31.5469 207.32 31.4766 207.203 31.4766 207.141V207.094L31.5938 206.766C31.5938 206.734 31.5391 206.703 31.4297 206.672C30.6328 205.609 29.5781 204.805 28.2656 204.258C26.9531 203.711 26.2812 203.438 26.25 203.438L25.7344 203.484C25.4688 203.359 25.3203 203.297 25.2891 203.297L25.0547 203.344C25.0234 203.375 24.9922 203.391 24.9609 203.391C24.8984 203.391 24.7578 203.328 24.5391 203.203L23.9531 203.25L23.3672 203.203C22.6328 203.141 22.0469 203.172 21.6094 203.297L19.7344 203.602C19.6719 203.602 19.4141 203.68 18.9609 203.836C18.7109 203.992 18.1953 204.148 17.4141 204.305H16.8516C16.8203 204.305 16.7266 204.383 16.5703 204.539C16.4141 204.695 15.9141 204.891 15.0703 205.125C14.8516 205.344 14.6641 205.477 14.5078 205.523C14.3672 205.555 14.2656 205.609 14.2031 205.688C14.1406 205.766 14.0781 205.805 14.0156 205.805H13.6875C13.5156 205.805 13.3281 205.93 13.125 206.18C12.9219 206.43 12.4531 206.719 11.7188 207.047L11.4609 207.281L10.9922 207.539C10.8984 207.57 10.8203 207.633 10.7578 207.727L10.6641 207.82C10.2734 207.93 10.0234 208.109 9.91406 208.359C9.80469 208.609 9.65625 208.758 9.46875 208.805C9.29688 208.852 9.1875 208.969 9.14062 209.156C9.09375 209.344 8.97656 209.5 8.78906 209.625C8.60156 209.75 8.29688 210.117 7.875 210.727C7.45312 211.32 7.24219 211.758 7.24219 212.039C7.24219 212.242 7.33594 212.531 7.52344 212.906C7.71094 213.281 7.98438 213.469 8.34375 213.469C8.64062 213.469 8.86719 213.508 9.02344 213.586C9.17969 213.648 9.32031 213.68 9.44531 213.68C9.96094 213.68 10.3828 213.578 10.7109 213.375ZM36.2578 219.586L36.75 219.188C37.125 219.156 37.3281 218.961 37.3594 218.602C37.3906 218.242 37.6484 217.93 38.1328 217.664L38.4141 217.266C38.6484 217.031 39.2891 216.727 40.3359 216.352C40.6016 216.195 40.7812 216.055 40.875 215.93C40.9062 215.898 40.9375 215.883 40.9688 215.883L41.3438 215.977C41.5469 215.977 41.8047 215.922 42.1172 215.812C42.4453 215.703 42.7578 215.648 43.0547 215.648L44.0391 215.602C44.1016 215.602 44.2266 215.648 44.4141 215.742C44.6172 215.836 44.8594 215.883 45.1406 215.883C45.4844 215.883 45.7969 216.039 46.0781 216.352C46.375 216.664 46.5234 216.953 46.5234 217.219C46.5234 217.703 46.2734 218.195 45.7734 218.695C45.2734 219.195 44.875 219.477 44.5781 219.539C44.3125 219.805 44.1094 219.977 43.9688 220.055C43.8281 220.117 43.6797 220.227 43.5234 220.383C43.3828 220.523 43.2656 220.594 43.1719 220.594C43.1094 220.594 43.0625 220.578 43.0312 220.547C43 220.5 42.9531 220.477 42.8906 220.477C42.6406 220.477 42.3672 220.781 42.0703 221.391L41.6484 221.344C41.3828 221.516 41.2109 221.703 41.1328 221.906C41.0547 222.109 40.8906 222.211 40.6406 222.211C40.0625 222.789 39.6719 223.078 39.4688 223.078C39.4375 223.078 39.3281 223.047 39.1406 222.984C39.0156 223.141 38.9531 223.305 38.9531 223.477C38.9531 223.664 38.8281 223.773 38.5781 223.805L38.2734 224.086L38.0391 224.039L37.5703 224.531C37.3359 224.531 37.0938 224.609 36.8438 224.766C36.8125 224.953 36.7656 225.195 36.7031 225.492C36.6406 225.773 36.6094 225.93 36.6094 225.961C36.6094 226.414 37.0234 226.641 37.8516 226.641L38.9766 226.477C39.2734 226.477 39.5469 226.398 39.7969 226.242C40.0625 226.086 40.3438 226.008 40.6406 226.008C40.7344 226.008 40.875 225.977 41.0625 225.914L41.2969 226.008C41.4062 225.773 41.6094 225.562 41.9062 225.375C42.2031 225.188 42.4375 225.094 42.6094 225.094L42.8438 224.953C42.9062 224.766 43 224.641 43.125 224.578L43.3125 224.414C43.4375 224.289 43.5547 224.227 43.6641 224.227H43.9922L44.0859 224.18C44.2734 223.773 44.5312 223.539 44.8594 223.477C45.2031 223.398 45.4141 223.281 45.4922 223.125C45.5859 222.969 45.7422 222.875 45.9609 222.844C46.1797 222.812 46.3594 222.711 46.5 222.539C46.6562 222.352 46.8438 222.18 47.0625 222.023C47.2812 221.867 47.4297 221.75 47.5078 221.672C47.6016 221.594 47.6797 221.555 47.7422 221.555C47.8359 221.555 47.8828 221.625 47.8828 221.766C47.8828 221.906 47.9141 221.977 47.9766 221.977C48.0391 221.977 48.0703 221.945 48.0703 221.883C48.0703 221.82 48.0547 221.742 48.0234 221.648V221.484C48.0234 221.25 48.1484 221.094 48.3984 221.016L49.4531 220.336C49.4844 220.008 49.5703 219.82 49.7109 219.773C49.8672 219.711 49.9844 219.648 50.0625 219.586C50.1406 219.508 50.2266 219.469 50.3203 219.469C50.5234 219.469 50.625 219.586 50.625 219.82L50.5078 220.43L50.625 221.062C50.625 221.156 50.5469 221.289 50.3906 221.461C50.25 221.617 50.1406 221.867 50.0625 222.211C49.9844 222.539 49.8828 222.719 49.7578 222.75H49.6172C49.3359 223.047 49.1094 223.227 48.9375 223.289C48.7812 223.336 48.6562 223.43 48.5625 223.57L47.7656 224.484C47.6094 224.641 47.4766 224.781 47.3672 224.906C47.2578 225.031 47.1719 225.094 47.1094 225.094L46.9219 224.906C46.9219 224.875 46.8906 224.859 46.8281 224.859C46.6719 224.859 46.5703 224.953 46.5234 225.141C46.4922 225.328 46.4141 225.492 46.2891 225.633C45.8203 225.852 45.5156 226.055 45.375 226.242L45.2344 226.289H44.8125C44.6094 226.289 44.4688 226.445 44.3906 226.758C44.3125 227.055 44.0859 227.227 43.7109 227.273C43.3516 227.32 43.0938 227.414 42.9375 227.555C42.9062 227.586 42.8359 227.617 42.7266 227.648C42.6172 227.68 42.3984 227.805 42.0703 228.023L40.1016 228.727C39.9453 228.805 39.8438 228.844 39.7969 228.844L39.1406 228.938C39.0469 228.938 38.9531 228.875 38.8594 228.75C38.7656 228.625 38.7031 228.562 38.6719 228.562L38.25 228.703C37.9375 228.797 37.6406 228.844 37.3594 228.844C37.2031 228.844 37.0312 228.789 36.8438 228.68C36.6562 228.57 36.5078 228.492 36.3984 228.445C35.9453 228.445 35.625 228.094 35.4375 227.391L35.1562 227.438C35.0938 227.438 34.8828 226.883 34.5234 225.773C34.4297 225.648 34.2812 225.562 34.0781 225.516C33.875 225.453 33.7734 225.297 33.7734 225.047C33.7734 224.344 33.9219 223.875 34.2188 223.641C34.5312 223.391 34.7031 223.203 34.7344 223.078L35.0625 221.859C35.125 221.812 35.2031 221.656 35.2969 221.391L35.8359 220.406C35.8984 220.297 36.0391 220.023 36.2578 219.586ZM41.2031 218.18L40.9219 218.32C40.8594 218.352 40.6719 218.492 40.3594 218.742C40.0625 218.977 39.7656 219.172 39.4688 219.328C39.1875 219.469 38.8906 219.852 38.5781 220.477C38.2812 221.102 38.1328 221.461 38.1328 221.555C38.1328 221.648 38.1797 221.695 38.2734 221.695L39.0703 221.344C39.3672 221.203 39.6406 221.023 39.8906 220.805C40.1562 220.586 40.5312 220.32 41.0156 220.008L41.2031 219.82C41.2344 219.758 41.375 219.648 41.625 219.492C41.8906 219.32 42.0859 219.156 42.2109 219L42.4453 218.906C42.7109 218.484 42.9766 218.227 43.2422 218.133C43.5234 218.039 43.6641 217.945 43.6641 217.852C43.6641 217.664 43.5156 217.57 43.2188 217.57C43.0938 217.57 42.9062 217.648 42.6562 217.805H42.1172C42.0547 217.805 41.8828 217.898 41.6016 218.086L41.2031 218.18ZM66.375 223.078L66.75 222.75C66.9844 222.75 67.125 222.648 67.1719 222.445C67.2188 222.227 67.3828 222.055 67.6641 221.93C67.9609 221.805 68.2344 221.555 68.4844 221.18C68.7344 220.789 68.9922 220.594 69.2578 220.594C69.3516 220.594 69.4609 220.672 69.5859 220.828C69.7109 220.984 69.7734 221.109 69.7734 221.203C69.7734 221.719 69.6172 222.25 69.3047 222.797L69.2109 223.453L69.0469 223.758C68.8125 223.883 68.6562 224.016 68.5781 224.156C68.5156 224.297 68.3359 224.469 68.0391 224.672L67.8047 225C67.4609 225.109 67.2266 225.289 67.1016 225.539C66.9922 225.789 66.8281 225.93 66.6094 225.961C66.4062 225.992 66.1797 226.148 65.9297 226.43C65.7734 226.508 65.5859 226.578 65.3672 226.641L65.3203 226.875C65.1641 227.031 64.9141 227.156 64.5703 227.25C64.2422 227.344 63.9922 227.438 63.8203 227.531C63.6641 227.609 63.5547 227.648 63.4922 227.648C63.1953 227.648 62.9219 227.594 62.6719 227.484C62.4219 227.359 62.1641 227.281 61.8984 227.25C61.8047 227.156 61.75 227.055 61.7344 226.945C61.7188 226.836 61.6406 226.695 61.5 226.523C61.3594 226.336 61.2891 226.086 61.2891 225.773L61.3828 225.328C61.3828 225.266 61.3438 225.188 61.2656 225.094C61.1875 225 61.1484 224.922 61.1484 224.859C61.1484 224.797 61.1641 224.75 61.1953 224.719C61.2266 224.688 61.2422 224.641 61.2422 224.578C61.2422 224.5 61.2266 224.414 61.1953 224.32C61.1641 224.227 61.1484 224.148 61.1484 224.086L61.2891 222.938C61.2891 222.844 61.2578 222.797 61.1953 222.797C61.1328 222.797 61.0156 222.875 60.8438 223.031C60.6875 223.188 60.5 223.266 60.2812 223.266C60.1562 223.359 60.0547 223.555 59.9766 223.852C59.8516 224.008 59.6953 224.148 59.5078 224.273L59.4141 224.414C59.3828 224.523 59.2656 224.617 59.0625 224.695C58.8594 224.758 58.7188 224.844 58.6406 224.953L58.4062 225.188L57.9609 225.141C57.9297 225.172 57.8438 225.312 57.7031 225.562C57.5625 225.797 57.3828 225.992 57.1641 226.148L55.3828 227.602C55.1953 227.727 54.9219 227.883 54.5625 228.07L54.4219 228.211C53.1719 229.039 52.2891 229.453 51.7734 229.453C51.3516 229.453 50.8594 229.336 50.2969 229.102C49.7344 228.867 49.4297 228.586 49.3828 228.258L49.1484 227.297C49.0078 227.078 48.9375 226.773 48.9375 226.383C48.9375 226.195 48.9531 226.07 48.9844 226.008V225.867L48.9375 225.094C48.9375 224.906 49.0859 224.812 49.3828 224.812L49.3359 224.18C49.3359 224.117 49.4688 223.875 49.7344 223.453C50.0156 223.016 50.2031 222.766 50.2969 222.703L50.5312 222.398C50.5156 222.211 50.625 222.016 50.8594 221.812C51.0938 221.594 51.2812 221.375 51.4219 221.156C51.5625 220.938 51.8281 220.695 52.2188 220.43L52.9219 219.727C53.4688 219.18 54.0625 218.742 54.7031 218.414C54.7969 218.383 54.9844 218.227 55.2656 217.945C55.5625 217.664 55.8906 217.461 56.25 217.336C56.625 217.195 56.9844 217.023 57.3281 216.82C57.6875 216.617 57.9688 216.516 58.1719 216.516H58.3594C58.4219 216.516 58.8359 216.32 59.6016 215.93H59.7422C59.8047 215.93 59.9531 215.992 60.1875 216.117H60.2344L60.6094 215.93C60.6719 215.898 60.75 215.883 60.8438 215.883C61.8125 215.883 62.3438 216.555 62.4375 217.898C62.4688 218.18 62.5469 218.32 62.6719 218.32C62.8281 218.32 63.0469 218.039 63.3281 217.477C63.625 216.898 64.2422 216.609 65.1797 216.609C65.8516 216.609 66.1875 217.039 66.1875 217.898C66.1875 218.914 65.7344 219.875 64.8281 220.781C64.7656 220.906 64.7188 221.047 64.6875 221.203L64.3594 222.164V222.211C64.3594 222.305 64.2891 222.438 64.1484 222.609C64.0234 222.766 63.9609 222.906 63.9609 223.031L64.0078 223.617L63.9141 224.273C63.9141 224.57 63.9688 224.766 64.0781 224.859C64.5781 224.734 64.9375 224.531 65.1562 224.25C65.3906 223.953 65.5547 223.789 65.6484 223.758L65.8828 223.664C66.0234 223.43 66.1875 223.234 66.375 223.078ZM58.5938 223.078C58.6562 222.734 58.8438 222.477 59.1562 222.305C59.4844 222.117 59.6797 221.93 59.7422 221.742C60.0391 221.523 60.4609 221.133 61.0078 220.57C61.5703 220.008 61.8516 219.664 61.8516 219.539C61.8516 219.492 61.8203 219.469 61.7578 219.469H61.7109L61.5234 219.586L61.1016 219.539L60.6562 219.586L60.3281 219.422L60.0234 219.469L59.5547 219.375C59.3047 219.375 59.0859 219.43 58.8984 219.539C58.7266 219.633 58.3828 219.742 57.8672 219.867C57.3672 219.992 56.9141 220.211 56.5078 220.523C56.1016 220.82 55.8047 220.969 55.6172 220.969C55.5078 221.203 55.1406 221.539 54.5156 221.977C54.1406 222.102 53.8984 222.375 53.7891 222.797C53.3828 223.125 53.1797 223.312 53.1797 223.359L53.0156 223.758C52.8906 223.867 52.7344 223.961 52.5469 224.039C52.3594 224.102 52.25 224.266 52.2188 224.531C52.1875 224.781 52.0781 225.016 51.8906 225.234C51.7188 225.438 51.6328 225.602 51.6328 225.727C51.6328 226.492 51.7812 226.875 52.0781 226.875C52.2031 226.875 52.4609 226.797 52.8516 226.641C53.2578 226.469 53.4922 226.352 53.5547 226.289C53.6172 226.227 53.7422 226.164 53.9297 226.102L54.375 225.867C54.4375 225.805 54.5078 225.766 54.5859 225.75C54.6641 225.734 54.7422 225.688 54.8203 225.609C54.8984 225.516 55.0391 225.422 55.2422 225.328C55.4453 225.219 55.6016 225.078 55.7109 224.906C55.9766 224.75 56.4062 224.508 57 224.18L57.4922 223.805C57.8359 223.648 58.0469 223.516 58.125 223.406C58.2031 223.297 58.3594 223.188 58.5938 223.078ZM73.5938 217.758L73.9453 217.664L74.0859 217.359C74.8516 216.906 75.3984 216.477 75.7266 216.07C75.7578 216.008 75.8281 215.945 75.9375 215.883C76.0469 215.82 76.1641 215.711 76.2891 215.555C76.8672 214.977 77.5547 214.688 78.3516 214.688C79.2891 214.688 79.7891 215.258 79.8516 216.398L79.9922 216.75C80.1172 216.969 80.2891 217.414 80.5078 218.086C80.7422 218.758 80.8594 219.172 80.8594 219.328C80.8594 219.75 80.7266 220.172 80.4609 220.594C80.2422 220.703 79.7188 221.289 78.8906 222.352L78.6562 222.516C78.5312 222.797 78.3672 223.078 78.1641 223.359C77.8516 223.469 77.6953 223.586 77.6953 223.711V224.133C77.6953 224.164 77.6562 224.227 77.5781 224.32C77.5156 224.414 77.4219 224.594 77.2969 224.859L77.1094 225.141C77.0469 225.203 76.9844 225.336 76.9219 225.539C76.8594 225.727 76.7656 225.898 76.6406 226.055C76.5312 226.211 76.4766 226.336 76.4766 226.43C76.4766 226.664 76.7812 226.781 77.3906 226.781C77.4219 226.781 77.5391 226.734 77.7422 226.641L78.0703 226.734C78.1016 226.734 78.1797 226.688 78.3047 226.594C78.4297 226.484 78.6172 226.398 78.8672 226.336C79.1328 226.273 79.3594 226.18 79.5469 226.055C79.75 225.93 79.9844 225.82 80.25 225.727C80.5312 225.633 80.7969 225.484 81.0469 225.281C81.2969 225.062 81.5391 224.906 81.7734 224.812C82.0234 224.719 82.25 224.578 82.4531 224.391C82.6719 224.188 82.9141 224 83.1797 223.828C83.4453 223.656 83.8672 223.281 84.4453 222.703C84.8203 222.406 85.0781 222.242 85.2188 222.211C85.25 222.211 85.3828 222.008 85.6172 221.602C85.8672 221.18 86.1484 220.969 86.4609 220.969C86.7891 220.969 86.9531 221.125 86.9531 221.438C86.9531 221.609 86.875 221.773 86.7188 221.93V222.07L86.7656 222.445C86.7969 222.492 86.8125 222.562 86.8125 222.656C86.8125 222.719 86.75 222.812 86.625 222.938C86.5156 223.062 86.4375 223.227 86.3906 223.43C86.3438 223.617 86.1953 223.742 85.9453 223.805C85.8516 224.148 85.7266 224.344 85.5703 224.391C85.4297 224.438 85.2266 224.594 84.9609 224.859C84.6953 225.125 84.3203 225.438 83.8359 225.797C83.3516 226.156 83.0156 226.438 82.8281 226.641C82.6562 226.828 82.5391 226.922 82.4766 226.922C82.4453 226.922 82.3828 226.891 82.2891 226.828C82.1953 226.766 82.1328 226.734 82.1016 226.734C82.0078 226.734 81.9453 226.844 81.9141 227.062L81.8203 227.297C81.6172 227.422 81.5 227.484 81.4688 227.484L81.3281 227.438H81.2344C81.0469 227.438 80.9531 227.508 80.9531 227.648L81.0938 227.883V227.93C81.0938 228.148 80.9688 228.258 80.7188 228.258C80.5469 228.258 80.0469 228.547 79.2188 229.125L78.5391 229.266L77.9766 229.57C77.7891 229.461 77.6719 229.406 77.625 229.406L77.25 229.523L76.5703 229.57C76.5547 229.57 76.2656 229.414 75.7031 229.102C75.1562 228.789 74.8281 228.477 74.7188 228.164C74.6094 227.852 74.4688 227.539 74.2969 227.227C74.125 226.898 74.0391 226.672 74.0391 226.547C74.0391 225.797 74.1016 225.266 74.2266 224.953C74.3516 224.625 74.4297 224.383 74.4609 224.227C74.4922 224.07 74.5781 223.906 74.7188 223.734C74.875 223.547 75 223.25 75.0938 222.844C75.5469 221.938 75.8594 221.383 76.0312 221.18C76.2031 220.977 76.3359 220.727 76.4297 220.43L76.7344 220.008C76.7656 219.977 76.8125 219.859 76.875 219.656C76.9375 219.438 77.0156 219.312 77.1094 219.281C77.2344 219.062 77.2969 218.922 77.2969 218.859C77.2969 218.406 77.0938 218.18 76.6875 218.18C76.6094 218.18 76.5234 218.266 76.4297 218.438C76.3359 218.594 76.1172 218.75 75.7734 218.906C75.4453 219.062 75.2422 219.18 75.1641 219.258C75.0859 219.336 74.9141 219.438 74.6484 219.562C74.3984 219.672 74.1797 219.852 73.9922 220.102L73.5938 220.289C73.4688 220.586 73.3594 220.75 73.2656 220.781C73.1719 220.812 72.8828 220.891 72.3984 221.016C72.3672 221.031 72.2891 221.125 72.1641 221.297C72.0391 221.469 71.8594 221.555 71.625 221.555C71.4375 221.742 71.25 221.961 71.0625 222.211C71 222.211 70.8359 222.273 70.5703 222.398L70.1016 222.516C69.9766 222.609 69.8359 222.758 69.6797 222.961C69.5391 223.164 69.2656 223.266 68.8594 223.266C68.625 223.266 68.5078 223.078 68.5078 222.703C68.5078 221.938 68.7734 221.328 69.3047 220.875C69.8516 220.422 70.25 220.18 70.5 220.148C70.75 220.117 70.9062 220.023 70.9688 219.867C71.0312 219.711 71.1797 219.586 71.4141 219.492C71.6641 219.383 71.9453 219.156 72.2578 218.812C72.5859 218.453 72.9375 218.211 73.3125 218.086L73.5938 217.758ZM91.5234 211.031L91.6641 210.516L92.25 209.883C92.2812 209.852 92.2969 209.82 92.2969 209.789V209.648C92.2969 209.414 92.5391 209.156 93.0234 208.875C93.0547 208.484 93.3203 208.195 93.8203 208.008L93.9375 207.914V207.727C93.9375 207.492 94.1016 207.336 94.4297 207.258C94.7734 207.18 95.0391 207.031 95.2266 206.812C95.5078 206.75 95.9531 206.414 96.5625 205.805C96.625 205.68 96.7031 205.617 96.7969 205.617L97.3359 205.57C97.7891 205.086 98.0781 204.836 98.2031 204.82C98.3281 204.805 98.4609 204.75 98.6016 204.656C98.7422 204.562 98.9453 204.492 99.2109 204.445C99.2891 204.336 99.8438 204.016 100.875 203.484H101.367C101.43 203.484 101.531 203.422 101.672 203.297C101.828 203.172 102.055 203.086 102.352 203.039C102.664 202.992 103.07 202.891 103.57 202.734C104.086 202.562 104.5 202.445 104.812 202.383L105.258 202.148H105.984L106.219 201.961L107.695 201.773L109.195 201.422L109.617 201.469L109.922 201.422L110.438 201.539C110.5 201.539 110.602 201.508 110.742 201.445C110.898 201.367 111.039 201.328 111.164 201.328C111.633 201.328 112.055 201.383 112.43 201.492C112.82 201.602 113.117 201.672 113.32 201.703C113.523 201.719 113.688 201.758 113.812 201.82C113.938 201.883 114.016 201.914 114.047 201.914L114.656 201.867C114.688 201.867 114.75 201.922 114.844 202.031C114.953 202.141 115.102 202.227 115.289 202.289H115.711C115.742 202.32 115.789 202.336 115.852 202.336C116.039 202.492 116.375 202.688 116.859 202.922C117.203 203.188 117.383 203.328 117.398 203.344C117.523 203.297 118.008 203.625 118.852 204.328C119.695 205.031 120.234 205.57 120.469 205.945L120.961 206.578L121.195 207.188L121.43 207.586C121.68 208.227 121.906 208.977 122.109 209.836L122.297 210.305C122.328 210.336 122.344 210.406 122.344 210.516L122.203 211.172L122.391 212.039C122.391 212.227 122.328 212.5 122.203 212.859C122.266 213.016 122.297 213.109 122.297 213.141C122.297 213.172 122.234 213.422 122.109 213.891C121.984 214.344 121.922 214.609 121.922 214.688L122.016 215.156C122.016 215.219 121.945 215.32 121.805 215.461C121.68 215.586 121.617 215.68 121.617 215.742C121.617 215.945 121.562 216.141 121.453 216.328C121.344 216.516 121.273 216.641 121.242 216.703L120.844 217.359C120.781 217.594 120.703 217.727 120.609 217.758C120.516 217.789 120.469 217.898 120.469 218.086C120.438 218.117 120.328 218.211 120.141 218.367L119.906 218.719L118.945 219.727C118.852 220.07 118.477 220.469 117.82 220.922L117.539 221.203C116.695 221.891 116.18 222.297 115.992 222.422C115.805 222.547 115.648 222.688 115.523 222.844C115.398 223 115.195 223.156 114.914 223.312C114.867 223.391 114.672 223.555 114.328 223.805L114 223.758C113.891 223.945 113.758 224.078 113.602 224.156C113.445 224.234 113.328 224.305 113.25 224.367C113.172 224.43 113.117 224.461 113.086 224.461C113.055 224.461 112.984 224.445 112.875 224.414C112.719 224.648 112.5 224.82 112.219 224.93C111.953 225.039 111.75 225.141 111.609 225.234C111.469 225.328 111.383 225.375 111.352 225.375L110.977 225.234C110.977 225.578 110.852 225.766 110.602 225.797C110.352 225.828 110.141 225.898 109.969 226.008L109.477 225.961C108.898 226.539 108.07 226.828 106.992 226.828C106.789 227.078 106.656 227.203 106.594 227.203L106.172 227.109C106.047 227.172 105.938 227.203 105.844 227.203C105.766 227.203 105.477 227.281 104.977 227.438C104.789 227.312 104.562 227.25 104.297 227.25L104.344 227.648C104.344 227.805 104.133 227.883 103.711 227.883C103.555 227.883 103.383 227.836 103.195 227.742C103.008 227.805 102.891 227.836 102.844 227.836C102.75 227.836 102.68 227.781 102.633 227.672C102.586 227.547 102.547 227.484 102.516 227.484C102.203 228 101.656 228.258 100.875 228.258C100.797 228.258 100.352 228.359 99.5391 228.562L99.2578 228.609C99.1953 228.609 99.1328 228.594 99.0703 228.562L98.6719 228.516C98.6094 228.516 98.4844 228.477 98.2969 228.398C98.2031 228.57 98.125 228.656 98.0625 228.656C97.7656 228.656 97.3984 228.703 96.9609 228.797C96.8203 228.719 96.4922 228.664 95.9766 228.633C95.4766 228.586 95.1641 228.492 95.0391 228.352H94.9922C94.9609 228.352 94.9062 228.367 94.8281 228.398H94.7344C94.6719 228.398 94.5938 228.375 94.5 228.328C94.4062 228.281 94.25 228.242 94.0312 228.211C93.8281 228.18 93.6172 228.016 93.3984 227.719C93.1797 227.406 93.0703 227.141 93.0703 226.922C93.0703 226.625 93.1953 226.352 93.4453 226.102C93.6953 225.852 93.9531 225.727 94.2188 225.727C94.3438 225.727 94.5156 225.773 94.7344 225.867H94.9922L95.3672 225.914L95.5078 225.867C95.4453 225.648 95.4141 225.531 95.4141 225.516C95.4141 225.047 95.5781 224.648 95.9062 224.32L96.2344 223.406C96.2656 223.344 96.3594 223.258 96.5156 223.148C96.6719 223.039 96.75 222.891 96.75 222.703L96.9609 222.211L97.0078 221.883L97.2422 221.555C97.3672 221.383 97.4453 221.219 97.4766 221.062C97.5078 220.906 97.6172 220.797 97.8047 220.734C97.8047 220.406 97.9141 220.141 98.1328 219.938C98.3672 219.734 98.4844 219.578 98.4844 219.469C98.4844 219.156 98.5938 218.984 98.8125 218.953C98.8906 218.891 98.9297 218.828 98.9297 218.766C98.9297 218.703 98.8906 218.602 98.8125 218.461C98.9219 218.148 99.0703 217.977 99.2578 217.945C99.4609 217.914 99.5859 217.883 99.6328 217.852C99.5078 217.82 99.4453 217.742 99.4453 217.617C99.4453 217.477 99.4922 217.344 99.5859 217.219L99.8203 216.609C99.8984 216.406 100.094 216.211 100.406 216.023C100.312 215.93 100.266 215.852 100.266 215.789C100.266 215.758 100.312 215.695 100.406 215.602L100.734 215.695C100.734 215.664 100.75 215.648 100.781 215.648L100.828 215.109L100.781 214.781C100.781 214.75 100.961 214.648 101.32 214.477L101.414 214.242C101.195 214.242 100.984 214.211 100.781 214.148C100.484 214.273 100.266 214.383 100.125 214.477C100.094 214.523 99.9609 214.547 99.7266 214.547H99.5859C99.5547 214.547 99.4141 214.508 99.1641 214.43C99.1016 214.461 99.0312 214.539 98.9531 214.664C98.8906 214.773 98.8438 214.828 98.8125 214.828L98.1094 214.594C98.0469 214.594 97.9219 214.68 97.7344 214.852C97.5625 215.023 97.3984 215.109 97.2422 215.109C97.1641 215.109 97.0312 215.062 96.8438 214.969C96.7188 215.062 96.4219 215.109 95.9531 215.109C95.75 215.109 95.5391 215.156 95.3203 215.25L94.9453 215.203L94.6406 215.25C94.5781 215.25 94.3438 215.109 93.9375 214.828C93.7031 214.891 93.5547 214.922 93.4922 214.922L93.1172 214.734C92.8672 214.609 92.6641 214.539 92.5078 214.523C92.3672 214.508 92.2266 214.469 92.0859 214.406C91.9609 214.344 91.8906 214.312 91.875 214.312C91.8594 214.297 91.7891 214.219 91.6641 214.078C91.5391 213.938 91.3984 213.836 91.2422 213.773C91.0859 213.711 91.0078 213.578 91.0078 213.375L90.9141 212.32C90.9141 212.227 90.9531 212.102 91.0312 211.945C91.1094 211.789 91.1484 211.648 91.1484 211.523C91.1484 211.32 91.2734 211.156 91.5234 211.031ZM97.1016 213.375H97.1953C97.4453 213.375 97.5703 213.477 97.5703 213.68C97.5703 213.742 97.5391 213.82 97.4766 213.914C97.5391 213.945 97.5859 213.961 97.6172 213.961C97.6797 213.961 97.7891 213.844 97.9453 213.609C98.1016 213.359 98.5078 213.234 99.1641 213.234C99.1953 213.234 99.2344 213.25 99.2812 213.281C99.3281 213.312 99.3672 213.328 99.3984 213.328C99.4297 213.328 99.5 213.281 99.6094 213.188C99.7188 213.094 99.8047 213.047 99.8672 213.047L100.922 212.812C101.922 212.656 102.422 212.461 102.422 212.227L102.375 211.898C102.438 211.773 102.578 211.586 102.797 211.336C103.031 211.07 103.148 210.797 103.148 210.516L103.289 209.977V209.742C103.289 209.32 103.578 209.062 104.156 208.969V208.922L103.922 208.195L103.969 208.102C104.188 207.992 104.297 207.914 104.297 207.867C104.297 207.836 104.219 207.742 104.062 207.586C103.922 207.414 103.852 206.93 103.852 206.133C103.852 205.68 104.109 205.453 104.625 205.453C105.297 205.453 105.898 205.75 106.43 206.344C106.961 206.938 107.227 207.602 107.227 208.336C107.227 208.883 106.953 209.703 106.406 210.797L106.266 211.312H106.641L107.227 211.219L107.648 211.266C107.852 211.266 108.086 211.203 108.352 211.078C108.617 210.953 108.859 210.875 109.078 210.844C109.312 210.812 109.539 210.719 109.758 210.562C110.211 210.453 110.594 210.375 110.906 210.328C111.234 210.281 111.539 210.18 111.82 210.023H111.938C111.969 210.023 112.031 210.086 112.125 210.211H112.172C112.203 210.211 112.25 210.195 112.312 210.164C112.406 209.945 112.609 209.781 112.922 209.672C113.25 209.547 113.461 209.422 113.555 209.297L113.953 208.875C113.953 208.844 114.203 208.68 114.703 208.383C115.219 208.07 115.602 207.914 115.852 207.914C116.336 207.914 116.625 208.102 116.719 208.477L116.859 208.875V208.922C116.859 209.312 116.547 209.789 115.922 210.352C115.312 210.914 114.5 211.32 113.484 211.57C112.469 211.82 111.852 211.945 111.633 211.945C111.539 211.945 111.445 211.867 111.352 211.711L110.859 211.852L110.719 212.086C110.719 212.117 110.688 212.133 110.625 212.133L110.344 211.945H110.25C110.094 212.086 109.797 212.227 109.359 212.367C108.938 212.508 108.609 212.625 108.375 212.719H107.906C107.656 212.719 107.312 212.797 106.875 212.953L106.453 213C105.906 213.094 105.602 213.156 105.539 213.188C105.477 213.219 105.359 213.43 105.188 213.82L104.602 215.109C104.523 215.297 104.391 215.539 104.203 215.836L103.852 216.398C103.82 216.398 103.805 216.414 103.805 216.445L103.922 216.797V216.844C102.953 218.141 102.289 219.266 101.93 220.219C101.57 221.172 101.172 222.039 100.734 222.82C100.312 223.586 100.047 224.117 99.9375 224.414C99.8281 224.711 99.7266 224.945 99.6328 225.117C99.5391 225.289 99.4922 225.391 99.4922 225.422C99.4922 225.5 99.5391 225.539 99.6328 225.539H99.8203C99.9922 225.398 100.164 225.32 100.336 225.305C100.508 225.289 100.688 225.266 100.875 225.234L101.133 225.328H101.508C101.523 225.328 101.656 225.25 101.906 225.094L102.094 225.141L102.516 225.094L102.914 225.141C102.945 225.141 103 225.117 103.078 225.07C103.156 225.023 103.258 224.992 103.383 224.977C103.508 224.961 103.602 224.93 103.664 224.883C103.727 224.836 103.773 224.812 103.805 224.812L104.016 224.859C104.047 224.891 104.078 224.906 104.109 224.906C104.203 224.906 104.297 224.781 104.391 224.531L104.812 224.672C104.812 224.438 104.883 224.32 105.023 224.32C105.461 224.32 105.711 224.305 105.773 224.273L106.031 224.32H106.078C106.109 224.32 106.203 224.273 106.359 224.18L108.914 223.219C109.102 223.188 109.453 222.984 109.969 222.609L110.438 222.398C110.766 222.242 110.977 222.117 111.07 222.023C111.164 221.93 111.242 221.883 111.305 221.883C111.758 221.883 112.062 221.688 112.219 221.297C112.281 221.266 112.406 221.172 112.594 221.016L112.828 220.969C113.062 220.906 113.32 220.766 113.602 220.547L114.047 220.195C114.141 220.102 114.312 220.039 114.562 220.008C115.141 219.305 115.555 218.891 115.805 218.766L116.156 218.578C116.188 218.312 116.297 218.102 116.484 217.945C116.672 217.789 116.789 217.617 116.836 217.43C116.898 217.227 116.992 217.125 117.117 217.125H117.258C117.32 217.125 117.352 217.094 117.352 217.031L117.305 216.609C117.305 216.344 117.461 216.211 117.773 216.211V216.07L117.727 215.695V215.648C117.727 215.383 117.844 215.211 118.078 215.133C118.328 215.055 118.453 214.906 118.453 214.688C118.453 214.516 118.43 214.336 118.383 214.148C118.336 213.961 118.312 213.852 118.312 213.82C118.312 213.523 118.523 213.281 118.945 213.094L118.992 213C118.992 212.969 118.93 212.906 118.805 212.812C118.695 212.719 118.641 212.625 118.641 212.531C118.641 212.484 118.672 212.383 118.734 212.227C118.797 212.07 118.828 211.977 118.828 211.945C118.828 211.914 118.789 211.836 118.711 211.711C118.633 211.586 118.594 211.469 118.594 211.359C118.594 211.234 118.641 211.078 118.734 210.891C118.828 210.703 118.875 210.578 118.875 210.516C118.875 210.375 118.859 210.258 118.828 210.164C118.641 210.07 118.547 209.961 118.547 209.836V209.742L118.594 209.555L118.547 209.25L118.641 208.969C118.547 208.688 118.469 208.414 118.406 208.148C118.344 207.867 118.234 207.648 118.078 207.492C117.938 207.32 117.867 207.203 117.867 207.141V207.094L117.984 206.766C117.984 206.734 117.93 206.703 117.82 206.672C117.023 205.609 115.969 204.805 114.656 204.258C113.344 203.711 112.672 203.438 112.641 203.438L112.125 203.484C111.859 203.359 111.711 203.297 111.68 203.297L111.445 203.344C111.414 203.375 111.383 203.391 111.352 203.391C111.289 203.391 111.148 203.328 110.93 203.203L110.344 203.25L109.758 203.203C109.023 203.141 108.438 203.172 108 203.297L106.125 203.602C106.062 203.602 105.805 203.68 105.352 203.836C105.102 203.992 104.586 204.148 103.805 204.305H103.242C103.211 204.305 103.117 204.383 102.961 204.539C102.805 204.695 102.305 204.891 101.461 205.125C101.242 205.344 101.055 205.477 100.898 205.523C100.758 205.555 100.656 205.609 100.594 205.688C100.531 205.766 100.469 205.805 100.406 205.805H100.078C99.9062 205.805 99.7188 205.93 99.5156 206.18C99.3125 206.43 98.8438 206.719 98.1094 207.047L97.8516 207.281L97.3828 207.539C97.2891 207.57 97.2109 207.633 97.1484 207.727L97.0547 207.82C96.6641 207.93 96.4141 208.109 96.3047 208.359C96.1953 208.609 96.0469 208.758 95.8594 208.805C95.6875 208.852 95.5781 208.969 95.5312 209.156C95.4844 209.344 95.3672 209.5 95.1797 209.625C94.9922 209.75 94.6875 210.117 94.2656 210.727C93.8438 211.32 93.6328 211.758 93.6328 212.039C93.6328 212.242 93.7266 212.531 93.9141 212.906C94.1016 213.281 94.375 213.469 94.7344 213.469C95.0312 213.469 95.2578 213.508 95.4141 213.586C95.5703 213.648 95.7109 213.68 95.8359 213.68C96.3516 213.68 96.7734 213.578 97.1016 213.375ZM129.469 209.297L129.328 208.383V208.242C129.328 207.508 129.578 207.102 130.078 207.023C130.188 207.008 130.516 206.906 131.062 206.719C131.344 206.781 131.633 207.031 131.93 207.469C132.242 207.891 132.398 208.266 132.398 208.594C132.398 208.625 132.375 208.695 132.328 208.805C132.281 208.914 132.25 209.125 132.234 209.438C132.219 209.734 132.062 210 131.766 210.234C131.484 210.453 131.18 210.562 130.852 210.562C130.633 210.562 130.352 210.414 130.008 210.117C129.68 209.805 129.5 209.531 129.469 209.297ZM119.344 221.016L119.719 220.688H119.859C119.969 220.688 120.133 220.57 120.352 220.336L120.586 220.242C120.898 219.773 121.172 219.5 121.406 219.422L121.781 219.141C121.844 219.078 121.93 219.023 122.039 218.977C122.164 218.93 122.352 218.781 122.602 218.531C122.867 218.266 123.078 218.133 123.234 218.133C123.391 218.133 123.516 218.148 123.609 218.18C123.703 217.992 123.891 217.812 124.172 217.641C124.453 217.453 124.68 217.234 124.852 216.984L125.156 216.844C125.406 216.719 125.625 216.562 125.812 216.375C126.016 216.172 126.273 216.07 126.586 216.07C127.039 216.07 127.508 216.305 127.992 216.773C128.492 217.227 128.742 217.664 128.742 218.086L128.344 219.914C128.078 221.258 127.781 221.961 127.453 222.023L127.359 222.516C127.141 222.672 127.031 222.797 127.031 222.891L127.172 223.453C127.172 223.531 127.086 223.648 126.914 223.805C126.883 223.805 126.867 223.852 126.867 223.945V224.906C126.867 225.078 126.758 225.219 126.539 225.328C126.57 225.359 126.617 225.391 126.68 225.422C126.773 225.328 126.984 225.281 127.312 225.281L127.688 225.328L128.203 224.812C128.312 224.781 128.461 224.711 128.648 224.602C128.852 224.477 129.188 224.32 129.656 224.133L132.727 221.789C133.148 221.367 133.469 221.156 133.688 221.156C133.922 221.156 134.039 221.305 134.039 221.602C134.039 221.945 133.969 222.234 133.828 222.469C133.703 222.688 133.586 222.961 133.477 223.289C133.367 223.602 133.234 223.82 133.078 223.945C132.938 224.07 132.82 224.211 132.727 224.367C132.633 224.508 132.375 224.719 131.953 225C131.547 225.281 131.195 225.57 130.898 225.867C130.617 226.148 130.383 226.352 130.195 226.477L129.188 227.203L129.047 227.438C129.016 227.469 128.867 227.539 128.602 227.648C128.352 227.742 128.125 227.867 127.922 228.023L127.5 228.258C127.406 228.32 127.25 228.359 127.031 228.375C126.828 228.391 126.648 228.484 126.492 228.656C126.336 228.812 126.211 228.891 126.117 228.891L125.766 228.844L125.297 228.984C125.031 228.984 124.703 228.828 124.312 228.516C123.938 228.188 123.75 227.844 123.75 227.484V227.344L123.797 227.016C123.797 226.953 123.75 226.797 123.656 226.547C123.562 226.281 123.516 226.133 123.516 226.102L123.562 225.773L123.516 225.633C123.516 225.211 123.547 224.945 123.609 224.836C123.672 224.727 123.719 224.578 123.75 224.391C123.781 224.188 123.812 224.023 123.844 223.898L123.961 223.312C124.023 223.125 124.102 223 124.195 222.938C124.227 222.812 124.289 222.602 124.383 222.305L124.477 221.883L124.711 221.555C124.836 221.43 124.906 221.266 124.922 221.062C124.953 220.844 125.039 220.617 125.18 220.383C125.32 220.148 125.391 220.008 125.391 219.961C125.391 219.773 125.297 219.68 125.109 219.68C125.047 219.68 124.852 219.805 124.523 220.055L124.102 219.914C124.07 219.914 123.984 219.992 123.844 220.148C123.844 220.211 123.773 220.258 123.633 220.289C123.492 220.32 123.359 220.438 123.234 220.641L123.047 220.688L122.742 220.547H122.648C122.492 220.547 122.398 220.719 122.367 221.062C122.195 221.312 121.969 221.477 121.688 221.555L121.172 221.695C121 221.758 120.875 221.898 120.797 222.117C120.719 222.336 120.562 222.539 120.328 222.727C120.094 222.898 119.938 222.984 119.859 222.984C119.422 222.984 119.203 222.742 119.203 222.258L119.391 221.156L119.344 221.016ZM151.688 223.078L152.062 222.75C152.297 222.75 152.438 222.648 152.484 222.445C152.531 222.227 152.695 222.055 152.977 221.93C153.273 221.805 153.547 221.555 153.797 221.18C154.047 220.789 154.305 220.594 154.57 220.594C154.664 220.594 154.773 220.672 154.898 220.828C155.023 220.984 155.086 221.109 155.086 221.203C155.086 221.719 154.93 222.25 154.617 222.797L154.523 223.453L154.359 223.758C154.125 223.883 153.969 224.016 153.891 224.156C153.828 224.297 153.648 224.469 153.352 224.672L153.117 225C152.773 225.109 152.539 225.289 152.414 225.539C152.305 225.789 152.141 225.93 151.922 225.961C151.719 225.992 151.492 226.148 151.242 226.43C151.086 226.508 150.898 226.578 150.68 226.641L150.633 226.875C150.477 227.031 150.227 227.156 149.883 227.25C149.555 227.344 149.305 227.438 149.133 227.531C148.977 227.609 148.867 227.648 148.805 227.648C148.508 227.648 148.234 227.594 147.984 227.484C147.734 227.359 147.477 227.281 147.211 227.25C147.117 227.156 147.062 227.055 147.047 226.945C147.031 226.836 146.953 226.695 146.812 226.523C146.672 226.336 146.602 226.086 146.602 225.773L146.695 225.328C146.695 225.266 146.656 225.188 146.578 225.094C146.5 225 146.461 224.922 146.461 224.859C146.461 224.797 146.477 224.75 146.508 224.719C146.539 224.688 146.555 224.641 146.555 224.578C146.555 224.5 146.539 224.414 146.508 224.32C146.477 224.227 146.461 224.148 146.461 224.086L146.602 222.938C146.602 222.844 146.57 222.797 146.508 222.797C146.445 222.797 146.328 222.875 146.156 223.031C146 223.188 145.812 223.266 145.594 223.266C145.469 223.359 145.367 223.555 145.289 223.852C145.164 224.008 145.008 224.148 144.82 224.273L144.727 224.414C144.695 224.523 144.578 224.617 144.375 224.695C144.172 224.758 144.031 224.844 143.953 224.953L143.719 225.188L143.273 225.141C143.242 225.172 143.156 225.312 143.016 225.562C142.875 225.797 142.695 225.992 142.477 226.148L140.695 227.602C140.508 227.727 140.234 227.883 139.875 228.07L139.734 228.211C138.484 229.039 137.602 229.453 137.086 229.453C136.664 229.453 136.172 229.336 135.609 229.102C135.047 228.867 134.742 228.586 134.695 228.258L134.461 227.297C134.32 227.078 134.25 226.773 134.25 226.383C134.25 226.195 134.266 226.07 134.297 226.008V225.867L134.25 225.094C134.25 224.906 134.398 224.812 134.695 224.812L134.648 224.18C134.648 224.117 134.781 223.875 135.047 223.453C135.328 223.016 135.516 222.766 135.609 222.703L135.844 222.398C135.828 222.211 135.938 222.016 136.172 221.812C136.406 221.594 136.594 221.375 136.734 221.156C136.875 220.938 137.141 220.695 137.531 220.43L138.234 219.727C138.781 219.18 139.375 218.742 140.016 218.414C140.109 218.383 140.297 218.227 140.578 217.945C140.875 217.664 141.203 217.461 141.562 217.336C141.938 217.195 142.297 217.023 142.641 216.82C143 216.617 143.281 216.516 143.484 216.516H143.672C143.734 216.516 144.148 216.32 144.914 215.93H145.055C145.117 215.93 145.266 215.992 145.5 216.117H145.547L145.922 215.93C145.984 215.898 146.062 215.883 146.156 215.883C147.125 215.883 147.656 216.555 147.75 217.898C147.781 218.18 147.859 218.32 147.984 218.32C148.141 218.32 148.359 218.039 148.641 217.477C148.938 216.898 149.555 216.609 150.492 216.609C151.164 216.609 151.5 217.039 151.5 217.898C151.5 218.914 151.047 219.875 150.141 220.781C150.078 220.906 150.031 221.047 150 221.203L149.672 222.164V222.211C149.672 222.305 149.602 222.438 149.461 222.609C149.336 222.766 149.273 222.906 149.273 223.031L149.32 223.617L149.227 224.273C149.227 224.57 149.281 224.766 149.391 224.859C149.891 224.734 150.25 224.531 150.469 224.25C150.703 223.953 150.867 223.789 150.961 223.758L151.195 223.664C151.336 223.43 151.5 223.234 151.688 223.078ZM143.906 223.078C143.969 222.734 144.156 222.477 144.469 222.305C144.797 222.117 144.992 221.93 145.055 221.742C145.352 221.523 145.773 221.133 146.32 220.57C146.883 220.008 147.164 219.664 147.164 219.539C147.164 219.492 147.133 219.469 147.07 219.469H147.023L146.836 219.586L146.414 219.539L145.969 219.586L145.641 219.422L145.336 219.469L144.867 219.375C144.617 219.375 144.398 219.43 144.211 219.539C144.039 219.633 143.695 219.742 143.18 219.867C142.68 219.992 142.227 220.211 141.82 220.523C141.414 220.82 141.117 220.969 140.93 220.969C140.82 221.203 140.453 221.539 139.828 221.977C139.453 222.102 139.211 222.375 139.102 222.797C138.695 223.125 138.492 223.312 138.492 223.359L138.328 223.758C138.203 223.867 138.047 223.961 137.859 224.039C137.672 224.102 137.562 224.266 137.531 224.531C137.5 224.781 137.391 225.016 137.203 225.234C137.031 225.438 136.945 225.602 136.945 225.727C136.945 226.492 137.094 226.875 137.391 226.875C137.516 226.875 137.773 226.797 138.164 226.641C138.57 226.469 138.805 226.352 138.867 226.289C138.93 226.227 139.055 226.164 139.242 226.102L139.688 225.867C139.75 225.805 139.82 225.766 139.898 225.75C139.977 225.734 140.055 225.688 140.133 225.609C140.211 225.516 140.352 225.422 140.555 225.328C140.758 225.219 140.914 225.078 141.023 224.906C141.289 224.75 141.719 224.508 142.312 224.18L142.805 223.805C143.148 223.648 143.359 223.516 143.438 223.406C143.516 223.297 143.672 223.188 143.906 223.078ZM158.906 217.758L159.258 217.664L159.398 217.359C160.164 216.906 160.711 216.477 161.039 216.07C161.07 216.008 161.141 215.945 161.25 215.883C161.359 215.82 161.477 215.711 161.602 215.555C162.18 214.977 162.867 214.688 163.664 214.688C164.602 214.688 165.102 215.258 165.164 216.398L165.305 216.75C165.43 216.969 165.602 217.414 165.82 218.086C166.055 218.758 166.172 219.172 166.172 219.328C166.172 219.75 166.039 220.172 165.773 220.594C165.555 220.703 165.031 221.289 164.203 222.352L163.969 222.516C163.844 222.797 163.68 223.078 163.477 223.359C163.164 223.469 163.008 223.586 163.008 223.711V224.133C163.008 224.164 162.969 224.227 162.891 224.32C162.828 224.414 162.734 224.594 162.609 224.859L162.422 225.141C162.359 225.203 162.297 225.336 162.234 225.539C162.172 225.727 162.078 225.898 161.953 226.055C161.844 226.211 161.789 226.336 161.789 226.43C161.789 226.664 162.094 226.781 162.703 226.781C162.734 226.781 162.852 226.734 163.055 226.641L163.383 226.734C163.414 226.734 163.492 226.688 163.617 226.594C163.742 226.484 163.93 226.398 164.18 226.336C164.445 226.273 164.672 226.18 164.859 226.055C165.062 225.93 165.297 225.82 165.562 225.727C165.844 225.633 166.109 225.484 166.359 225.281C166.609 225.062 166.852 224.906 167.086 224.812C167.336 224.719 167.562 224.578 167.766 224.391C167.984 224.188 168.227 224 168.492 223.828C168.758 223.656 169.18 223.281 169.758 222.703C170.133 222.406 170.391 222.242 170.531 222.211C170.562 222.211 170.695 222.008 170.93 221.602C171.18 221.18 171.461 220.969 171.773 220.969C172.102 220.969 172.266 221.125 172.266 221.438C172.266 221.609 172.188 221.773 172.031 221.93V222.07L172.078 222.445C172.109 222.492 172.125 222.562 172.125 222.656C172.125 222.719 172.062 222.812 171.938 222.938C171.828 223.062 171.75 223.227 171.703 223.43C171.656 223.617 171.508 223.742 171.258 223.805C171.164 224.148 171.039 224.344 170.883 224.391C170.742 224.438 170.539 224.594 170.273 224.859C170.008 225.125 169.633 225.438 169.148 225.797C168.664 226.156 168.328 226.438 168.141 226.641C167.969 226.828 167.852 226.922 167.789 226.922C167.758 226.922 167.695 226.891 167.602 226.828C167.508 226.766 167.445 226.734 167.414 226.734C167.32 226.734 167.258 226.844 167.227 227.062L167.133 227.297C166.93 227.422 166.812 227.484 166.781 227.484L166.641 227.438H166.547C166.359 227.438 166.266 227.508 166.266 227.648L166.406 227.883V227.93C166.406 228.148 166.281 228.258 166.031 228.258C165.859 228.258 165.359 228.547 164.531 229.125L163.852 229.266L163.289 229.57C163.102 229.461 162.984 229.406 162.938 229.406L162.562 229.523L161.883 229.57C161.867 229.57 161.578 229.414 161.016 229.102C160.469 228.789 160.141 228.477 160.031 228.164C159.922 227.852 159.781 227.539 159.609 227.227C159.438 226.898 159.352 226.672 159.352 226.547C159.352 225.797 159.414 225.266 159.539 224.953C159.664 224.625 159.742 224.383 159.773 224.227C159.805 224.07 159.891 223.906 160.031 223.734C160.188 223.547 160.312 223.25 160.406 222.844C160.859 221.938 161.172 221.383 161.344 221.18C161.516 220.977 161.648 220.727 161.742 220.43L162.047 220.008C162.078 219.977 162.125 219.859 162.188 219.656C162.25 219.438 162.328 219.312 162.422 219.281C162.547 219.062 162.609 218.922 162.609 218.859C162.609 218.406 162.406 218.18 162 218.18C161.922 218.18 161.836 218.266 161.742 218.438C161.648 218.594 161.43 218.75 161.086 218.906C160.758 219.062 160.555 219.18 160.477 219.258C160.398 219.336 160.227 219.438 159.961 219.562C159.711 219.672 159.492 219.852 159.305 220.102L158.906 220.289C158.781 220.586 158.672 220.75 158.578 220.781C158.484 220.812 158.195 220.891 157.711 221.016C157.68 221.031 157.602 221.125 157.477 221.297C157.352 221.469 157.172 221.555 156.938 221.555C156.75 221.742 156.562 221.961 156.375 222.211C156.312 222.211 156.148 222.273 155.883 222.398L155.414 222.516C155.289 222.609 155.148 222.758 154.992 222.961C154.852 223.164 154.578 223.266 154.172 223.266C153.938 223.266 153.82 223.078 153.82 222.703C153.82 221.938 154.086 221.328 154.617 220.875C155.164 220.422 155.562 220.18 155.812 220.148C156.062 220.117 156.219 220.023 156.281 219.867C156.344 219.711 156.492 219.586 156.727 219.492C156.977 219.383 157.258 219.156 157.57 218.812C157.898 218.453 158.25 218.211 158.625 218.086L158.906 217.758ZM189.281 223.453V223.711L189.328 223.898V223.992C189.328 224.023 189.297 224.203 189.234 224.531C189 224.781 188.867 225.133 188.836 225.586L188.555 226.008C188.555 226.227 188.477 226.398 188.32 226.523C188.18 226.648 188.055 226.898 187.945 227.273C187.836 227.648 187.703 228.047 187.547 228.469L187.008 229.805C187.008 229.867 187.039 229.898 187.102 229.898C187.133 229.898 187.18 229.883 187.242 229.852C187.32 229.82 187.391 229.805 187.453 229.805C187.516 229.805 187.578 229.82 187.641 229.852C187.703 229.883 187.75 229.898 187.781 229.898C187.812 229.898 187.922 229.844 188.109 229.734C188.312 229.625 188.539 229.555 188.789 229.523L189.656 229.312C189.844 229.25 190.227 229.219 190.805 229.219L191.531 229.172C192.109 229.172 192.688 229.32 193.266 229.617C193.859 229.914 194.227 230.227 194.367 230.555C194.523 230.883 194.602 231.414 194.602 232.148C194.602 232.727 194.406 233.016 194.016 233.016C193.781 233.016 193.477 232.867 193.102 232.57C192.742 232.273 192.492 231.898 192.352 231.445C192.211 230.992 191.984 230.766 191.672 230.766L191.086 230.578L190.758 230.672H190.664C190.602 230.672 190.461 230.625 190.242 230.531H190.172L189.469 230.719H188.508L188.062 230.953C187.844 231.016 187.602 231.062 187.336 231.094C187.086 231.125 186.859 231.188 186.656 231.281C186.453 231.375 186.352 231.461 186.352 231.539C186.352 232.023 186.141 232.438 185.719 232.781C185.562 233.031 185.477 233.227 185.461 233.367C185.445 233.523 185.352 233.688 185.18 233.859C185.023 234.047 184.852 234.328 184.664 234.703L184.477 235.031C184.414 235.125 184.383 235.203 184.383 235.266C184.383 235.297 184.398 235.359 184.43 235.453V235.664C184.43 236.102 184.172 236.516 183.656 236.906V237.141C183.656 237.266 183.531 237.445 183.281 237.68L183.375 238.148C183.375 238.211 183.289 238.336 183.117 238.523C182.945 238.727 182.797 238.945 182.672 239.18C182.562 239.43 182.344 239.648 182.016 239.836V239.977L182.156 240.258C182.203 240.258 182.227 240.289 182.227 240.352C182.227 240.461 182.109 240.625 181.875 240.844C181.812 241.094 181.703 241.336 181.547 241.57L180.586 242.859C180.43 243.078 180.352 243.25 180.352 243.375L180.188 243.82C180.016 243.961 179.891 244.102 179.812 244.242C179.75 244.398 179.547 244.695 179.203 245.133C178.859 245.57 178.633 245.789 178.523 245.789C178.617 245.977 178.664 246.086 178.664 246.117C178.664 246.305 178.539 246.531 178.289 246.797C177.883 246.797 177.68 246.883 177.68 247.055L177.797 247.523C177.797 247.586 177.711 247.68 177.539 247.805C177.367 247.93 177.227 247.992 177.117 247.992H176.789L176.883 248.414C176.82 248.586 176.727 248.703 176.602 248.766C176.477 248.828 176.266 249.008 175.969 249.305C175.688 249.617 175.484 249.805 175.359 249.867L175.055 250.055L174.141 250.148C173.891 250.07 173.406 249.812 172.688 249.375C171.984 248.938 171.586 248.523 171.492 248.133C171.383 247.758 171.328 247.219 171.328 246.516C171.328 246.438 171.406 246.305 171.562 246.117L171.609 245.93V245.484C171.609 245.453 171.688 245.172 171.844 244.641C172 244.125 172.133 243.836 172.242 243.773C172.352 243.727 172.523 243.422 172.758 242.859C172.992 242.297 173.172 241.93 173.297 241.758L175.453 238.594C175.453 238.391 175.484 238.258 175.547 238.195H175.688C175.812 238.195 175.898 238.148 175.945 238.055C175.992 237.977 176.062 237.883 176.156 237.773C176.156 237.477 176.289 237.234 176.555 237.047C176.836 236.859 177.031 236.648 177.141 236.414C177.266 236.195 177.406 235.992 177.562 235.805L177.609 235.664C177.672 235.602 177.805 235.523 178.008 235.43C178.227 235.352 178.352 235.234 178.383 235.078L179.18 234.305C179.258 234.242 179.383 234.164 179.555 234.07C179.727 233.977 179.906 233.805 180.094 233.555L180.258 233.484H180.398L180.492 233.438C180.68 233.031 180.867 232.812 181.055 232.781C181.258 232.75 181.391 232.703 181.453 232.641C181.438 232.156 181.711 231.914 182.273 231.914C182.398 231.914 182.492 231.883 182.555 231.82L183.117 231.375C183.195 231.312 183.344 231.008 183.562 230.461V230.414L183.984 230.531L184.031 230.414L183.938 229.898C183.984 229.836 184.078 229.625 184.219 229.266C184.359 228.891 184.492 228.672 184.617 228.609C184.742 228.547 184.805 228.477 184.805 228.398V228.117L184.758 227.836L184.852 227.648V227.344L184.898 227.25C184.977 227.172 185.07 226.883 185.18 226.383C185.242 226.32 185.328 226.258 185.438 226.195L186.492 223.219C186.523 223.141 186.57 222.938 186.633 222.609L186.82 222.352C187.008 221.852 187.102 221.531 187.102 221.391C187.102 221.328 187.07 221.297 187.008 221.297C186.945 221.297 186.805 221.391 186.586 221.578C186.367 221.75 186.203 221.836 186.094 221.836L185.719 221.742H185.625C185.531 221.742 185.398 221.82 185.227 221.977C185.07 222.133 184.977 222.211 184.945 222.211L184.664 222.258C184.508 222.523 184.367 222.672 184.242 222.703L183.656 223.078H183.609L183.281 222.844C183.281 222.812 183.242 222.797 183.164 222.797C183.102 222.797 183.008 222.984 182.883 223.359L182.156 223.711C182 223.68 181.906 223.664 181.875 223.664C181.719 223.664 181.57 223.812 181.43 224.109C181.289 224.391 181.102 224.547 180.867 224.578C180.742 224.719 180.453 224.828 180 224.906L178.617 225.867C178.461 225.93 178.352 226.008 178.289 226.102C177.961 226.133 177.656 226.312 177.375 226.641L176.742 226.594C176.586 226.594 176.43 226.695 176.273 226.898C176.133 227.102 175.984 227.203 175.828 227.203H175.688L175.406 227.156L174.633 227.344C174.414 227.344 174.078 227.18 173.625 226.852C173.172 226.508 172.945 226.211 172.945 225.961L172.805 224.906C172.805 224.875 172.867 224.766 172.992 224.578C173.117 224.391 173.18 224.258 173.18 224.18C173.18 224.148 173.164 224.086 173.133 223.992V223.805C173.133 223.258 173.328 222.602 173.719 221.836V221.742C173.719 221.68 173.672 221.648 173.578 221.648C173.375 221.648 173.203 221.82 173.062 222.164C172.922 222.492 172.758 222.727 172.57 222.867C172.383 223.008 172.242 223.125 172.148 223.219C172.07 223.312 172 223.359 171.938 223.359C171.844 223.297 171.734 223.25 171.609 223.219C171.578 223.188 171.523 223.094 171.445 222.938C171.367 222.781 171.25 222.656 171.094 222.562C170.922 222.453 170.836 222.273 170.836 222.023C170.836 221.852 171.062 221.625 171.516 221.344L171.797 221.062C172.516 220.344 173 219.961 173.25 219.914L173.391 219.586C173.609 219.414 173.875 219.18 174.188 218.883C174.516 218.57 174.805 218.352 175.055 218.227L176.32 217.125C176.695 216.781 177.211 216.609 177.867 216.609C178.367 216.609 178.617 216.93 178.617 217.57C178.617 218.211 178.5 218.711 178.266 219.07C178.047 219.414 177.906 219.734 177.844 220.031C177.797 220.312 177.594 220.695 177.234 221.18C176.875 221.648 176.656 222 176.578 222.234C176.5 222.453 176.336 222.766 176.086 223.172C175.852 223.562 175.734 223.914 175.734 224.227C175.734 224.383 175.828 224.461 176.016 224.461C176.281 224.461 176.617 224.32 177.023 224.039L177.234 223.945C177.391 223.883 177.547 223.805 177.703 223.711L178.289 223.453C178.398 223.219 178.57 223.062 178.805 222.984L179.25 222.75C179.469 222.656 179.734 222.539 180.047 222.398C180.375 222.242 180.586 222.094 180.68 221.953C180.773 221.812 180.891 221.703 181.031 221.625C181.188 221.531 181.359 221.391 181.547 221.203C181.953 221.203 182.516 220.852 183.234 220.148C183.953 219.727 184.625 219.312 185.25 218.906C185.875 218.484 186.289 218.18 186.492 217.992C186.586 217.93 186.75 217.844 186.984 217.734C187.234 217.625 187.508 217.453 187.805 217.219C188.117 216.969 188.508 216.844 188.977 216.844C189.383 216.844 189.773 217 190.148 217.312C190.523 217.609 190.711 217.906 190.711 218.203L190.664 219.328C190.664 220.047 190.469 220.656 190.078 221.156C189.984 221.781 189.875 222.211 189.75 222.445L189.797 222.984C189.797 223.078 189.625 223.234 189.281 223.453ZM178.172 241.406L178.289 241.078C178.32 240.969 178.43 240.859 178.617 240.75C178.773 240.078 178.984 239.641 179.25 239.438C179.25 239.094 179.266 238.898 179.297 238.852L179.625 238.547L180.539 237C180.633 236.781 180.734 236.57 180.844 236.367C180.953 236.18 181.039 235.992 181.102 235.805C181.102 235.586 181.359 235.156 181.875 234.516V234.352C181.875 234.133 181.828 234.023 181.734 234.023C181.641 234.133 181.484 234.242 181.266 234.352L179.766 235.617C179.688 235.68 179.477 235.93 179.133 236.367L178.688 236.836C178.438 237.102 178.242 237.266 178.102 237.328C177.977 237.406 177.812 237.633 177.609 238.008C177.422 238.398 177.258 238.594 177.117 238.594H177.023C177.008 238.594 176.93 238.555 176.789 238.477C176.695 238.523 176.648 238.594 176.648 238.688L176.789 239.25C176.789 239.312 176.727 239.406 176.602 239.531C176.477 239.672 176.367 239.82 176.273 239.977C176.195 240.133 176.109 240.227 176.016 240.258C175.922 240.289 175.75 240.578 175.5 241.125L175.055 241.359C175.008 242.281 174.719 243.023 174.188 243.586C174.062 243.836 173.961 244.078 173.883 244.312C173.805 244.562 173.734 244.719 173.672 244.781C173.578 245.359 173.414 245.695 173.18 245.789C173.117 245.82 173.086 245.867 173.086 245.93C173.086 246.023 173.156 246.117 173.297 246.211L173.391 246.305C173.188 246.914 173.086 247.367 173.086 247.664C173.086 247.727 173.117 247.758 173.18 247.758L173.883 247.406C174.383 247.172 174.719 246.875 174.891 246.516L175.266 245.789C175.328 245.695 175.438 245.633 175.594 245.602C175.688 245.273 175.836 245.062 176.039 244.969C176.258 244.875 176.367 244.75 176.367 244.594C176.367 244.438 176.656 243.898 177.234 242.977C177.828 242.055 178.141 241.531 178.172 241.406Z" fill="black"/>
</svg>
