<svg width="1440" height="900" viewBox="0 0 1440 900" fill="none" xmlns="http://www.w3.org/2000/svg">
<g id="MacBook Pro - 1" clip-path="url(#clip0)">
<rect width="1440" height="900" fill="#CA4FA7"/>
<g id="Line 2" filter="url(#filter0_d)">
<line x1="388.145" y1="572.522" x2="1439.87" y2="891.437" stroke="#FF9447"/>
</g>
<g id="Line 1" filter="url(#filter1_d)">
<line x1="10.4174" y1="0.72467" x2="388.417" y2="573.725" stroke="#FF9447"/>
</g>
<g id="Component 1">
<ellipse id="Ellipse 1" cx="217" cy="264" rx="182" ry="186" fill="#FF9447"/>
<g id="undraw_Celebrating_rtuv 1" clip-path="url(#clip1)">
<path id="Vector" d="M214.734 335.534C229.367 335.534 241.229 325.954 241.229 314.138C241.229 302.321 229.367 292.742 214.734 292.742C200.101 292.742 188.239 302.321 188.239 314.138C188.239 325.954 200.101 335.534 214.734 335.534Z" fill="#CA4FA7"/>
<path id="Vector_2" d="M150.296 366.2C149.735 365.982 149.256 365.647 148.91 365.229C148.565 364.811 148.365 364.326 148.332 363.824L147.946 357.932C147.899 357.191 148.217 356.465 148.831 355.913C149.446 355.361 150.306 355.029 151.224 354.989L212.038 352.395C212.955 352.357 213.854 352.614 214.537 353.11C215.22 353.606 215.631 354.301 215.681 355.042L216.066 360.934C216.114 361.675 215.795 362.401 215.181 362.952C214.566 363.504 213.706 363.836 212.789 363.876L151.975 366.471C151.396 366.496 150.819 366.403 150.296 366.2V366.2Z" fill="#CA4FA7"/>
<path id="Vector_3" d="M192.218 366.315C191.627 366.084 191.128 365.722 190.781 365.272C190.433 364.821 190.251 364.301 190.256 363.77L190.184 352.676C190.187 352.308 190.28 351.945 190.457 351.606C190.635 351.267 190.893 350.96 191.218 350.702C191.542 350.444 191.926 350.241 192.349 350.103C192.771 349.965 193.222 349.895 193.678 349.898L221.421 351.874C222.155 351.877 223.082 352.796 223.828 353.533C224.061 353.765 224.263 353.965 224.411 354.086C224.475 354.139 224.537 354.194 224.596 354.25C225.126 354.76 225.413 355.406 225.405 356.072L225.345 361.972C225.336 362.714 224.963 363.423 224.308 363.943C223.653 364.463 222.769 364.752 221.85 364.747L193.714 366.591C193.196 366.59 192.685 366.495 192.218 366.315Z" fill="#2F2E41"/>
<path id="Vector_4" d="M209.569 450H202.263C201.344 449.999 200.463 449.704 199.814 449.179C199.164 448.655 198.798 447.943 198.797 447.202V397.224C198.798 396.482 199.164 395.771 199.814 395.246C200.463 394.722 201.344 394.427 202.263 394.426H209.569C210.488 394.427 211.369 394.722 212.019 395.246C212.668 395.771 213.034 396.482 213.035 397.224V447.202C213.034 447.944 212.668 448.655 212.019 449.179C211.369 449.704 210.488 449.999 209.569 450V450Z" fill="#CA4FA7"/>
<path id="Vector_5" d="M228.842 450H221.536C220.617 449.999 219.736 449.704 219.087 449.179C218.437 448.655 218.071 447.943 218.07 447.202V397.224C218.071 396.482 218.437 395.771 219.087 395.246C219.736 394.722 220.617 394.427 221.536 394.426H228.842C229.761 394.427 230.642 394.722 231.292 395.246C231.941 395.771 232.307 396.482 232.308 397.224V447.202C232.307 447.944 231.941 448.655 231.292 449.179C230.642 449.704 229.761 449.999 228.842 450V450Z" fill="#CA4FA7"/>
<path id="Vector_6" d="M218.261 322.068L218.289 321.268C216.447 321.227 214.823 321.134 213.603 320.414C213.257 320.198 212.972 319.925 212.769 319.612C212.566 319.3 212.448 318.956 212.424 318.603C212.402 318.388 212.443 318.172 212.542 317.971C212.641 317.77 212.796 317.591 212.995 317.446C213.805 316.894 215.108 317.073 216.058 317.424L216.877 317.728L215.306 308.457L214.325 308.565L215.661 316.451C215.114 316.288 214.525 316.237 213.948 316.304C213.37 316.371 212.823 316.554 212.355 316.836C212.041 317.057 211.794 317.335 211.634 317.646C211.475 317.958 211.406 318.295 211.434 318.631C211.463 319.105 211.62 319.568 211.894 319.987C212.167 320.406 212.551 320.772 213.019 321.059C214.586 321.985 216.624 322.031 218.261 322.068Z" fill="#2F2E41"/>
<path id="Vector_7" d="M209.474 309.245H204.142V310.045H209.474V309.245Z" fill="#2F2E41"/>
<path id="Vector_8" d="M226.306 309.245H220.973V310.045H226.306V309.245Z" fill="#2F2E41"/>
<path id="Vector_9" d="M244.919 385.391L220.465 346.011H220.81C221.663 346.01 222.481 345.736 223.084 345.249C223.687 344.762 224.026 344.101 224.027 343.413V342.613C224.026 341.924 223.687 341.264 223.084 340.776C222.481 340.289 221.663 340.015 220.81 340.014H209.918C209.065 340.015 208.247 340.289 207.644 340.776C207.041 341.264 206.702 341.924 206.701 342.613V343.413C206.703 344.048 206.995 344.661 207.52 345.134C208.045 345.608 208.767 345.909 209.549 345.981L185.024 385.413C183.857 387.288 183.304 389.373 183.418 391.47C183.531 393.566 184.307 395.605 185.671 397.391C187.035 399.177 188.943 400.651 191.212 401.674C193.481 402.697 196.036 403.234 198.635 403.234H231.282C233.884 403.234 236.443 402.696 238.715 401.673C240.988 400.649 242.898 399.173 244.264 397.385C245.631 395.597 246.409 393.556 246.523 391.457C246.638 389.358 246.086 387.27 244.919 385.391Z" fill="#2F2E41"/>
<path id="Vector_10" d="M215.879 354.924L271.041 334.088C271.874 333.774 272.826 333.74 273.69 333.993C274.554 334.246 275.258 334.765 275.648 335.437L278.744 340.781C279.132 341.454 279.174 342.223 278.861 342.921C278.548 343.618 277.905 344.187 277.073 344.502L221.911 365.338C221.078 365.652 220.125 365.686 219.262 365.433C218.398 365.18 217.694 364.66 217.304 363.989L214.208 358.644C214.014 358.312 213.904 357.951 213.884 357.584C213.864 357.217 213.934 356.85 214.091 356.505C214.213 356.231 214.387 355.975 214.607 355.744C214.944 355.392 215.38 355.111 215.879 354.924Z" fill="#CA4FA7"/>
<path id="Vector_11" d="M213.987 354.795L238.273 343.105C239.101 342.785 240.052 342.742 240.919 342.987C241.786 343.232 242.497 343.744 242.896 344.412L249.021 354.348C249.219 354.681 249.334 355.041 249.358 355.41C249.383 355.778 249.318 356.146 249.165 356.494C249.013 356.842 248.777 357.162 248.471 357.436C248.165 357.709 247.795 357.932 247.382 358.089L221.439 366.182C220.759 366.446 219.426 365.952 218.354 365.555C218.018 365.431 217.728 365.323 217.529 365.267C217.442 365.243 217.357 365.215 217.274 365.186C216.52 364.917 215.909 364.439 215.552 363.839L212.385 358.522C212.107 358.053 211.995 357.531 212.062 357.014C212.13 356.497 212.374 356.005 212.767 355.593C213.091 355.254 213.509 354.981 213.987 354.795V354.795Z" fill="#2F2E41"/>
<path id="Vector_12" d="M193.808 303.01C193.454 303.009 193.114 302.895 192.863 302.692C192.613 302.49 192.472 302.215 192.471 301.929C192.469 301.844 192.481 301.759 192.506 301.677L199.431 277.044C199.484 276.858 199.595 276.687 199.755 276.548C199.915 276.408 200.118 276.305 200.343 276.248C200.568 276.192 200.808 276.184 201.037 276.226C201.267 276.267 201.48 276.357 201.653 276.486L224.612 293.654C224.785 293.784 224.912 293.947 224.982 294.129C225.052 294.311 225.061 294.504 225.01 294.689C224.958 294.875 224.847 295.046 224.687 295.186C224.528 295.326 224.326 295.43 224.101 295.487L194.211 302.961C194.08 302.993 193.944 303.01 193.808 303.01Z" fill="#3F3D56"/>
<path id="Vector_13" d="M212.586 285.002L198.165 282.685L198.392 281.876L211.142 283.923L212.586 285.002Z" fill="white"/>
<path id="Vector_14" d="M223.942 293.497L196.369 289.067L196.596 288.254L222.496 292.413L223.942 293.497Z" fill="white"/>
<g id="deco">
<path id="Vector_15" d="M214.078 297.732L212.008 298.249L194.578 295.448L194.805 294.635L214.078 297.732Z" fill="white"/>
<path id="Vector_16" d="M281.307 303.386C283.711 303.386 285.659 301.813 285.659 299.872C285.659 297.931 283.711 296.357 281.307 296.357C278.904 296.357 276.955 297.931 276.955 299.872C276.955 301.813 278.904 303.386 281.307 303.386Z" fill="#6C63FF"/>
<path id="Vector_17" d="M225.353 213.016C227.07 213.016 228.462 211.892 228.462 210.506C228.462 209.119 227.07 207.996 225.353 207.996C223.636 207.996 222.245 209.119 222.245 210.506C222.245 211.892 223.636 213.016 225.353 213.016Z" fill="#FF6584"/>
<path id="Vector_18" d="M157.587 290.835C159.303 290.835 160.695 289.711 160.695 288.325C160.695 286.938 159.303 285.814 157.587 285.814C155.87 285.814 154.478 286.938 154.478 288.325C154.478 289.711 155.87 290.835 157.587 290.835Z" fill="#FF6584"/>
<path id="Vector_19" d="M266.386 282.3C268.103 282.3 269.495 281.176 269.495 279.79C269.495 278.403 268.103 277.279 266.386 277.279C264.669 277.279 263.278 278.403 263.278 279.79C263.278 281.176 264.669 282.3 266.386 282.3Z" fill="#6C63FF"/>
<path id="Vector_20" d="M171.886 316.44C173.603 316.44 174.995 315.316 174.995 313.929C174.995 312.543 173.603 311.419 171.886 311.419C170.169 311.419 168.777 312.543 168.777 313.929C168.777 315.316 170.169 316.44 171.886 316.44Z" fill="#6C63FF"/>
<path id="Vector_21" d="M270.116 323.468C271.833 323.468 273.225 322.345 273.225 320.958C273.225 319.572 271.833 318.448 270.116 318.448C268.4 318.448 267.008 319.572 267.008 320.958C267.008 322.345 268.4 323.468 270.116 323.468Z" fill="#E6E6E6"/>
<path id="Vector_22" d="M242.761 234.102C244.478 234.102 245.87 232.979 245.87 231.592C245.87 230.206 244.478 229.082 242.761 229.082C241.044 229.082 239.653 230.206 239.653 231.592C239.653 232.979 241.044 234.102 242.761 234.102Z" fill="#CCCCCC"/>
<path id="Vector_23" d="M125.268 261.704C128.523 261.869 131.683 262.656 134.489 263.998C137.295 265.34 139.668 267.2 141.411 269.426C141.9 270.057 142.538 270.75 142.2 271.527C142.082 271.825 141.843 272.081 141.521 272.255C141.199 272.428 140.813 272.509 140.428 272.483C139.947 272.399 139.513 272.19 139.194 271.888C138.875 271.585 138.687 271.207 138.661 270.81C138.635 270.413 138.771 270.02 139.048 269.692C139.326 269.364 139.729 269.119 140.196 268.994C142.454 268.217 144.731 269.418 146.57 270.378C150.76 272.563 155.369 274.54 160.446 274.789C165.144 275.019 170.181 273.532 172.794 270.242C173.251 269.666 172.116 269.135 171.661 269.707C169.07 272.97 163.831 274.142 159.277 273.637C156.562 273.291 153.941 272.573 151.527 271.513C150.275 270.988 149.061 270.406 147.871 269.795C146.739 269.157 145.539 268.602 144.286 268.135C142.195 267.441 139.427 267.496 137.966 269.092C136.604 270.582 137.657 273.062 139.936 273.481C140.436 273.561 140.952 273.539 141.439 273.418C141.926 273.296 142.368 273.079 142.726 272.786C143.083 272.493 143.345 272.133 143.488 271.738C143.63 271.343 143.649 270.925 143.543 270.523C143.316 269.646 142.498 268.787 141.864 268.07C139.962 265.909 137.483 264.12 134.611 262.835C131.739 261.549 128.546 260.801 125.268 260.645C124.424 260.611 124.426 261.67 125.268 261.704L125.268 261.704Z" fill="#0F0D0D"/>
<path id="Vector_24" d="M309.115 293.771C306.934 292.637 305.117 291.102 303.812 289.291C302.508 287.48 301.753 285.446 301.61 283.354C301.574 282.763 301.464 282.082 302.071 281.649C302.296 281.479 302.586 281.375 302.893 281.356C303.2 281.336 303.506 281.401 303.761 281.54C304.055 281.748 304.256 282.029 304.332 282.339C304.409 282.649 304.357 282.97 304.185 283.254C304.013 283.538 303.73 283.768 303.38 283.909C303.03 284.05 302.632 284.094 302.247 284.035C300.306 283.868 299.301 282.32 298.485 281.079C296.624 278.249 294.372 275.434 290.965 273.672C287.813 272.041 283.601 271.497 280.207 272.964C279.613 273.221 280.146 273.945 280.737 273.69C284.103 272.235 288.303 273.061 291.225 274.837C292.944 275.927 294.419 277.247 295.587 278.739C296.204 279.495 296.768 280.279 297.301 281.076C297.781 281.873 298.348 282.635 298.995 283.351C300.114 284.487 302.062 285.316 303.843 284.664C304.24 284.499 304.583 284.26 304.845 283.968C305.107 283.676 305.281 283.338 305.353 282.982C305.425 282.626 305.393 282.261 305.259 281.917C305.125 281.573 304.893 281.259 304.582 281C304.273 280.788 303.904 280.642 303.507 280.573C303.111 280.505 302.7 280.518 302.311 280.609C301.922 280.701 301.567 280.869 301.278 281.099C300.99 281.329 300.776 281.613 300.657 281.925C300.473 282.661 300.47 283.418 300.645 284.154C300.929 286.251 301.792 288.269 303.17 290.061C304.547 291.852 306.406 293.372 308.607 294.506C309.177 294.794 309.684 294.057 309.115 293.771L309.115 293.771Z" fill="#0F0D0D"/>
<path id="Vector_25" d="M201.847 224.265C199.258 224.133 196.745 223.508 194.513 222.441C192.281 221.373 190.395 219.893 189.008 218.123C188.619 217.622 188.111 217.07 188.38 216.452C188.474 216.216 188.665 216.011 188.921 215.873C189.177 215.735 189.483 215.671 189.79 215.692C190.173 215.759 190.517 215.925 190.771 216.165C191.025 216.406 191.174 216.707 191.195 217.023C191.216 217.338 191.108 217.65 190.887 217.911C190.666 218.172 190.346 218.367 189.974 218.467C188.179 219.085 186.367 218.129 184.905 217.366C181.572 215.628 177.906 214.056 173.868 213.858C170.132 213.675 166.126 214.858 164.047 217.474C163.684 217.932 164.587 218.355 164.948 217.9C167.009 215.305 171.176 214.373 174.798 214.774C176.957 215.049 179.042 215.62 180.962 216.464C181.958 216.881 182.923 217.344 183.87 217.83C184.77 218.337 185.724 218.779 186.722 219.15C188.384 219.702 190.586 219.659 191.747 218.388C191.994 218.088 192.15 217.744 192.202 217.386C192.255 217.028 192.203 216.664 192.051 216.325C191.899 215.986 191.65 215.68 191.326 215.432C191.001 215.185 190.609 215.002 190.181 214.898C189.784 214.835 189.373 214.852 188.985 214.948C188.598 215.045 188.247 215.217 187.962 215.451C187.678 215.684 187.47 215.97 187.356 216.285C187.243 216.599 187.228 216.931 187.312 217.251C187.596 217.965 188.049 218.628 188.647 219.202C190.16 220.921 192.132 222.344 194.416 223.366C196.701 224.388 199.24 224.983 201.847 225.108C202.518 225.134 202.517 224.292 201.847 224.265L201.847 224.265Z" fill="#0F0D0D"/>
<path id="Vector_26" d="M204.215 250.957H201.106V259.205H204.215V250.957Z" fill="#CCCCCC"/>
<path id="Vector_27" d="M153.954 245.201L156.114 243.457L149.016 237.724L146.856 239.469L153.954 245.201Z" fill="#B3B3B3"/>
<path id="Vector_28" d="M241.356 262.535L243.516 264.279L250.614 258.547L248.454 256.803L241.356 262.535Z" fill="#B3B3B3"/>
<path id="Vector_29" d="M153.073 333.827L155.233 335.571L162.331 329.839L160.171 328.095L153.073 333.827Z" fill="#FF6584"/>
</g>
</g>
</g>
<g id="Component 2">
<ellipse id="Ellipse 3" cx="538" cy="677" rx="182" ry="186" fill="#FF9447"/>
<g id="undraw_Co_workers_re_1i6i 1" clip-path="url(#clip2)">
<path id="Vector_30" d="M641.205 715.001C641.446 716.222 641.672 717.45 641.882 718.683H570.212V715.001H641.205Z" fill="#E6E6E6"/>
<path id="Vector_31" d="M638.921 705.293C637.767 701.065 636.421 696.93 634.891 692.908C634.421 691.668 633.932 690.44 633.425 689.225C633.341 689.017 633.252 688.808 633.163 688.599V716.006H639.357V706.924L638.921 705.293Z" fill="#E6E6E6"/>
<path id="Vector_32" d="M634.891 692.908H633.163V689.225H633.425C633.933 690.439 634.421 691.667 634.891 692.908Z" fill="#CCCCCC"/>
<path id="Vector_33" d="M638.921 705.293H633.163V708.976H639.357V706.924L638.921 705.293Z" fill="#CCCCCC"/>
<path id="Vector_34" d="M629.81 684.204H623.618V716.006H629.81V684.204Z" fill="#E6E6E6"/>
<path id="Vector_35" d="M629.81 689.226H623.618V692.908H629.81V689.226Z" fill="#CCCCCC"/>
<path id="Vector_36" d="M629.81 705.294H623.618V708.977H629.81V705.294Z" fill="#CCCCCC"/>
<path id="Vector_37" d="M601.571 684.019H579.358C579.016 684.02 578.688 684.197 578.445 684.511C578.203 684.825 578.067 685.251 578.067 685.695V714.517C578.067 714.68 578.085 714.843 578.121 715.001C578.202 715.345 578.365 715.647 578.588 715.861C578.811 716.076 579.081 716.192 579.358 716.192H601.571C601.849 716.192 602.119 716.076 602.341 715.861C602.564 715.647 602.728 715.345 602.808 715.001C602.844 714.843 602.862 714.68 602.863 714.517V685.695C602.862 685.251 602.726 684.825 602.484 684.511C602.242 684.197 601.914 684.02 601.571 684.019V684.019Z" fill="#E6E6E6"/>
<path id="Vector_38" d="M599.993 686.067H580.937C580.594 686.068 580.266 686.245 580.024 686.559C579.782 686.873 579.646 687.299 579.645 687.743V712.469C579.646 712.913 579.782 713.339 580.024 713.653C580.266 713.967 580.594 714.144 580.937 714.144H599.993C600.335 714.144 600.663 713.967 600.905 713.653C601.148 713.339 601.284 712.913 601.284 712.469V687.743C601.284 687.299 601.148 686.873 600.905 686.559C600.663 686.245 600.335 686.068 599.993 686.067V686.067Z" fill="white"/>
<path id="Vector_39" d="M596.67 690.379H584.26C583.918 690.38 583.589 690.557 583.347 690.871C583.105 691.185 582.969 691.611 582.968 692.055V708.156C582.969 708.601 583.105 709.027 583.347 709.341C583.589 709.655 583.918 709.831 584.26 709.832H596.67C597.012 709.83 597.339 709.653 597.581 709.339C597.823 709.025 597.959 708.6 597.961 708.156V692.055C597.961 691.611 597.824 691.185 597.582 690.871C597.34 690.557 597.012 690.38 596.67 690.379V690.379Z" fill="#CCCCCC"/>
<path id="Vector_40" d="M595.904 705.316L593.283 699.426C593.233 699.313 593.161 699.219 593.073 699.153C592.986 699.088 592.887 699.054 592.786 699.054C592.685 699.054 592.587 699.088 592.499 699.153C592.412 699.219 592.34 699.313 592.289 699.426L590.375 703.727L587.865 698.087C587.815 697.974 587.742 697.88 587.655 697.814C587.568 697.749 587.469 697.714 587.368 697.714C587.267 697.714 587.168 697.749 587.081 697.814C586.994 697.88 586.921 697.974 586.871 698.087L584.25 703.977L581.132 710.985H587.146L586.55 712.324H599.023L595.904 705.316Z" fill="white"/>
<path id="Vector_41" d="M594.979 696.256C595.977 696.256 596.785 695.207 596.785 693.912C596.785 692.618 595.977 691.569 594.979 691.569C593.982 691.569 593.173 692.618 593.173 693.912C593.173 695.207 593.982 696.256 594.979 696.256Z" fill="white"/>
<path id="Vector_42" d="M643.946 741.022C643.926 739.577 643.882 738.14 643.814 736.71C643.785 736.025 643.751 735.343 643.708 734.662H631.591C631.248 734.663 630.92 734.839 630.678 735.153C630.436 735.468 630.3 735.893 630.299 736.338V765.159C630.299 765.291 630.311 765.423 630.337 765.55C630.404 765.916 630.565 766.241 630.792 766.474C631.02 766.707 631.301 766.834 631.591 766.835H642.761C642.818 766.41 642.872 765.978 642.921 765.55C642.953 765.297 642.984 765.04 643.013 764.787C643.082 764.18 643.148 763.573 643.208 762.966C643.294 762.139 643.372 761.309 643.441 760.475C643.693 757.485 643.856 754.462 643.929 751.408V751.404C643.954 750.253 643.968 749.098 643.969 747.937V743.469C643.969 742.649 643.963 741.834 643.946 741.022Z" fill="#E6E6E6"/>
<path id="Vector_43" d="M643.946 741.022C643.926 739.577 643.882 738.14 643.814 736.71H633.169C632.827 736.711 632.499 736.887 632.257 737.201C632.014 737.516 631.878 737.941 631.878 738.386V763.111C631.878 763.555 632.014 763.981 632.257 764.295C632.499 764.609 632.827 764.786 633.169 764.787H643.013C643.082 764.18 643.148 763.573 643.208 762.966C643.294 762.139 643.372 761.309 643.441 760.475C643.693 757.485 643.856 754.462 643.929 751.407V751.404C643.954 750.253 643.968 749.098 643.969 747.937V743.469C643.969 742.649 643.963 741.834 643.946 741.022Z" fill="white"/>
<path id="Vector_44" d="M643.946 741.022H636.493C636.15 741.023 635.822 741.199 635.58 741.514C635.338 741.828 635.202 742.253 635.201 742.698V758.799C635.202 759.243 635.338 759.669 635.58 759.983C635.822 760.297 636.15 760.474 636.493 760.475H643.441C643.693 757.485 643.856 754.462 643.929 751.407V751.404C643.954 750.253 643.968 749.098 643.969 747.937V743.469C643.969 742.649 643.963 741.834 643.946 741.022Z" fill="#CCCCCC"/>
<path id="Vector_45" d="M643.929 751.408C643.857 754.461 643.694 757.483 643.441 760.475C643.372 761.309 643.294 762.139 643.208 762.966H638.783L639.38 761.629H633.364L635.201 757.5L636.481 754.621L639.104 748.73C639.154 748.616 639.226 748.522 639.314 748.456C639.401 748.391 639.5 748.356 639.601 748.356C639.702 748.356 639.801 748.391 639.888 748.456C639.975 748.522 640.047 748.616 640.097 748.73L642.608 754.372L643.929 751.408Z" fill="white"/>
<path id="Vector_46" d="M622.183 668.138H570.212V664.455H619.606C620.484 665.658 621.343 666.885 622.183 668.138Z" fill="#E6E6E6"/>
<path id="Vector_47" d="M597.818 642.597C599.936 644.108 602 645.728 604.011 647.456V665.457H597.818V642.597Z" fill="#E6E6E6"/>
<path id="Vector_48" d="M604.009 654.746H597.817V658.428H604.009V654.746Z" fill="#CCCCCC"/>
<path id="Vector_49" d="M613.556 656.914V665.457H607.363V650.483C608.807 651.85 610.218 653.271 611.596 654.747C612.256 655.455 612.909 656.177 613.556 656.914Z" fill="#E6E6E6"/>
<path id="Vector_50" d="M613.556 656.914V658.426H607.363V654.747H611.596C612.256 655.455 612.909 656.177 613.556 656.914Z" fill="#CCCCCC"/>
<path id="Vector_51" d="M591.495 638.493C593.134 639.45 594.745 640.47 596.328 641.554L595.054 644.89L590.821 655.991L589.561 659.29L587.589 664.455L587.156 665.591L585.391 664.455L581.608 662.023L584.01 655.723H584.013L585.27 652.424L589.506 641.323L590.752 638.061L590.766 638.024L591.495 638.493Z" fill="#E6E6E6"/>
<path id="Vector_52" d="M596.314 641.587L595.054 644.89L589.506 641.323L590.752 638.061L590.766 638.024L591.495 638.493L596.314 641.587Z" fill="#CCCCCC"/>
<path id="Vector_53" d="M585.27 652.425L584.011 655.725L589.56 659.289L590.82 655.989L585.27 652.425Z" fill="#CCCCCC"/>
<path id="Vector_54" d="M642.921 765.55C642.872 765.978 642.818 766.41 642.76 766.835C642.66 767.639 642.551 768.436 642.433 769.233H570.212V765.55H642.921Z" fill="#E6E6E6"/>
<path id="Vector_55" d="M604.009 734.753H597.817V766.555H604.009V734.753Z" fill="#E6E6E6"/>
<path id="Vector_56" d="M604.009 739.774H597.817V743.457H604.009V739.774Z" fill="#CCCCCC"/>
<path id="Vector_57" d="M604.009 755.843H597.817V759.525H604.009V755.843Z" fill="#CCCCCC"/>
<path id="Vector_58" d="M613.556 734.753H607.363V766.555H613.556V734.753Z" fill="#E6E6E6"/>
<path id="Vector_59" d="M613.556 739.774H607.363V743.457H613.556V739.774Z" fill="#CCCCCC"/>
<path id="Vector_60" d="M613.556 755.843H607.363V759.525H613.556V755.843Z" fill="#CCCCCC"/>
<path id="Vector_61" d="M592.482 734.621L581.607 763.122L587.156 766.687L598.031 738.186L592.482 734.621Z" fill="#E6E6E6"/>
<path id="Vector_62" d="M590.765 739.122L589.506 742.422L595.055 745.986L596.314 742.686L590.765 739.122Z" fill="#CCCCCC"/>
<path id="Vector_63" d="M585.27 753.522L584.011 756.822L589.56 760.387L590.819 757.086L585.27 753.522Z" fill="#CCCCCC"/>
<path id="Vector_64" d="M522.715 779.742C522.974 779.935 523.22 780.155 523.453 780.398L549.003 770.081L550.444 761.856L560.295 763.055L558.835 777.937C558.717 779.14 558.302 780.26 557.651 781.13C557.001 782 556.151 782.573 555.228 782.762L525.159 788.939C524.72 790.319 523.968 791.492 523.003 792.304C522.038 793.115 520.905 793.526 519.755 793.482C518.605 793.438 517.493 792.94 516.567 792.056C515.64 791.172 514.943 789.942 514.568 788.532C514.193 787.121 514.159 785.595 514.468 784.158C514.778 782.721 515.417 781.44 516.302 780.485C517.186 779.531 518.273 778.949 519.419 778.816C520.565 778.683 521.714 779.006 522.715 779.742V779.742Z" fill="#FFB8B8"/>
<path id="Vector_65" d="M564.848 767.989L564.678 764.236V764.232L564.633 763.204L564.133 752.152C564.283 749.848 563.722 747.561 562.575 745.792C561.428 744.023 559.787 742.916 558.012 742.713C557.501 742.653 556.987 742.671 556.479 742.765C554.971 743.041 553.58 743.971 552.53 745.402C551.48 746.834 550.834 748.684 550.696 750.652L549.66 756.245L547.849 766.027C547.721 766.711 547.774 767.432 548 768.072C548.226 768.713 548.612 769.236 549.095 769.557C549.374 769.747 549.679 769.864 549.993 769.899L553.012 770.25L555.919 770.585L559.274 770.972L559.516 770.998L560.135 771.072L562.21 771.311H562.216C562.563 771.347 562.911 771.287 563.239 771.136C563.566 770.984 563.865 770.745 564.116 770.432C564.299 770.201 564.453 769.935 564.572 769.643C564.782 769.136 564.877 768.563 564.848 767.989V767.989Z" fill="#6C63FF"/>
<path id="Vector_66" d="M592.886 722.475C592.886 735.22 583.803 733.292 572.6 733.292C561.396 733.292 552.314 735.22 552.314 722.475C552.314 709.731 556.75 687.14 572.6 687.14C588.995 687.14 592.886 709.731 592.886 722.475Z" fill="#2F2E41"/>
<path id="Vector_67" d="M582.184 728.083C587.515 721.166 587.515 709.952 582.184 703.035C576.853 696.118 568.21 696.118 562.879 703.035C557.548 709.952 557.548 721.166 562.879 728.083C568.21 735 576.853 735 582.184 728.083Z" fill="#FFB8B8"/>
<path id="Vector_68" d="M591.748 740.717C591.485 740.388 591.206 740.082 590.912 739.801C589.057 737.981 586.724 737.18 584.418 737.57L559.263 741.7C556.959 742.071 554.857 743.592 553.402 745.94C551.947 748.288 551.255 751.279 551.471 754.278C551.543 755.321 551.623 756.42 551.712 757.563C551.827 758.996 551.956 760.501 552.105 762.057C552.352 764.675 552.653 767.438 553.012 770.249C553.325 772.67 553.681 775.124 554.088 777.548C554.206 778.248 554.329 778.946 554.456 779.641C554.456 779.643 554.456 779.645 554.456 779.647C554.457 779.649 554.458 779.65 554.459 779.652C554.473 779.738 554.487 779.823 554.504 779.905C554.504 779.912 554.505 779.918 554.507 779.924C554.685 780.892 554.872 781.849 555.067 782.795C555.142 783.145 555.213 783.491 555.288 783.834C555.489 784.765 555.701 785.677 555.919 786.574C557.558 793.251 559.725 798.937 562.586 801.961C562.624 802.005 562.661 802.043 562.701 802.084L562.816 802.199L562.982 802.132L563.688 801.86L564.291 801.622L572.143 798.557L574.098 797.794L580.377 795.34H580.38L586.123 793.098L586.823 792.823L591.756 790.897L591.914 788.507L592.127 785.334L592.253 783.428L593.251 768.391L593.834 759.618L594.465 750.093C594.583 748.366 594.399 746.626 593.929 745.003C593.459 743.381 592.713 741.916 591.748 740.717V740.717Z" fill="#2F2E41"/>
<path id="Vector_69" d="M605.813 813.474C605.747 813.225 605.684 812.976 605.618 812.73C602.668 801.559 598.317 793.109 591.914 788.507C591.911 788.507 591.911 788.503 591.908 788.503L591.799 788.425L586.22 790.931L585.531 791.24L584.814 791.564L584.805 791.568L579.582 793.914L579.573 793.917L575.475 795.757H575.472L571.681 797.459H571.678L570.797 797.857L564.17 800.832L563.401 801.179L562.713 801.488L562.606 801.536L562.586 801.961L562.113 812.73L562.081 813.474L561.49 826.913L541.857 863H555.288C559.788 863.001 564.282 862.557 568.731 861.671L581.333 844.05C581.438 843.908 581.572 843.806 581.719 843.756C581.865 843.705 582.02 843.707 582.166 843.763C582.312 843.818 582.444 843.924 582.547 844.069C582.65 844.214 582.72 844.393 582.75 844.586L584.601 856.502C593.721 852.318 602.252 846.228 609.857 838.472C608.973 829.218 607.681 820.784 605.813 813.474Z" fill="#2F2E41"/>
<path id="Vector_70" d="M556.76 713.822H562.159L564.541 705.168L565.017 713.822H567.598L568.987 708.774L569.265 713.822H588.439C588.439 711.359 588.066 708.921 587.339 706.647C586.613 704.372 585.549 702.305 584.207 700.564C582.865 698.823 581.272 697.442 579.519 696.499C577.766 695.557 575.887 695.072 573.989 695.072H571.21C567.378 695.072 563.702 697.048 560.992 700.564C558.282 704.08 556.76 708.849 556.76 713.822V713.822Z" fill="#2F2E41"/>
<path id="Vector_71" d="M523.55 807.661C522.669 808.141 521.717 808.365 520.762 808.317C519.806 808.268 518.871 807.949 518.021 807.38C517.171 806.812 516.428 806.009 515.843 805.027C515.258 804.046 514.846 802.91 514.637 801.7L491.544 798.306L499.285 786.278L520.027 791.345C521.618 791.022 523.244 791.468 524.598 792.597C525.952 793.727 526.94 795.461 527.374 797.473C527.809 799.484 527.659 801.632 526.954 803.509C526.25 805.387 525.038 806.864 523.55 807.661L523.55 807.661Z" fill="#A0616A"/>
<path id="Vector_72" d="M511.1 785.398L501.339 783.134L500.63 782.97C500.064 782.838 499.525 782.553 499.05 782.133C498.574 781.712 498.173 781.166 497.872 780.529C497.571 779.893 497.377 779.182 497.303 778.441C497.228 777.701 497.276 776.948 497.442 776.234L502.235 755.571L502.378 754.956C502.976 752.33 502.87 749.518 502.076 746.98C501.282 744.443 499.847 742.33 498.007 740.989C496.762 740.091 495.373 739.579 493.95 739.491C492.527 739.403 491.108 739.742 489.802 740.482C488.496 741.222 487.34 742.343 486.423 743.757C485.505 745.172 484.852 746.842 484.513 748.637L478.4 781.007L478.173 782.206C477.746 784.465 477.7 786.817 478.037 789.101C478.374 791.385 479.086 793.548 480.126 795.442C481.166 797.337 482.508 798.918 484.062 800.078C485.615 801.238 487.343 801.95 489.128 802.166C489.148 802.169 489.165 802.169 489.185 802.173L492.844 802.594L497.591 803.141L503.561 803.83L509.131 804.474C509.861 804.56 510.589 804.287 511.17 803.709C511.752 803.131 512.145 802.29 512.271 801.354C512.279 801.302 512.285 801.25 512.291 801.197L513.473 789.743L513.485 789.639C513.587 788.669 513.395 787.686 512.951 786.895C512.506 786.104 511.843 785.568 511.1 785.398V785.398Z" fill="#CCCCCC"/>
<path id="Vector_73" d="M496.062 698.609C492.165 708.549 489.095 718.801 480.5 718.801C476.373 718.801 472.414 716.674 469.496 712.887C466.578 709.1 464.938 703.965 464.938 698.609C464.938 687.458 471.906 678.557 480.5 678.418C489.235 678.276 503.314 680.109 496.062 698.609Z" fill="#2F2E41"/>
<path id="Vector_74" d="M505.836 828.641L505.483 824.068L505.219 824.087L458.815 826.988L458.936 831.616L459.14 839.544C466.32 846.641 474.294 852.273 482.785 856.245L483.086 853.214C483.113 852.967 483.204 852.739 483.345 852.57C483.486 852.4 483.667 852.299 483.859 852.283C484.051 852.267 484.241 852.338 484.397 852.483C484.554 852.628 484.666 852.839 484.717 853.08L485.632 857.507C493.029 860.603 500.71 862.407 508.474 862.873L505.836 828.641Z" fill="#2F2E41"/>
<path id="Vector_75" d="M490.918 714.007C496.249 707.09 496.249 695.875 490.918 688.959C485.587 682.042 476.944 682.042 471.613 688.959C466.282 695.875 466.282 707.09 471.613 714.007C476.944 720.923 485.587 720.923 490.918 714.007Z" fill="#A0616A"/>
<path id="Vector_76" d="M508.503 824.378L505.796 813.474L505.75 813.288L505.612 812.73L504.84 809.624C504.591 808.615 504.353 807.602 504.132 806.586C503.928 805.67 503.737 804.751 503.561 803.83C503.308 802.549 503.078 801.263 502.872 799.972C502.171 795.634 501.704 791.238 501.474 786.816C501.411 785.591 501.366 784.364 501.339 783.134C501.171 775.594 501.694 768.055 502.898 760.676C503.945 754.295 503.386 747.645 501.301 741.708C499.217 735.77 495.718 730.858 491.32 727.695C488.434 725.625 485.24 724.382 481.953 724.049C481.726 724.027 481.499 724.008 481.27 723.99C477.797 723.705 474.32 724.436 471.094 726.128C467.868 727.821 464.977 730.432 462.633 733.768C461.377 735.543 460.287 737.502 459.384 739.607C456.878 745.464 455.938 752.232 456.709 758.855L459.935 786.958L459.2 798.788L458.333 812.73L458.287 813.474L457.363 828.34C457.319 829.033 457.449 829.725 457.732 830.315C458.015 830.906 458.437 831.362 458.936 831.616C459.228 831.768 459.54 831.845 459.854 831.844C459.9 831.844 459.943 831.844 459.989 831.84L505.836 828.641L506.255 828.611C506.638 828.586 507.011 828.446 507.345 828.204C507.679 827.961 507.966 827.622 508.183 827.213C508.4 826.804 508.542 826.335 508.597 825.844C508.653 825.352 508.62 824.85 508.503 824.378L508.503 824.378Z" fill="#CCCCCC"/>
<path id="Vector_77" d="M495.751 691.473C492.632 694.262 488.929 695.747 485.141 695.727C486.492 696.943 488.031 697.764 489.65 698.135C484.613 699.536 479.407 699.574 474.359 698.246C473.236 698.013 472.153 697.53 471.157 696.819C470.188 696.056 469.377 694.84 469.181 693.391C468.846 690.904 470.339 688.645 471.891 687.122C474.268 684.826 477.008 683.244 479.913 682.491C482.818 681.738 485.816 681.832 488.69 682.767C490.566 683.396 492.446 684.459 493.665 686.414C494.884 688.37 495.245 691.384 494.083 693.398L495.751 691.473Z" fill="#2F2E41"/>
<path id="Vector_78" d="M496.449 803.976C495.576 804.481 494.628 804.732 493.672 804.71C492.716 804.689 491.775 804.396 490.916 803.851C490.057 803.307 489.3 802.525 488.699 801.56C488.098 800.595 487.668 799.471 487.438 798.267L464.294 795.523L471.832 783.281L492.655 787.763C494.239 787.396 495.873 787.796 497.245 788.887C498.618 789.978 499.634 791.684 500.102 793.683C500.57 795.681 500.456 797.833 499.783 799.73C499.11 801.627 497.924 803.138 496.449 803.976L496.449 803.976Z" fill="#A0616A"/>
<path id="Vector_79" d="M483.632 782.069L478.4 781.007L473.122 779.935C472.554 779.82 472.01 779.55 471.528 779.143C471.046 778.736 470.635 778.201 470.324 777.574C470.012 776.946 469.806 776.24 469.72 775.502C469.633 774.764 469.668 774.011 469.822 773.292L474.402 751.88C474.956 749.238 474.803 746.429 473.966 743.915C473.13 741.401 471.661 739.329 469.799 738.039C468.541 737.169 467.144 736.69 465.719 736.642C464.293 736.593 462.879 736.976 461.588 737.76C460.293 738.532 459.153 739.683 458.259 741.123C457.365 742.564 456.741 744.254 456.436 746.06L450.659 779.801C450.27 782.077 450.264 784.435 450.643 786.714C451.021 788.993 451.774 791.139 452.851 793.006C453.928 794.872 455.303 796.414 456.881 797.527C458.46 798.641 460.206 799.298 461.998 799.455L481.982 801.194C482.712 801.258 483.435 800.965 484.007 800.371C484.579 799.777 484.958 798.927 485.07 797.988C485.078 797.935 485.081 797.883 485.087 797.831L486.077 786.347L486.085 786.243C486.171 785.271 485.963 784.293 485.506 783.515C485.048 782.737 484.377 782.219 483.632 782.069Z" fill="#CCCCCC"/>
<path id="Vector_80" d="M572.162 764.269L570.965 765.117L556.21 775.562L555.012 776.41C554.431 776.823 554 777.518 553.813 778.342C553.626 779.167 553.699 780.054 554.016 780.809L565.003 806.937C565.321 807.691 565.857 808.251 566.492 808.493C567.128 808.736 567.811 808.641 568.393 808.23L568.396 808.228L585.54 796.091L585.543 796.089C586.124 795.676 586.556 794.982 586.742 794.157C586.929 793.333 586.856 792.446 586.54 791.691L575.552 765.562C575.234 764.808 574.699 764.249 574.063 764.006C573.428 763.764 572.744 763.858 572.162 764.269V764.269Z" fill="#E6E6E6"/>
<path id="Vector_81" d="M572.507 765.088L571.088 766.092L556.775 776.225L555.357 777.229C554.943 777.523 554.636 778.018 554.503 778.605C554.37 779.192 554.422 779.824 554.647 780.362L565.635 806.49C565.861 807.027 566.242 807.426 566.695 807.598C567.148 807.771 567.634 807.704 568.049 807.411L568.052 807.409L585.196 795.272L585.199 795.27C585.613 794.976 585.92 794.481 586.053 793.894C586.186 793.307 586.134 792.675 585.908 792.138L574.921 766.009C574.694 765.472 574.313 765.074 573.861 764.901C573.408 764.728 572.921 764.796 572.507 765.088V765.088Z" fill="white"/>
<path id="Vector_82" d="M572.909 772.465C572.856 772.34 572.767 772.247 572.661 772.206C572.555 772.166 572.441 772.181 572.344 772.249L571.773 772.655L565.95 776.777C565.853 776.846 565.782 776.962 565.751 777.099C565.72 777.236 565.733 777.384 565.785 777.509C565.838 777.635 565.927 777.728 566.032 777.769C566.138 777.809 566.252 777.794 566.349 777.727L572.743 773.199C572.84 773.13 572.911 773.014 572.942 772.876C572.974 772.739 572.962 772.591 572.909 772.465Z" fill="#E6E6E6"/>
<path id="Vector_83" d="M575.088 772.998C575.062 772.936 575.027 772.881 574.984 772.836C574.942 772.792 574.893 772.759 574.841 772.739C574.788 772.719 574.733 772.713 574.679 772.721C574.625 772.729 574.573 772.751 574.525 772.785L566.624 778.378C566.576 778.412 566.534 778.458 566.5 778.513C566.466 778.569 566.44 778.632 566.425 778.7C566.41 778.768 566.405 778.839 566.411 778.909C566.416 778.98 566.433 779.048 566.459 779.11C566.485 779.172 566.521 779.227 566.563 779.271C566.606 779.316 566.655 779.349 566.707 779.369C566.759 779.389 566.814 779.395 566.868 779.387C566.923 779.38 566.975 779.358 567.023 779.324L567.391 779.064L569.689 777.436H569.692L574.921 773.731C574.97 773.698 575.012 773.652 575.047 773.597C575.082 773.542 575.108 773.478 575.123 773.41C575.139 773.341 575.143 773.27 575.137 773.199C575.131 773.128 575.114 773.06 575.088 772.998V772.998Z" fill="#E6E6E6"/>
<path id="Vector_84" d="M566.501 781.912L563.993 775.943C563.966 775.883 563.923 775.839 563.872 775.82C563.821 775.801 563.766 775.809 563.72 775.843L562.503 776.703L561.872 777.15L558.482 779.548L557.825 780.013C557.779 780.047 557.745 780.103 557.73 780.169C557.716 780.236 557.722 780.307 557.748 780.367L557.908 780.75L560.256 786.336C560.281 786.396 560.324 786.44 560.375 786.459C560.425 786.477 560.48 786.469 560.526 786.437L564.572 783.573L565.204 783.126L566.42 782.266C566.444 782.25 566.464 782.228 566.481 782.201C566.498 782.174 566.51 782.144 566.518 782.111C566.525 782.078 566.527 782.044 566.525 782.009C566.522 781.975 566.514 781.942 566.501 781.912V781.912Z" fill="#E6E6E6"/>
<path id="Vector_85" d="M576.081 780.039C576.028 779.914 575.939 779.821 575.834 779.78C575.728 779.74 575.615 779.755 575.518 779.823L566.845 785.964C566.769 786.018 566.707 786.102 566.67 786.205C566.632 786.307 566.62 786.422 566.636 786.533C566.642 786.591 566.656 786.647 566.679 786.697C566.701 786.749 566.729 786.795 566.762 786.835L566.765 786.839C566.829 786.914 566.91 786.961 566.995 786.974C567.081 786.988 567.168 786.966 567.244 786.913L575.917 780.773C575.965 780.739 576.007 780.693 576.041 780.637C576.076 780.582 576.101 780.518 576.116 780.45C576.131 780.382 576.136 780.311 576.13 780.24C576.124 780.17 576.107 780.101 576.081 780.039Z" fill="#E6E6E6"/>
<path id="Vector_86" d="M578.262 780.572C578.235 780.51 578.2 780.455 578.157 780.411C578.115 780.366 578.066 780.333 578.013 780.314C577.96 780.294 577.905 780.288 577.851 780.296C577.797 780.304 577.744 780.325 577.696 780.359L567.517 787.565C567.44 787.617 567.379 787.7 567.341 787.801C567.303 787.902 567.291 788.017 567.307 788.127V788.131C567.313 788.189 567.328 788.244 567.35 788.295C567.372 788.348 567.402 788.396 567.436 788.436C567.5 788.513 567.581 788.561 567.667 788.574C567.753 788.588 567.84 788.566 567.916 788.511L578.095 781.305C578.192 781.236 578.264 781.12 578.295 780.983C578.326 780.846 578.314 780.698 578.262 780.572Z" fill="#E6E6E6"/>
<path id="Vector_87" d="M563.94 791.941C564.915 791.941 565.705 790.915 565.705 789.65C565.705 788.385 564.915 787.36 563.94 787.36C562.965 787.36 562.175 788.385 562.175 789.65C562.175 790.915 562.965 791.941 563.94 791.941Z" fill="#E6E6E6"/>
<path id="Vector_88" d="M577.328 754.215L576.131 755.063L561.376 765.508L560.178 766.356C559.597 766.769 559.166 767.463 558.979 768.288C558.792 769.113 558.865 770 559.182 770.755L570.169 796.883C570.487 797.637 571.023 798.197 571.658 798.439C572.294 798.681 572.977 798.587 573.559 798.176L573.562 798.174L590.706 786.037L590.709 786.035C591.29 785.622 591.721 784.928 591.908 784.103C592.095 783.279 592.022 782.391 591.706 781.637L580.718 755.508C580.4 754.754 579.865 754.194 579.229 753.952C578.594 753.71 577.91 753.804 577.328 754.215V754.215Z" fill="#CCCCCC"/>
<path id="Vector_89" d="M577.673 755.034L576.254 756.038L561.941 766.171L560.523 767.175C560.109 767.469 559.802 767.964 559.669 768.551C559.536 769.138 559.588 769.77 559.813 770.308L570.801 796.436C571.027 796.973 571.408 797.372 571.861 797.544C572.313 797.717 572.8 797.649 573.215 797.357L573.218 797.355L590.361 785.218L590.365 785.216C590.778 784.922 591.085 784.427 591.219 783.84C591.352 783.253 591.3 782.621 591.074 782.084L580.087 755.955C579.86 755.418 579.479 755.02 579.026 754.847C578.574 754.674 578.087 754.742 577.673 755.034Z" fill="white"/>
<path id="Vector_90" d="M578.075 762.411C578.022 762.286 577.933 762.193 577.827 762.152C577.721 762.112 577.607 762.127 577.51 762.195L574.565 764.28L573.745 764.861L571.116 766.723C571.019 766.792 570.948 766.908 570.917 767.045C570.886 767.182 570.899 767.33 570.951 767.455C571.004 767.581 571.093 767.674 571.198 767.715C571.304 767.755 571.418 767.74 571.515 767.673L574.614 765.479L575.263 765.018L577.909 763.145C578.005 763.075 578.077 762.96 578.108 762.822C578.139 762.685 578.128 762.537 578.075 762.411V762.411Z" fill="#CCCCCC"/>
<path id="Vector_91" d="M580.254 762.944C580.228 762.881 580.192 762.827 580.15 762.782C580.108 762.738 580.059 762.705 580.006 762.685C579.954 762.665 579.899 762.659 579.845 762.667C579.791 762.675 579.739 762.697 579.691 762.731L575.584 765.64L574.953 766.086L571.79 768.324C571.742 768.358 571.7 768.404 571.666 768.459C571.632 768.515 571.606 768.578 571.591 768.646C571.575 768.714 571.571 768.785 571.576 768.855C571.582 768.926 571.599 768.994 571.625 769.056C571.651 769.118 571.687 769.173 571.729 769.217C571.772 769.262 571.821 769.295 571.873 769.315C571.925 769.335 571.98 769.341 572.034 769.333C572.089 769.326 572.141 769.304 572.189 769.27L575.352 767.032L575.983 766.585L580.087 763.677C580.135 763.644 580.178 763.598 580.213 763.543C580.248 763.488 580.273 763.424 580.289 763.356C580.304 763.287 580.309 763.216 580.303 763.145C580.297 763.074 580.28 763.006 580.254 762.944V762.944Z" fill="#CCCCCC"/>
<path id="Vector_92" d="M571.667 771.858L569.666 767.099L569.322 766.28L569.158 765.889C569.132 765.829 569.089 765.785 569.038 765.766C568.987 765.747 568.932 765.755 568.886 765.788L564.825 768.663L562.991 769.959C562.945 769.993 562.911 770.049 562.896 770.115C562.882 770.182 562.888 770.253 562.913 770.313L563.077 770.7L563.255 771.128L563.421 771.519V771.523L565.422 776.282C565.447 776.342 565.49 776.386 565.541 776.405C565.591 776.423 565.645 776.415 565.691 776.383L571.586 772.212C571.61 772.196 571.63 772.174 571.647 772.147C571.664 772.12 571.676 772.09 571.683 772.057C571.691 772.024 571.693 771.989 571.69 771.955C571.688 771.921 571.68 771.888 571.667 771.858V771.858Z" fill="#CA4FA7"/>
<path id="Vector_93" d="M581.247 769.985C581.194 769.86 581.105 769.767 581 769.726C580.894 769.686 580.781 769.701 580.684 769.769L578.092 771.605L577.461 772.052L574.958 773.821L572.011 775.91C571.963 775.944 571.921 775.99 571.886 776.045C571.852 776.1 571.826 776.164 571.811 776.232C571.795 776.3 571.79 776.371 571.796 776.442C571.802 776.512 571.818 776.581 571.845 776.643C571.871 776.706 571.906 776.761 571.949 776.805C571.991 776.85 572.04 776.883 572.093 776.903C572.145 776.923 572.2 776.93 572.255 776.922C572.309 776.915 572.362 776.893 572.41 776.859L577.86 773.001L578.491 772.555L581.083 770.719C581.131 770.685 581.173 770.639 581.207 770.583C581.242 770.528 581.267 770.464 581.282 770.396C581.297 770.328 581.302 770.256 581.296 770.186C581.29 770.115 581.273 770.047 581.247 769.985V769.985Z" fill="#CCCCCC"/>
<path id="Vector_94" d="M583.428 770.518C583.401 770.455 583.366 770.401 583.323 770.356C583.28 770.312 583.231 770.279 583.179 770.259C583.126 770.24 583.071 770.234 583.017 770.242C582.963 770.249 582.91 770.271 582.862 770.305L578.767 773.206L578.136 773.653L572.683 777.511C572.635 777.545 572.592 777.59 572.558 777.646C572.523 777.701 572.497 777.764 572.482 777.832C572.466 777.9 572.462 777.972 572.467 778.042C572.473 778.113 572.49 778.181 572.516 778.244C572.542 778.306 572.578 778.361 572.62 778.405C572.663 778.45 572.712 778.483 572.765 778.503C572.817 778.522 572.872 778.529 572.927 778.521C572.981 778.513 573.034 778.491 573.082 778.457L578.532 774.599L579.163 774.152L583.261 771.251C583.358 771.182 583.43 771.066 583.461 770.929C583.492 770.791 583.48 770.644 583.428 770.518V770.518Z" fill="#CCCCCC"/>
<path id="Vector_95" d="M569.106 781.887C570.081 781.887 570.871 780.861 570.871 779.596C570.871 778.331 570.081 777.306 569.106 777.306C568.131 777.306 567.341 778.331 567.341 779.596C567.341 780.861 568.131 781.887 569.106 781.887Z" fill="#CCCCCC"/>
<path id="Vector_96" d="M570.292 792.472C570.589 792.51 570.883 792.578 571.172 792.676L591.19 769.635L589.896 761.37L599.255 757.204L602.642 771.549C602.916 772.707 602.892 773.95 602.575 775.09C602.258 776.23 601.665 777.206 600.884 777.871L575.435 799.551C575.473 801.042 575.159 802.513 574.537 803.768C573.914 805.023 573.012 806.002 571.95 806.575C570.888 807.149 569.717 807.289 568.592 806.977C567.467 806.666 566.442 805.918 565.653 804.832C564.864 803.746 564.349 802.374 564.175 800.899C564.002 799.423 564.178 797.915 564.682 796.573C565.186 795.231 565.992 794.12 566.994 793.388C567.996 792.655 569.147 792.336 570.292 792.472V792.472Z" fill="#FFB8B8"/>
<path id="Vector_97" d="M604.969 759.268L599.298 745.215C598.715 743.078 597.514 741.318 595.949 740.308C594.385 739.298 592.579 739.116 590.912 739.801C590.849 739.823 590.789 739.849 590.726 739.879C589.038 740.645 587.652 742.248 586.874 744.338C586.096 746.427 585.989 748.832 586.576 751.024L588.852 766.556C588.917 767 589.055 767.421 589.257 767.79C589.46 768.159 589.721 768.467 590.023 768.693C590.353 768.944 590.725 769.087 591.108 769.11C591.422 769.136 591.737 769.079 592.035 768.942L593.251 768.391L601.063 764.861L603.618 763.707C603.947 763.557 604.248 763.318 604.499 763.004C604.751 762.69 604.948 762.31 605.076 761.889C605.204 761.468 605.261 761.016 605.243 760.563C605.224 760.111 605.131 759.67 604.969 759.268V759.268Z" fill="#CA4FA7"/>
<path id="Vector_98" d="M626.377 813.474H438.971C438.895 813.474 438.822 813.435 438.768 813.365C438.714 813.296 438.684 813.201 438.684 813.102C438.684 813.003 438.714 812.909 438.768 812.839C438.822 812.769 438.895 812.73 438.971 812.73H626.377C626.453 812.73 626.526 812.769 626.58 812.839C626.634 812.909 626.664 813.003 626.664 813.102C626.664 813.201 626.634 813.296 626.58 813.365C626.526 813.435 626.453 813.474 626.377 813.474Z" fill="#3F3D56"/>
<path id="Vector_99" d="M471.257 806.586V806.772C471.258 808.034 471.541 809.269 472.072 810.327C472.604 811.384 473.36 812.219 474.25 812.73C474.888 813.1 475.58 813.29 476.279 813.288H522.628V806.586H471.257Z" fill="#3F3D56"/>
<path id="Vector_100" d="M554.99 762.411C554.254 760.441 553.122 758.766 551.712 757.563C551.073 757.014 550.384 756.571 549.66 756.245C548.674 755.798 547.637 755.57 546.592 755.571H502.108C499.635 755.574 497.265 756.851 495.516 759.119C493.768 761.388 492.784 764.464 492.781 767.673V801.186C492.78 801.657 492.801 802.127 492.844 802.594C492.907 803.292 493.017 803.983 493.171 804.657C493.325 805.321 493.523 805.966 493.763 806.586C494.535 808.6 495.726 810.294 497.2 811.479C498.674 812.663 500.374 813.289 502.108 813.288H546.592C547.817 813.289 549.03 812.976 550.162 812.368C551.294 811.76 552.322 810.869 553.189 809.745C554.055 808.621 554.742 807.287 555.21 805.818C555.679 804.35 555.92 802.776 555.919 801.186V767.673C555.922 765.85 555.604 764.051 554.99 762.411V762.411Z" fill="#3F3D56"/>
<path id="Vector_101" d="M526.79 787.408C528.058 787.408 529.086 786.075 529.086 784.429C529.086 782.784 528.058 781.451 526.79 781.451C525.522 781.451 524.494 782.784 524.494 784.429C524.494 786.075 525.522 787.408 526.79 787.408Z" fill="white"/>
</g>
</g>
<g id="Component 3">
<ellipse id="Ellipse 4" cx="1120" cy="681" rx="182" ry="186" fill="#FF9447"/>
<g id="undraw_At_work_re_qotl 1" clip-path="url(#clip3)">
<path id="Vector_102" d="M1229.15 788.379L1125.86 837.883C1124.58 838.497 1123.17 838.363 1121.95 837.509C1120.74 836.656 1119.81 835.153 1119.37 833.33L1071.53 632.577C1071.1 630.753 1071.19 628.76 1071.79 627.035C1072.4 625.31 1073.46 623.994 1074.74 623.375L1178.03 573.871C1179.31 573.256 1180.72 573.391 1181.94 574.244C1183.15 575.098 1184.08 576.601 1184.52 578.424L1232.36 779.176C1232.79 781.001 1232.7 782.994 1232.1 784.719C1231.49 786.444 1230.43 787.76 1229.15 788.379V788.379Z" fill="#E6E6E6"/>
<path id="Vector_103" d="M1226.51 784.671L1126.37 832.668C1125.5 833.083 1124.55 832.992 1123.73 832.416C1122.91 831.839 1122.28 830.823 1121.99 829.592L1075.21 633.3C1074.92 632.068 1074.98 630.721 1075.39 629.555C1075.79 628.39 1076.51 627.5 1077.38 627.083L1177.52 579.086C1178.39 578.671 1179.34 578.762 1180.16 579.338C1180.98 579.915 1181.61 580.931 1181.9 582.162L1228.68 778.454C1228.97 779.686 1228.91 781.033 1228.5 782.199C1228.1 783.364 1227.38 784.253 1226.51 784.671V784.671Z" fill="white"/>
<path id="Vector_104" d="M1201.34 845.972H1092.31C1090.96 845.97 1089.66 845.204 1088.7 843.843C1087.74 842.482 1087.2 840.637 1087.19 838.712V626.804C1087.2 624.879 1087.74 623.034 1088.7 621.673C1089.66 620.312 1090.96 619.546 1092.31 619.544H1201.34C1202.7 619.546 1204 620.312 1204.96 621.673C1205.92 623.034 1206.46 624.879 1206.46 626.804V838.712C1206.46 840.637 1205.92 842.482 1204.96 843.843C1204 845.204 1202.7 845.97 1201.34 845.972V845.972Z" fill="#CCCCCC"/>
<path id="Vector_105" d="M1199.68 841.263H1093.97C1093.06 841.261 1092.18 840.744 1091.53 839.824C1090.88 838.905 1090.52 837.658 1090.51 836.358V629.158C1090.52 627.858 1090.88 626.611 1091.53 625.691C1092.18 624.772 1093.06 624.254 1093.97 624.253H1199.68C1200.6 624.254 1201.47 624.772 1202.12 625.691C1202.77 626.611 1203.14 627.858 1203.14 629.158V836.358C1203.14 837.658 1202.77 838.905 1202.12 839.824C1201.47 840.744 1200.6 841.261 1199.68 841.263V841.263Z" fill="white"/>
<g id="messages">
<path id="Vector_106" d="M1177.16 683.029H1107.34C1106.76 683.029 1106.19 682.698 1105.78 682.108C1105.36 681.518 1105.13 680.718 1105.13 679.884C1105.13 679.05 1105.36 678.25 1105.78 677.66C1106.19 677.07 1106.76 676.739 1107.34 676.739H1177.16C1177.75 676.739 1178.31 677.07 1178.73 677.66C1179.14 678.25 1179.38 679.05 1179.38 679.884C1179.38 680.718 1179.14 681.518 1178.73 682.108C1178.31 682.698 1177.75 683.029 1177.16 683.029Z" fill="#CCCCCC"/>
<path id="Vector_107" d="M1186.31 693.643H1107.34C1107.05 693.643 1106.76 693.562 1106.5 693.404C1106.23 693.246 1105.98 693.014 1105.78 692.722C1105.57 692.43 1105.41 692.083 1105.3 691.702C1105.18 691.32 1105.13 690.911 1105.13 690.498C1105.13 690.085 1105.18 689.676 1105.3 689.295C1105.41 688.913 1105.57 688.566 1105.78 688.274C1105.98 687.982 1106.23 687.751 1106.5 687.593C1106.76 687.434 1107.05 687.353 1107.34 687.353H1186.31C1186.9 687.353 1187.46 687.684 1187.88 688.274C1188.29 688.864 1188.53 689.664 1188.53 690.498C1188.53 691.332 1188.29 692.132 1187.88 692.722C1187.46 693.312 1186.9 693.643 1186.31 693.643V693.643Z" fill="#CA4FA7"/>
<path id="Vector_108" d="M1177.16 730.596H1107.34C1106.76 730.595 1106.19 730.263 1105.78 729.673C1105.36 729.084 1105.13 728.284 1105.13 727.451C1105.13 726.617 1105.36 725.818 1105.78 725.228C1106.19 724.639 1106.76 724.307 1107.34 724.306H1177.16C1177.75 724.306 1178.31 724.637 1178.73 725.227C1179.14 725.817 1179.38 726.617 1179.38 727.451C1179.38 728.285 1179.14 729.085 1178.73 729.675C1178.31 730.264 1177.75 730.596 1177.16 730.596Z" fill="#CA4FA7"/>
<path id="Vector_109" d="M1186.31 741.21H1107.34C1106.76 741.209 1106.19 740.877 1105.78 740.288C1105.36 739.698 1105.13 738.898 1105.13 738.065C1105.13 737.231 1105.36 736.432 1105.78 735.842C1106.19 735.253 1106.76 734.921 1107.34 734.92H1186.31C1186.9 734.92 1187.46 735.251 1187.88 735.841C1188.29 736.431 1188.53 737.231 1188.53 738.065C1188.53 738.899 1188.29 739.699 1187.88 740.289C1187.46 740.879 1186.9 741.21 1186.31 741.21V741.21Z" fill="#CCCCCC"/>
<path id="Vector_110" d="M1177.16 778.163H1107.34C1106.76 778.162 1106.19 777.83 1105.78 777.24C1105.36 776.651 1105.13 775.851 1105.13 775.018C1105.13 774.184 1105.36 773.385 1105.78 772.795C1106.19 772.206 1106.76 771.874 1107.34 771.873H1177.16C1177.75 771.873 1178.31 772.204 1178.73 772.794C1179.14 773.384 1179.38 774.184 1179.38 775.018C1179.38 775.852 1179.14 776.652 1178.73 777.242C1178.31 777.831 1177.75 778.163 1177.16 778.163Z" fill="#CA4FA7"/>
<path id="Vector_111" d="M1186.31 788.777H1107.34C1106.76 788.777 1106.19 788.445 1105.78 787.856C1105.36 787.266 1105.13 786.466 1105.13 785.632C1105.13 784.798 1105.36 783.998 1105.78 783.408C1106.19 782.818 1106.76 782.487 1107.34 782.487H1186.31C1186.9 782.487 1187.46 782.818 1187.88 783.408C1188.29 783.998 1188.53 784.798 1188.53 785.632C1188.53 786.466 1188.29 787.266 1187.88 787.856C1187.46 788.445 1186.9 788.777 1186.31 788.777V788.777Z" fill="#CCCCCC"/>
</g>
<path id="Vector_112" d="M1064.74 718.93H1048.69C1048.36 718.93 1048.04 718.744 1047.81 718.413C1047.57 718.082 1047.44 717.633 1047.44 717.165V707.354C1047.44 703.867 1048.42 700.524 1050.16 698.058C1051.89 695.593 1054.25 694.208 1056.71 694.208C1059.17 694.208 1061.53 695.593 1063.27 698.058C1065 700.524 1065.98 703.867 1065.98 707.354V717.165C1065.98 717.633 1065.85 718.082 1065.62 718.413C1065.38 718.744 1065.07 718.93 1064.74 718.93Z" fill="#2F2E41"/>
<path id="Vector_113" d="M1089.51 770.131C1089.1 770.1 1088.7 769.944 1088.34 769.673C1087.99 769.402 1087.67 769.023 1087.43 768.562C1087.18 768.101 1087.01 767.57 1086.93 767.005C1086.85 766.441 1086.85 765.857 1086.94 765.295L1078.58 757.814L1083.26 754.809L1090.48 762.374C1091.14 762.656 1091.7 763.269 1092.06 764.098C1092.41 764.926 1092.55 765.911 1092.42 766.868C1092.3 767.824 1091.94 768.684 1091.4 769.285C1090.87 769.887 1090.19 770.187 1089.51 770.131V770.131Z" fill="#FFB8B8"/>
<path id="Vector_114" d="M1083.74 764.027C1083.45 763.99 1083.18 763.837 1082.95 763.588L1059.95 738.296L1056.98 730.814C1056.69 730.094 1056.56 729.269 1056.61 728.445C1056.66 727.62 1056.87 726.834 1057.24 726.187V726.187C1057.49 725.737 1057.8 725.366 1058.16 725.096C1058.52 724.826 1058.91 724.664 1059.31 724.619C1059.72 724.575 1060.12 724.649 1060.5 724.837C1060.89 725.025 1061.24 725.324 1061.53 725.713L1087.18 755.211C1087.35 755.37 1087.49 755.575 1087.6 755.813C1087.71 756.05 1087.78 756.317 1087.82 756.596C1087.85 756.876 1087.85 757.162 1087.81 757.44C1087.76 757.717 1087.68 757.979 1087.56 758.211L1085.11 763.134C1084.99 763.37 1084.84 763.57 1084.67 763.721C1084.49 763.872 1084.3 763.971 1084.1 764.012C1083.98 764.038 1083.86 764.043 1083.74 764.027V764.027Z" fill="#2F2E41"/>
<path id="Vector_115" d="M1029.51 836.44L1032.66 838.245L1039.06 821.902L1034.42 819.238L1029.51 836.44Z" fill="#FFB8B8"/>
<path id="Vector_116" d="M1029.12 834.524L1035.32 838.078L1035.32 838.078C1035.84 838.375 1036.31 838.814 1036.71 839.371C1037.1 839.927 1037.42 840.589 1037.64 841.319C1037.86 842.049 1037.97 842.833 1037.98 843.625C1037.98 844.418 1037.88 845.205 1037.67 845.94L1037.61 846.122L1027.47 840.303L1029.12 834.524Z" fill="#2F2E41"/>
<path id="Vector_117" d="M1066.15 841.458L1069.55 841.458L1071.16 822.901L1066.15 822.901L1066.15 841.458Z" fill="#FFB8B8"/>
<path id="Vector_118" d="M1065.29 839.887L1071.97 839.887H1071.97C1072.53 839.887 1073.08 840.043 1073.6 840.346C1074.12 840.65 1074.59 841.095 1074.98 841.655C1075.38 842.216 1075.69 842.882 1075.9 843.614C1076.12 844.347 1076.23 845.132 1076.23 845.925V846.121L1065.29 846.122L1065.29 839.887Z" fill="#2F2E41"/>
<path id="Vector_119" d="M1068.95 830.967C1067.6 830.967 1066.28 830.188 1065.55 829.67C1065.36 829.538 1065.2 829.345 1065.07 829.107C1064.94 828.87 1064.85 828.594 1064.81 828.3L1057.66 777.173L1039.11 826.395C1038.94 826.838 1038.66 827.173 1038.33 827.331C1034.33 829.225 1032.15 826.246 1031.4 824.878C1031.25 824.597 1031.15 824.262 1031.13 823.909C1031.1 823.557 1031.14 823.2 1031.25 822.879L1039.84 796.41L1045.03 771.267L1050.29 752.866L1050.4 752.883L1067.96 755.504L1070.09 772.157L1072.24 827.603C1072.26 828.045 1072.17 828.483 1071.99 828.843C1071.65 829.526 1071.19 830.078 1070.66 830.449C1070.13 830.819 1069.54 830.998 1068.95 830.967V830.967Z" fill="#2F2E41"/>
<path id="Vector_120" d="M1059 718.781C1062.75 718.781 1065.8 714.466 1065.8 709.143C1065.8 703.82 1062.75 699.505 1059 699.505C1055.25 699.505 1052.2 703.82 1052.2 709.143C1052.2 714.466 1055.25 718.781 1059 718.781Z" fill="#FFB8B8"/>
<path id="Vector_121" d="M1061.36 763.159C1058.4 763.159 1054.74 760.703 1050.44 755.825L1050.37 755.741L1053.41 721.732L1053.55 721.725C1057.9 721.502 1061.44 723.068 1064.37 726.523L1064.39 726.56L1066.77 730.891L1066.77 730.97L1067.1 757.572L1067.1 757.609C1066.78 758.827 1066.27 759.925 1065.61 760.821C1064.95 761.716 1064.15 762.384 1063.28 762.773C1062.66 763.034 1062.01 763.164 1061.36 763.159V763.159Z" fill="#CA4FA7"/>
<path id="Vector_122" d="M1065.74 779.058C1065.41 779.057 1065.08 778.901 1064.82 778.613C1064.56 778.326 1064.37 777.924 1064.28 777.469L1060.11 755.065L1057.47 775.476C1057.4 776.018 1057.18 776.5 1056.87 776.823C1056.55 777.145 1056.16 777.282 1055.78 777.205L1044.27 774.927C1044.05 774.883 1043.84 774.772 1043.65 774.6C1043.47 774.428 1043.31 774.201 1043.19 773.933C1043.08 773.666 1043 773.365 1042.98 773.053C1042.95 772.741 1042.98 772.425 1043.05 772.127L1048.87 747.789L1047.57 733.529C1047.43 732.06 1047.52 730.569 1047.81 729.148C1048.1 727.727 1048.6 726.409 1049.28 725.276C1049.95 724.144 1050.78 723.223 1051.72 722.57C1052.66 721.918 1053.68 721.549 1054.72 721.488L1054.84 721.481L1060.37 740.418L1061.26 735.423L1062.63 724.671L1062.84 724.84C1064.78 726.431 1066.38 728.749 1067.46 731.542C1068.54 734.335 1069.06 737.495 1068.96 740.677L1068.61 752.065L1071.7 775.316C1071.78 775.871 1071.69 776.446 1071.47 776.913C1071.24 777.38 1070.9 777.702 1070.51 777.808L1066.02 779.02C1065.93 779.045 1065.83 779.058 1065.74 779.058Z" fill="#2F2E41"/>
<path id="Vector_123" d="M1068.17 708.335H1058.36L1058.26 706.337L1057.76 708.335H1056.25L1056.05 704.375L1055.05 708.335H1052.12V708.139C1052.13 705.382 1052.9 702.738 1054.27 700.789C1055.65 698.839 1057.51 697.743 1059.46 697.74H1060.84C1062.79 697.743 1064.65 698.839 1066.02 700.789C1067.4 702.738 1068.17 705.382 1068.17 708.139V708.335Z" fill="#2F2E41"/>
<path id="Vector_124" d="M1061.6 768.161C1061.6 768.79 1061.69 769.412 1061.88 769.985C1062.06 770.558 1062.33 771.068 1062.66 771.481C1063 771.893 1063.39 772.199 1063.82 772.377C1064.24 772.555 1064.69 772.601 1065.13 772.513C1065.54 773.832 1066.21 774.955 1067.05 775.744C1067.9 776.532 1068.9 776.953 1069.91 776.953V776.953C1070.6 776.953 1071.27 776.761 1071.91 776.39C1072.54 776.018 1073.11 775.474 1073.6 774.787C1074.08 774.101 1074.47 773.286 1074.73 772.389C1074.99 771.492 1075.12 770.53 1075.12 769.559V763.153C1075.12 761.505 1074.18 760.953 1073.02 760.953H1066.8C1065.64 760.953 1064.7 761.505 1064.7 763.153V763.765C1063.88 763.766 1063.09 764.23 1062.51 765.054C1061.93 765.878 1061.6 766.995 1061.6 768.161V768.161ZM1062.44 768.161C1062.44 767.313 1062.68 766.5 1063.1 765.901C1063.53 765.302 1064.1 764.965 1064.7 764.964V769.559C1064.7 770.162 1064.75 770.762 1064.85 771.347C1064.8 771.352 1064.75 771.358 1064.7 771.358C1064.1 771.357 1063.53 771.02 1063.1 770.42C1062.68 769.821 1062.44 769.008 1062.44 768.161H1062.44Z" fill="#CA4FA7"/>
<path id="Vector_125" d="M1064.09 767.104C1063.91 766.593 1063.64 766.147 1063.32 765.798C1062.99 765.448 1062.62 765.204 1062.22 765.081C1061.82 764.959 1061.41 764.962 1061.02 765.09C1060.62 765.217 1060.25 765.467 1059.92 765.82L1051.64 758.172L1051.67 765.459L1059.53 771.605C1059.99 772.331 1060.62 772.796 1061.3 772.91C1061.98 773.025 1062.66 772.782 1063.22 772.227C1063.79 771.672 1064.19 770.844 1064.35 769.9C1064.51 768.956 1064.42 767.961 1064.09 767.104H1064.09Z" fill="#FFB8B8"/>
<path id="Vector_126" d="M1055.12 771.551C1054.79 771.551 1054.47 771.365 1054.24 771.034L1043.69 756.067C1043.35 755.592 1043.1 755.002 1042.97 754.355C1042.84 753.707 1042.83 753.022 1042.93 752.366C1043.84 746.765 1046.04 733.382 1046.97 730.087C1047.65 727.609 1048.9 725.535 1050.53 724.208L1050.57 724.179L1053.91 725.054L1054.2 739.67L1050.17 751.935L1058.75 763.424C1058.98 763.724 1059.11 764.134 1059.14 764.571C1059.16 765.009 1059.07 765.444 1058.88 765.79L1056.1 770.867C1056 771.065 1055.86 771.228 1055.7 771.346C1055.55 771.463 1055.37 771.532 1055.2 771.548C1055.17 771.55 1055.15 771.551 1055.12 771.551Z" fill="#2F2E41"/>
<path id="Vector_127" d="M1069.9 762.974C1072.04 762.974 1073.77 762.623 1073.77 762.19C1073.77 761.756 1072.04 761.405 1069.9 761.405C1067.76 761.405 1066.03 761.756 1066.03 762.19C1066.03 762.623 1067.76 762.974 1069.9 762.974Z" fill="#2F2E41"/>
</g>
</g>
</g>
<defs>
<filter id="filter0_d" x="384" y="572.043" width="1060.01" height="327.873" filterUnits="userSpaceOnUse" color-interpolation-filters="sRGB">
<feFlood flood-opacity="0" result="BackgroundImageFix"/>
<feColorMatrix in="SourceAlpha" type="matrix" values="0 0 0 0 0 0 0 0 0 0 0 0 0 0 0 0 0 0 127 0"/>
<feOffset dy="4"/>
<feGaussianBlur stdDeviation="2"/>
<feColorMatrix type="matrix" values="0 0 0 0 0 0 0 0 0 0 0 0 0 0 0 0 0 0 0.25 0"/>
<feBlend mode="normal" in2="BackgroundImageFix" result="effect1_dropShadow"/>
<feBlend mode="normal" in="SourceGraphic" in2="effect1_dropShadow" result="shape"/>
</filter>
<filter id="filter1_d" x="6" y="0.449341" width="386.835" height="581.551" filterUnits="userSpaceOnUse" color-interpolation-filters="sRGB">
<feFlood flood-opacity="0" result="BackgroundImageFix"/>
<feColorMatrix in="SourceAlpha" type="matrix" values="0 0 0 0 0 0 0 0 0 0 0 0 0 0 0 0 0 0 127 0"/>
<feOffset dy="4"/>
<feGaussianBlur stdDeviation="2"/>
<feColorMatrix type="matrix" values="0 0 0 0 0 0 0 0 0 0 0 0 0 0 0 0 0 0 0.25 0"/>
<feBlend mode="normal" in2="BackgroundImageFix" result="effect1_dropShadow"/>
<feBlend mode="normal" in="SourceGraphic" in2="effect1_dropShadow" result="shape"/>
</filter>
<clipPath id="clip0">
<rect width="1440" height="900" fill="white"/>
</clipPath>
<clipPath id="clip1">
<rect width="184.728" height="242.004" fill="white" transform="translate(124.636 207.996)"/>
</clipPath>
<clipPath id="clip2">
<rect width="205.285" height="224.976" fill="white" transform="translate(438.684 638.024)"/>
</clipPath>
<clipPath id="clip3">
<rect width="224.48" height="273.073" fill="white" transform="translate(1008.15 573.488)"/>
</clipPath>
</defs>
</svg>
