<svg width="625" height="297" viewBox="0 0 554 252" fill="none" xmlns="http://www.w3.org/2000/svg">
<g id="Component 4">
<g id="Rectangle 1" filter="url(#filter0_d)">
<rect x="4" y="18.5729" width="485.161" height="205.991" fill="#FF9447"/>
</g>
<g id="wholebody" class="animated fadeInLeftBig" style="animation-delay:1s">
<g id="Ellipse 1">
<g id="Ellipse 1_2" filter="url(#filter1_d)">
<ellipse cx="421.393" cy="121.99" rx="128.607" ry="121.99" fill="#FF9447"/>
</g>
</g>
<g id="Component 3">
<path id="Vector" d="M422.621 168.926C432.961 168.926 441.343 162.643 441.343 154.893C441.343 147.143 432.961 140.861 422.621 140.861C412.281 140.861 403.899 147.143 403.899 154.893C403.899 162.643 412.281 168.926 422.621 168.926Z" fill="#CA4FA7"/>
<path id="Vector_2" d="M377.087 189.039C376.691 188.896 376.352 188.676 376.108 188.402C375.864 188.128 375.723 187.809 375.699 187.48L375.427 183.616C375.393 183.13 375.618 182.654 376.052 182.292C376.487 181.93 377.095 181.712 377.743 181.686L420.716 179.985C421.364 179.959 421.999 180.128 422.482 180.453C422.965 180.779 423.255 181.235 423.29 181.72L423.563 185.585C423.596 186.071 423.371 186.547 422.937 186.909C422.503 187.271 421.895 187.488 421.247 187.515L378.274 189.216C377.865 189.233 377.457 189.172 377.087 189.039V189.039Z" fill="#CA4FA7"/>
<path id="Vector_3" d="M406.711 189.114C406.293 188.963 405.941 188.725 405.695 188.43C405.45 188.135 405.321 187.793 405.324 187.445L405.273 180.169C405.275 179.928 405.341 179.689 405.467 179.467C405.592 179.245 405.774 179.044 406.004 178.874C406.233 178.705 406.505 178.572 406.803 178.481C407.101 178.391 407.42 178.345 407.742 178.347L427.346 179.643C427.865 179.645 428.52 180.247 429.047 180.731C429.212 180.883 429.355 181.014 429.459 181.094C429.505 181.128 429.548 181.164 429.59 181.201C429.964 181.536 430.167 181.959 430.162 182.396L430.119 186.266C430.113 186.752 429.849 187.217 429.386 187.558C428.924 187.9 428.299 188.089 427.65 188.086L407.768 189.295C407.402 189.294 407.041 189.232 406.711 189.114Z" fill="#2F2E41"/>
<path id="Vector_4" d="M418.972 244H413.809C413.159 243.999 412.537 243.806 412.078 243.462C411.619 243.118 411.361 242.651 411.36 242.165V209.386C411.361 208.9 411.619 208.433 412.078 208.089C412.537 207.745 413.159 207.551 413.809 207.551H418.972C419.621 207.551 420.243 207.745 420.702 208.089C421.162 208.433 421.42 208.9 421.421 209.386V242.165C421.42 242.651 421.162 243.118 420.702 243.462C420.243 243.806 419.621 243.999 418.972 244V244Z" fill="#CA4FA7"/>
<path id="Vector_5" d="M432.591 244H427.428C426.778 243.999 426.156 243.806 425.697 243.462C425.238 243.118 424.98 242.651 424.979 242.165V209.386C424.98 208.9 425.238 208.433 425.697 208.089C426.156 207.745 426.778 207.551 427.428 207.551H432.591C433.24 207.551 433.862 207.745 434.321 208.089C434.78 208.433 435.039 208.9 435.039 209.386V242.165C435.039 242.651 434.78 243.118 434.321 243.462C433.862 243.806 433.24 243.999 432.591 244V244Z" fill="#CA4FA7"/>
<path id="Vector_6" d="M425.114 160.094L425.133 159.57C423.832 159.543 422.684 159.481 421.822 159.009C421.577 158.868 421.376 158.688 421.233 158.484C421.089 158.279 421.006 158.053 420.989 157.822C420.974 157.681 421.002 157.539 421.072 157.407C421.142 157.275 421.251 157.158 421.392 157.063C421.964 156.701 422.885 156.818 423.557 157.049L424.136 157.248L423.026 151.167L422.332 151.238L423.277 156.411C422.89 156.303 422.474 156.27 422.066 156.314C421.658 156.358 421.271 156.478 420.94 156.662C420.718 156.808 420.544 156.99 420.431 157.194C420.318 157.399 420.27 157.62 420.29 157.84C420.31 158.151 420.421 158.454 420.614 158.729C420.808 159.004 421.079 159.244 421.409 159.433C422.517 160.04 423.957 160.07 425.114 160.094Z" fill="#2F2E41"/>
<path id="Vector_7" d="M418.904 151.684H415.136V152.209H418.904V151.684Z" fill="#2F2E41"/>
<path id="Vector_8" d="M430.798 151.684H427.03V152.209H430.798V151.684Z" fill="#2F2E41"/>
<path id="Vector_9" d="M443.951 201.626L426.671 175.798H426.914C427.517 175.797 428.095 175.617 428.522 175.298C428.948 174.978 429.188 174.545 429.188 174.093V173.569C429.188 173.117 428.948 172.684 428.522 172.364C428.095 172.045 427.517 171.865 426.914 171.865H419.218C418.616 171.865 418.038 172.045 417.611 172.364C417.185 172.684 416.945 173.117 416.945 173.569V174.093C416.946 174.51 417.152 174.912 417.523 175.222C417.894 175.533 418.405 175.731 418.957 175.778L401.627 201.64C400.803 202.87 400.412 204.237 400.492 205.612C400.572 206.987 401.12 208.324 402.084 209.496C403.048 210.667 404.396 211.634 406 212.305C407.603 212.976 409.409 213.328 411.245 213.328H434.315C436.153 213.328 437.961 212.975 439.567 212.304C441.173 211.632 442.523 210.664 443.488 209.492C444.454 208.319 445.004 206.981 445.085 205.604C445.166 204.227 444.775 202.858 443.951 201.626Z" fill="#2F2E41"/>
<path id="Vector_10" d="M423.43 181.643L462.41 167.977C462.998 167.772 463.671 167.749 464.281 167.915C464.892 168.081 465.389 168.422 465.665 168.862L467.853 172.368C468.127 172.809 468.157 173.313 467.936 173.771C467.714 174.228 467.26 174.601 466.672 174.808L427.693 188.473C427.104 188.679 426.431 188.701 425.821 188.535C425.21 188.37 424.713 188.029 424.437 187.588L422.25 184.083C422.113 183.865 422.035 183.629 422.021 183.388C422.006 183.147 422.056 182.906 422.167 182.68C422.253 182.501 422.376 182.332 422.531 182.181C422.769 181.95 423.077 181.766 423.43 181.643Z" fill="#CA4FA7"/>
<path id="Vector_11" d="M422.093 181.559L439.255 173.892C439.84 173.681 440.512 173.653 441.124 173.814C441.737 173.975 442.239 174.311 442.522 174.749L446.849 181.266C446.989 181.484 447.07 181.72 447.088 181.962C447.105 182.203 447.059 182.445 446.951 182.673C446.844 182.901 446.677 183.111 446.461 183.29C446.245 183.47 445.983 183.616 445.691 183.719L427.359 189.027C426.879 189.2 425.936 188.876 425.179 188.616C424.942 188.534 424.737 188.464 424.597 188.427C424.535 188.411 424.474 188.393 424.416 188.373C423.883 188.197 423.452 187.884 423.2 187.49L420.962 184.003C420.765 183.695 420.686 183.353 420.733 183.014C420.781 182.675 420.953 182.352 421.231 182.082C421.46 181.859 421.755 181.68 422.093 181.559V181.559Z" fill="#2F2E41"/>
<path id="Vector_12" d="M407.834 147.595C407.584 147.594 407.344 147.519 407.167 147.386C406.99 147.253 406.89 147.074 406.889 146.886C406.888 146.83 406.897 146.774 406.914 146.72L411.808 130.565C411.845 130.443 411.924 130.331 412.037 130.239C412.15 130.148 412.293 130.08 412.452 130.043C412.611 130.006 412.78 130.001 412.943 130.028C413.105 130.055 413.255 130.114 413.378 130.199L429.601 141.459C429.723 141.543 429.813 141.651 429.863 141.77C429.912 141.889 429.919 142.016 429.882 142.138C429.846 142.259 429.767 142.372 429.655 142.464C429.542 142.555 429.399 142.623 429.24 142.661L408.119 147.563C408.026 147.584 407.931 147.594 407.834 147.595Z" fill="#3F3D56"/>
</g>
<g id="deco">
<path id="Vector_13" class="animated slideInDown animate_infinite infinite animate_slower 3s" style="animation-delay:2s; animation-duration:2s" d="M375.011 36.6905C376.709 36.6905 378.086 35.6585 378.086 34.3855C378.086 33.1125 376.709 32.0805 375.011 32.0805C373.312 32.0805 371.935 33.1125 371.935 34.3855C371.935 35.6585 373.312 36.6905 375.011 36.6905Z" fill="#6C63FF"/>
<path id="Vector_14" class="animated slideInDown animate_infinite infinite animate_slower 3s" style="animation-delay:2.1s; animation-duration:2.1s" d="M499.624 95.3133C500.837 95.3133 501.821 94.5762 501.821 93.6669C501.821 92.7576 500.837 92.0205 499.624 92.0205C498.411 92.0205 497.427 92.7576 497.427 93.6669C497.427 94.5762 498.411 95.3133 499.624 95.3133Z" fill="#FF6584"/>
<path id="Vector_15" class="animated slideInDown animate_infinite infinite animate_slower 3s" style="animation-delay:2.1s; animation-duration:2.1s" d="M375.022 56.4789C376.235 56.4789 377.219 55.7418 377.219 54.8325C377.219 53.9233 376.235 53.1861 375.022 53.1861C373.809 53.1861 372.825 53.9233 372.825 54.8325C372.825 55.7418 373.809 56.4789 375.022 56.4789Z" fill="#CCCCCC"/>
<path id="Vector_16" class="animated slideInDown animate_infinite infinite animate_slower 3s" style="animation-delay:2.1s; animation-duration:2.1s" d="M479.154 64.9212C480.367 64.9212 481.35 64.1841 481.35 63.2748C481.35 62.3655 480.367 61.6284 479.154 61.6284C477.94 61.6284 476.957 62.3655 476.957 63.2748C476.957 64.1841 477.94 64.9212 479.154 64.9212Z" fill="#FF6584"/>
<path id="Vector_17" class="animated slideInDown animate_infinite infinite animate_slower 3s" style="animation-delay:2.2s; animation-duration:2.2s" d="M466.693 39.5944C467.907 39.5944 468.89 38.8573 468.89 37.948C468.89 37.0388 467.907 36.3017 466.693 36.3017C465.48 36.3017 464.497 37.0388 464.497 37.948C464.497 38.8573 465.48 39.5944 466.693 39.5944Z" fill="#CCCCCC"/>
<path id="Vector_18" class="animated slideInDown animate_infinite infinite animate_slower 3s" style="animation-delay:2.2s; animation-duration:2.2s" d="M349.212 53.102C350.425 53.102 351.408 52.3649 351.408 51.4556C351.408 50.5464 350.425 49.8092 349.212 49.8092C347.999 49.8092 347.015 50.5464 347.015 51.4556C347.015 52.3649 347.999 53.102 349.212 53.102Z" fill="#FF6584"/>
<path id="Vector_19" class="animated slideInDown animate_infinite infinite animate_slower 3s" style="animation-delay:2.2s; animation-duration:2.2s" d="M399.052 42.9713C400.266 42.9713 401.249 42.2342 401.249 41.3249C401.249 40.4157 400.266 39.6786 399.052 39.6786C397.839 39.6786 396.856 40.4157 396.856 41.3249C396.856 42.2342 397.839 42.9713 399.052 42.9713Z" fill="#FF6584"/>
<path id="Vector_20" class="animated slideInDown animate_infinite infinite animate_slower 3s" style="animation-delay:2.3s; animation-duration:2.3s" d="M406.203 19.2682C408.503 19.3768 410.736 19.8924 412.719 20.7728C414.701 21.6531 416.378 22.8731 417.61 24.3328C417.955 24.7466 418.406 25.2014 418.167 25.7107C418.084 25.906 417.915 26.0743 417.687 26.1882C417.46 26.3021 417.187 26.3548 416.915 26.3376C416.575 26.2828 416.269 26.1456 416.043 25.9474C415.817 25.7491 415.685 25.5007 415.667 25.2405C415.648 24.9803 415.744 24.7228 415.94 24.5076C416.136 24.2924 416.421 24.1315 416.751 24.0498C418.347 23.5398 419.956 24.328 421.255 24.957C424.216 26.3904 427.473 27.6867 431.061 27.85C434.38 28.0011 437.94 27.0256 439.786 24.868C440.109 24.4905 439.307 24.1417 438.986 24.5173C437.154 26.6571 433.453 27.4256 430.234 27.0949C428.316 26.868 426.464 26.3968 424.758 25.7014C423.873 25.3573 423.015 24.9759 422.175 24.5749C421.375 24.1565 420.527 23.7922 419.641 23.4862C418.164 23.0313 416.208 23.0668 415.176 24.1142C414.213 25.0912 414.957 26.7179 416.567 26.9926C416.921 27.0448 417.286 27.0305 417.63 26.9509C417.974 26.8714 418.286 26.7291 418.539 26.5368C418.791 26.3445 418.976 26.1082 419.077 25.8491C419.178 25.5901 419.191 25.3163 419.116 25.0524C418.956 24.477 418.378 23.9139 417.93 23.4436C416.586 22.0261 414.834 20.8527 412.805 20.0099C410.775 19.167 408.519 18.6761 406.203 18.5735C405.606 18.5513 405.608 19.2462 406.203 19.2682L406.203 19.2682Z" fill="#0F0D0D"/>
<path id="Vector_21" class="animated slideInDown animate_infinite infinite animate_slower 3s" style="animation-delay:2.3s; animation-duration:2.3s" d="M439.993 51.4136C441.206 51.4136 442.19 50.6765 442.19 49.7672C442.19 48.8579 441.206 48.1208 439.993 48.1208C438.78 48.1208 437.796 48.8579 437.796 49.7672C437.796 50.6765 438.78 51.4136 439.993 51.4136Z" fill="#CCCCCC"/>
<path id="Vector_22" class="animated slideInDown animate_infinite infinite animate_slower 3s" style="animation-delay:2.3s; animation-duration:2.3s" d="M344.762 89.4037C345.975 89.4037 346.958 88.6666 346.958 87.7573C346.958 86.848 345.975 86.1109 344.762 86.1109C343.548 86.1109 342.565 86.848 342.565 87.7573C342.565 88.6666 343.548 89.4037 344.762 89.4037Z" fill="#CCCCCC"/>
<path id="Vector_23" class="animated slideInDown animate_infinite infinite animate_slower 3s" style="animation-delay:2.4s; animation-duration:2.4s" d="M337.642 114.73C338.855 114.73 339.838 113.993 339.838 113.084C339.838 112.175 338.855 111.438 337.642 111.438C336.428 111.438 335.445 112.175 335.445 113.084C335.445 113.993 336.428 114.73 337.642 114.73Z" fill="#FF6584"/>
<path id="Vector_24" class="animated slideInDown animate_infinite infinite animate_slower 3s" style="animation-delay:2.4s; animation-duration:2.4s" d="M337.642 114.73C338.855 114.73 339.838 113.993 339.838 113.084C339.838 112.175 338.855 111.438 337.642 111.438C336.428 111.438 335.445 112.175 335.445 113.084C335.445 113.993 336.428 114.73 337.642 114.73Z" fill="#FF6584"/>
<path id="Vector_25" class="animated slideInDown animate_infinite infinite animate_slower 3s" style="animation-delay:2.4s; animation-duration:2.4s" d="M333.191 75.0519C334.405 75.0519 335.388 74.3148 335.388 73.4055C335.388 72.4962 334.405 71.7591 333.191 71.7591C331.978 71.7591 330.995 72.4962 330.995 73.4055C330.995 74.3148 331.978 75.0519 333.191 75.0519Z" fill="#FF6584"/>
<path id="Vector_26" class="animated slideInDown animate_infinite infinite animate_slower 3s" style="animation-delay:2.5s; animation-duration:2.5s" d="M469.363 81.8057C470.577 81.8057 471.56 81.0686 471.56 80.1593C471.56 79.25 470.577 78.5129 469.363 78.5129C468.15 78.5129 467.167 79.25 467.167 80.1593C467.167 81.0686 468.15 81.8057 469.363 81.8057Z" fill="#FF6584"/>
<path id="Vector_27" class="animated slideInDown animate_infinite infinite animate_slower 3s" style="animation-delay:2.5s; animation-duration:2.5s" d="M511.808 85.9654C510.267 85.2218 508.983 84.2149 508.061 83.0274C507.139 81.84 506.606 80.5056 506.505 79.1339C506.479 78.7462 506.401 78.2994 506.83 78.0151C506.989 77.9037 507.194 77.8359 507.411 77.8229C507.628 77.8099 507.844 77.8524 508.024 77.9436C508.232 78.0804 508.374 78.2646 508.428 78.4678C508.482 78.6711 508.446 78.882 508.324 79.0681C508.202 79.2542 508.002 79.4052 507.755 79.4977C507.507 79.5902 507.226 79.6191 506.955 79.58C505.583 79.4707 504.873 78.4557 504.296 77.6413C502.981 75.7856 501.39 73.9392 498.982 72.7834C496.755 71.714 493.779 71.3573 491.38 72.3193C490.961 72.4876 491.337 72.9629 491.755 72.7954C494.133 71.8413 497.102 72.3831 499.166 73.5479C500.381 74.2627 501.423 75.1281 502.248 76.1066C502.685 76.6026 503.083 77.1168 503.46 77.6395C503.799 78.1625 504.199 78.6619 504.656 79.1318C505.447 79.8769 506.824 80.4205 508.082 79.993C508.363 79.8842 508.605 79.7278 508.79 79.5362C508.976 79.3447 509.099 79.1232 509.15 78.8897C509.2 78.6561 509.177 78.4169 509.083 78.1912C508.988 77.9654 508.824 77.7594 508.604 77.5896C508.386 77.4507 508.125 77.3546 507.845 77.3099C507.565 77.2652 507.275 77.2733 507 77.3334C506.725 77.3936 506.474 77.5039 506.27 77.6546C506.066 77.8052 505.915 77.9914 505.831 78.1965C505.701 78.6788 505.698 79.1754 505.823 79.6584C506.023 81.0335 506.633 82.3573 507.606 83.5323C508.58 84.7073 509.893 85.7037 511.449 86.448C511.851 86.6366 512.21 86.1536 511.808 85.9655L511.808 85.9654Z" fill="#0F0D0D"/>
<path id="Vector_28" class="animated slideInDown animate_infinite infinite animate_slower 3s" style="animation-delay:2.5s; animation-duration:2.5s" d="M353.65 139.686C355.349 139.686 356.726 138.654 356.726 137.381C356.726 136.108 355.349 135.076 353.65 135.076C351.952 135.076 350.575 136.108 350.575 137.381C350.575 138.654 351.952 139.686 353.65 139.686Z" fill="#6C63FF"/>
<path id="Vector_29" class="animated slideInDown animate_infinite infinite animate_slower 3s" style="animation-delay:2.6s; animation-duration:2.6s" d="M357.21 78.0575C358.909 78.0575 360.286 77.0255 360.286 75.7525C360.286 74.4795 358.909 73.4475 357.21 73.4475C355.512 73.4475 354.135 74.4795 354.135 75.7525C354.135 77.0255 355.512 78.0575 357.21 78.0575Z" fill="#6C63FF"/>
<path id="Vector_30" class="animated slideInDown animate_infinite infinite animate_slower 3s" style="animation-delay:2.6s; animation-duration:2.6s" d="M456.002 24.0271C457.7 24.0271 459.077 22.9951 459.077 21.7221C459.077 20.4491 457.7 19.4172 456.002 19.4172C454.304 19.4172 452.927 20.4491 452.927 21.7221C452.927 22.9951 454.304 24.0271 456.002 24.0271Z" fill="#6C63FF"/>
<path id="Vector_31" class="animated slideInDown animate_infinite infinite animate_slower 3s" style="animation-delay:2.6s; animation-duration:2.6s" d="M413.281 59.4845C414.98 59.4845 416.357 58.4525 416.357 57.1796C416.357 55.9066 414.98 54.8746 413.281 54.8746C411.583 54.8746 410.206 55.9066 410.206 57.1796C410.206 58.4525 411.583 59.4845 413.281 59.4845Z" fill="#6C63FF"/>
<path id="Vector_32" class="animated slideInDown animate_infinite infinite animate_slower 3s" style="animation-delay:2.7s; animation-duration:2.7s" d="M456.002 24.0271C457.7 24.0271 459.077 22.9951 459.077 21.7221C459.077 20.4491 457.7 19.4172 456.002 19.4172C454.304 19.4172 452.927 20.4491 452.927 21.7221C452.927 22.9951 454.304 24.0271 456.002 24.0271Z" fill="#6C63FF"/>
<path id="Vector_33" class="animated slideInDown animate_infinite infinite animate_slower 3s" style="animation-delay:2.7s; animation-duration:2.7s" d="M452.442 63.7056C454.14 63.7056 455.517 62.6737 455.517 61.4007C455.517 60.1277 454.14 59.0957 452.442 59.0957C450.743 59.0957 449.367 60.1277 449.367 61.4007C449.367 62.6737 450.743 63.7056 452.442 63.7056Z" fill="#6C63FF"/>
<path id="Vector_34" class="animated slideInDown animate_infinite infinite animate_slower 3s" style="animation-delay:2.7s; animation-duration:2.7s" d="M381.231 89.8766C382.929 89.8766 384.306 88.8446 384.306 87.5716C384.306 86.2986 382.929 85.2667 381.231 85.2667C379.532 85.2667 378.155 86.2986 378.155 87.5716C378.155 88.8446 379.532 89.8766 381.231 89.8766Z" fill="#6C63FF"/>
<path id="Vector_35" class="animated slideInDown animate_infinite infinite animate_slower 3s" style="animation-delay:2.8s; animation-duration:2.8s" d="M505.844 148.499C507.057 148.499 508.04 147.762 508.04 146.853C508.04 145.944 507.057 145.207 505.844 145.207C504.631 145.207 503.647 145.944 503.647 146.853C503.647 147.762 504.631 148.499 505.844 148.499Z" fill="#FF6584"/>
<path id="Vector_36" class="animated slideInDown animate_infinite infinite animate_slower 3s" style="animation-delay:2.8s; animation-duration:2.8s" d="M381.242 109.665C382.455 109.665 383.439 108.928 383.439 108.019C383.439 107.109 382.455 106.372 381.242 106.372C380.029 106.372 379.046 107.109 379.046 108.019C379.046 108.928 380.029 109.665 381.242 109.665Z" fill="#CCCCCC"/>
<path id="Vector_37" class="animated slideInDown animate_infinite infinite animate_slower 3s" style="animation-delay:2.8s; animation-duration:2.8s" d="M485.374 118.107C486.587 118.107 487.57 117.37 487.57 116.461C487.57 115.552 486.587 114.815 485.374 114.815C484.16 114.815 483.177 115.552 483.177 116.461C483.177 117.37 484.16 118.107 485.374 118.107Z" fill="#FF6584"/>
<path id="Vector_38" class="animated slideInDown animate_infinite infinite animate_slower 3s" style="animation-delay:2.9s; animation-duration:2.9s" d="M472.913 92.7806C474.127 92.7806 475.11 92.0435 475.11 91.1342C475.11 90.2249 474.127 89.4878 472.913 89.4878C471.7 89.4878 470.717 90.2249 470.717 91.1342C470.717 92.0435 471.7 92.7806 472.913 92.7806Z" fill="#CCCCCC"/>
<path id="Vector_39" class="animated slideInDown animate_infinite infinite animate_slower 3s" style="animation-delay:2.9s; animation-duration:2.9s" d="M355.432 106.288C356.645 106.288 357.628 105.551 357.628 104.642C357.628 103.733 356.645 102.995 355.432 102.995C354.219 102.995 353.235 103.733 353.235 104.642C353.235 105.551 354.219 106.288 355.432 106.288Z" fill="#FF6584"/>
<path id="Vector_40" class="animated slideInDown animate_infinite infinite animate_slower 3s" style="animation-delay:2.9s; animation-duration:2.9s" d="M405.272 96.1575C406.486 96.1575 407.469 95.4204 407.469 94.5111C407.469 93.6018 406.486 92.8647 405.272 92.8647C404.059 92.8647 403.076 93.6018 403.076 94.5111C403.076 95.4204 404.059 96.1575 405.272 96.1575Z" fill="#FF6584"/>
<path id="Vector_41" class="animated slideInDown animate_infinite infinite animate_slower 3s" style="animation-delay:3s; animation-duration:3s" d="M412.423 72.4544C414.723 72.563 416.956 73.0786 418.939 73.9589C420.921 74.8393 422.598 76.0593 423.83 77.519C424.175 77.9328 424.626 78.3875 424.387 78.8969C424.304 79.0921 424.135 79.2605 423.907 79.3744C423.68 79.4882 423.407 79.5409 423.135 79.5238C422.795 79.4689 422.489 79.3318 422.263 79.1335C422.037 78.9353 421.905 78.6869 421.887 78.4267C421.868 78.1665 421.964 77.9089 422.16 77.6937C422.356 77.4785 422.641 77.3177 422.971 77.2359C424.567 76.7259 426.176 77.5141 427.475 78.1432C430.436 79.5765 433.693 80.8728 437.281 81.0362C440.6 81.1873 444.16 80.2117 446.006 78.0542C446.329 77.6767 445.527 77.3279 445.206 77.7035C443.374 79.8433 439.673 80.6118 436.454 80.2811C434.536 80.0542 432.684 79.5829 430.978 78.8876C430.093 78.5435 429.235 78.162 428.395 77.761C427.595 77.3427 426.747 76.9783 425.861 76.6723C424.384 76.2174 422.428 76.253 421.396 77.3003C420.433 78.2774 421.177 79.9041 422.787 80.1788C423.141 80.231 423.506 80.2166 423.85 80.1371C424.194 80.0575 424.506 79.9152 424.759 79.7229C425.011 79.5306 425.196 79.2944 425.297 79.0353C425.398 78.7762 425.411 78.5024 425.336 78.2385C425.176 77.6631 424.598 77.1 424.15 76.6297C422.806 75.2123 421.054 74.0389 419.025 73.196C416.995 72.3531 414.739 71.8623 412.423 71.7596C411.826 71.7375 411.828 72.4323 412.423 72.4544L412.423 72.4544Z" fill="#0F0D0D"/>
<path id="Vector_42" class="animated slideInDown animate_infinite infinite animate_slower 3s" style="animation-delay:3s; animation-duration:3s" d="M446.213 104.6C447.426 104.6 448.41 103.863 448.41 102.953C448.41 102.044 447.426 101.307 446.213 101.307C445 101.307 444.016 102.044 444.016 102.953C444.016 103.863 445 104.6 446.213 104.6Z" fill="#CCCCCC"/>
<path id="Vector_43" class="animated slideInDown animate_infinite infinite animate_slower 3s" style="animation-delay:3s; animation-duration:3s" d="M350.982 142.59C352.195 142.59 353.178 141.853 353.178 140.943C353.178 140.034 352.195 139.297 350.982 139.297C349.768 139.297 348.785 140.034 348.785 140.943C348.785 141.853 349.768 142.59 350.982 142.59Z" fill="#CCCCCC"/>
<path id="Vector_44" class="animated slideInDown animate_infinite infinite animate_slower 3s" style="animation-delay:3.1s; animation-duration:3.1s" d="M343.862 167.917C345.075 167.917 346.058 167.179 346.058 166.27C346.058 165.361 345.075 164.624 343.862 164.624C342.648 164.624 341.665 165.361 341.665 166.27C341.665 167.179 342.648 167.917 343.862 167.917Z" fill="#FF6584"/>
<path id="Vector_45" class="animated slideInDown animate_infinite infinite animate_slower 3s" style="animation-delay:3.1s; animation-duration:3.1s" d="M343.862 167.917C345.075 167.917 346.058 167.179 346.058 166.27C346.058 165.361 345.075 164.624 343.862 164.624C342.648 164.624 341.665 165.361 341.665 166.27C341.665 167.179 342.648 167.917 343.862 167.917Z" fill="#FF6584"/>
<path id="Vector_46" class="animated slideInDown animate_infinite infinite animate_slower 3s" style="animation-delay:3.1s; animation-duration:3.1s" d="M339.411 128.238C340.625 128.238 341.608 127.501 341.608 126.592C341.608 125.682 340.625 124.945 339.411 124.945C338.198 124.945 337.215 125.682 337.215 126.592C337.215 127.501 338.198 128.238 339.411 128.238Z" fill="#FF6584"/>
<path id="Vector_47" class="animated slideInDown animate_infinite infinite animate_slower 3s" style="animation-delay:3.2s; animation-duration:3.2s" d="M475.583 134.992C476.797 134.992 477.78 134.255 477.78 133.345C477.78 132.436 476.797 131.699 475.583 131.699C474.37 131.699 473.387 132.436 473.387 133.345C473.387 134.255 474.37 134.992 475.583 134.992Z" fill="#FF6584"/>
<path id="Vector_48" class="animated slideInDown animate_infinite infinite animate_slower 3s" style="animation-delay:3.2s; animation-duration:3.2s" d="M518.028 139.152C516.487 138.408 515.202 137.401 514.281 136.214C513.359 135.026 512.826 133.692 512.725 132.32C512.699 131.932 512.621 131.486 513.05 131.201C513.209 131.09 513.414 131.022 513.631 131.009C513.848 130.996 514.064 131.039 514.244 131.13C514.452 131.267 514.594 131.451 514.648 131.654C514.702 131.857 514.666 132.068 514.544 132.254C514.422 132.44 514.222 132.591 513.975 132.684C513.727 132.776 513.446 132.805 513.175 132.766C511.803 132.657 511.093 131.642 510.516 130.827C509.201 128.972 507.609 127.125 505.202 125.97C502.975 124.9 499.998 124.543 497.6 125.505C497.181 125.674 497.557 126.149 497.975 125.982C500.353 125.027 503.322 125.569 505.386 126.734C506.601 127.449 507.643 128.314 508.468 129.293C508.905 129.789 509.303 130.303 509.68 130.826C510.019 131.349 510.419 131.848 510.876 132.318C511.667 133.063 513.044 133.607 514.302 133.179C514.583 133.07 514.825 132.914 515.01 132.722C515.196 132.531 515.319 132.309 515.369 132.076C515.42 131.842 515.397 131.603 515.303 131.377C515.208 131.152 515.044 130.946 514.824 130.776C514.606 130.637 514.345 130.541 514.065 130.496C513.785 130.451 513.494 130.459 513.22 130.52C512.945 130.58 512.694 130.69 512.49 130.841C512.286 130.991 512.135 131.178 512.051 131.383C511.921 131.865 511.918 132.362 512.043 132.845C512.243 134.22 512.853 135.543 513.826 136.718C514.8 137.893 516.113 138.89 517.669 139.634C518.071 139.823 518.429 139.34 518.028 139.152L518.028 139.152Z" fill="#0F0D0D"/>
<path id="Vector_49" class="animated slideInDown animate_infinite infinite animate_slower 3s" style="animation-delay:3.2s; animation-duration:3.2s" d="M359.87 192.872C361.569 192.872 362.946 191.84 362.946 190.567C362.946 189.294 361.569 188.262 359.87 188.262C358.172 188.262 356.795 189.294 356.795 190.567C356.795 191.84 358.172 192.872 359.87 192.872Z" fill="#6C63FF"/>
<path id="Vector_50" class="animated slideInDown animate_infinite infinite animate_slower 3s" style="animation-delay:3.3s; animation-duration:3.3s" d="M363.43 131.244C365.129 131.244 366.506 130.212 366.506 128.939C366.506 127.666 365.129 126.634 363.43 126.634C361.732 126.634 360.355 127.666 360.355 128.939C360.355 130.212 361.732 131.244 363.43 131.244Z" fill="#6C63FF"/>
<path id="Vector_51" class="animated slideInDown animate_infinite infinite animate_slower 3s" style="animation-delay:3.3s; animation-duration:3.3s" d="M462.222 77.2132C463.92 77.2132 465.297 76.1813 465.297 74.9083C465.297 73.6353 463.92 72.6033 462.222 72.6033C460.524 72.6033 459.147 73.6353 459.147 74.9083C459.147 76.1813 460.524 77.2132 462.222 77.2132Z" fill="#6C63FF"/>
<path id="Vector_52" class="animated slideInDown animate_infinite infinite animate_slower 3s" style="animation-delay:3.3s; animation-duration:3.3s" d="M419.501 112.671C421.2 112.671 422.577 111.639 422.577 110.366C422.577 109.093 421.2 108.061 419.501 108.061C417.803 108.061 416.426 109.093 416.426 110.366C416.426 111.639 417.803 112.671 419.501 112.671Z" fill="#6C63FF"/>
<path id="Vector_53" class="animated slideInDown animate_infinite infinite animate_slower 3s" style="animation-delay:3.4s; animation-duration:3.4s" d="M462.222 77.2132C463.92 77.2132 465.297 76.1813 465.297 74.9083C465.297 73.6353 463.92 72.6033 462.222 72.6033C460.524 72.6033 459.147 73.6353 459.147 74.9083C459.147 76.1813 460.524 77.2132 462.222 77.2132Z" fill="#6C63FF"/>
<path id="Vector_54" class="animated slideInDown animate_infinite infinite animate_slower 3s" style="animation-delay:3.4s; animation-duration:3.4s" d="M458.662 116.892C460.36 116.892 461.737 115.86 461.737 114.587C461.737 113.314 460.36 112.282 458.662 112.282C456.963 112.282 455.587 113.314 455.587 114.587C455.587 115.86 456.963 116.892 458.662 116.892Z" fill="#6C63FF"/>
</g>
</g>
</g>
<defs>
<filter id="filter0_d" x="0" y="18.5729" width="493.161" height="213.991" filterUnits="userSpaceOnUse" color-interpolation-filters="sRGB">
<feFlood flood-opacity="0" result="BackgroundImageFix"/>
<feColorMatrix in="SourceAlpha" type="matrix" values="0 0 0 0 0 0 0 0 0 0 0 0 0 0 0 0 0 0 127 0"/>
<feOffset dy="4"/>
<feGaussianBlur stdDeviation="2"/>
<feColorMatrix type="matrix" values="0 0 0 0 0 0 0 0 0 0 0 0 0 0 0 0 0 0 0.67 0"/>
<feBlend mode="normal" in2="BackgroundImageFix" result="effect1_dropShadow"/>
<feBlend mode="normal" in="SourceGraphic" in2="effect1_dropShadow" result="shape"/>
</filter>
<filter id="filter1_d" x="288.786" y="0" width="265.214" height="251.981" filterUnits="userSpaceOnUse" color-interpolation-filters="sRGB">
<feFlood flood-opacity="0" result="BackgroundImageFix"/>
<feColorMatrix in="SourceAlpha" type="matrix" values="0 0 0 0 0 0 0 0 0 0 0 0 0 0 0 0 0 0 127 0"/>
<feOffset dy="4"/>
<feGaussianBlur stdDeviation="2"/>
<feColorMatrix type="matrix" values="0 0 0 0 0 0 0 0 0 0 0 0 0 0 0 0 0 0 0.73 0"/>
<feBlend mode="normal" in2="BackgroundImageFix" result="effect1_dropShadow"/>
<feBlend mode="normal" in="SourceGraphic" in2="effect1_dropShadow" result="shape"/>
</filter>
</defs>
</svg>
