<svg width="230" height="350" viewBox="0 0 289 389" fill="none" xmlns="http://www.w3.org/2000/svg">
<path d="M153.75 332.508C208.451 332.508 252.794 328.761 252.794 324.14C252.794 319.519 208.451 315.773 153.75 315.773C99.0504 315.773 54.7073 319.519 54.7073 324.14C54.7073 328.761 99.0504 332.508 153.75 332.508Z" fill="#6C63FF"/>
<path opacity="0.4" d="M153.75 332.508C208.451 332.508 252.794 328.761 252.794 324.14C252.794 319.519 208.451 315.773 153.75 315.773C99.0504 315.773 54.7073 319.519 54.7073 324.14C54.7073 328.761 99.0504 332.508 153.75 332.508Z" fill="black"/>
<path opacity="0.1" d="M71.4414 128.027V128.201C71.4436 128.233 71.4436 128.267 71.4414 128.299C71.4414 128.374 71.4414 128.453 71.4414 128.532V128.582V128.774V128.829C71.4435 128.839 71.4435 128.849 71.4414 128.859V129.037V129.175L71.4011 129.527C71.4011 129.601 71.4011 129.68 71.3697 129.754C71.3697 129.789 71.3697 129.828 71.3697 129.868V129.932C71.3719 129.952 71.3719 129.972 71.3697 129.992C71.3649 130.034 71.3574 130.075 71.3473 130.115C71.3421 130.156 71.3346 130.195 71.3249 130.234C71.3249 130.264 71.3249 130.294 71.3249 130.323C71.3249 130.353 71.3249 130.427 71.2936 130.477L71.2667 130.581L71.2398 130.709L71.1995 130.863C71.1995 130.863 71.1995 130.887 71.1995 130.902C71.1995 130.917 71.1726 131.006 71.1547 131.061C71.1144 131.219 71.0651 131.382 71.0159 131.555L70.9666 131.704C70.9589 131.733 70.9484 131.761 70.9353 131.788C71.1267 130.922 71.2185 130.032 71.2085 129.141C71.2044 128.213 71.0914 127.29 70.8726 126.394C70.2262 123.757 68.712 121.48 66.6263 120.011C66.4471 119.887 66.268 119.769 66.0843 119.66C64.6265 118.776 62.9904 118.312 61.3275 118.312C59.6645 118.312 58.0284 118.776 56.5706 119.66C56.2458 119.855 55.9317 120.072 55.63 120.308C55.1279 120.661 54.657 121.065 54.2235 121.515C53.8483 121.101 53.4439 120.721 53.0141 120.377C52.6867 120.118 52.3457 119.88 51.9929 119.665C50.2825 118.628 48.3328 118.173 46.389 118.357C44.4452 118.541 42.5941 119.356 41.0682 120.699C40.7808 120.955 40.5057 121.228 40.2441 121.515C39.8464 121.953 39.4837 122.429 39.1601 122.936C38.9638 123.239 38.7828 123.555 38.6181 123.881C38.4635 124.184 38.323 124.496 38.1971 124.816C38.1254 124.989 38.0582 125.167 38 125.345C38 125.276 38.0269 125.207 38.0448 125.138L38.0717 125.034V124.974L38.112 124.816C38.1478 124.697 38.1792 124.578 38.215 124.46L38.2643 124.296C38.3404 124.064 38.4166 123.836 38.5061 123.609L38.5465 123.495L38.6271 123.292L38.7749 122.965V122.941L38.8466 122.797L38.9272 122.634C38.9585 122.564 38.9944 122.495 39.0302 122.431L39.084 122.332L39.1108 122.277C39.1108 122.238 39.1511 122.198 39.1735 122.159C39.1959 122.119 39.2273 122.07 39.2497 122.025L39.4289 121.733C39.4512 121.699 39.4692 121.664 39.4916 121.634L39.5722 121.51L39.6573 121.382L39.7648 121.228L39.8588 121.095L39.8947 121.05L39.9619 120.956L40.0739 120.813L40.1231 120.753L40.2082 120.65L40.3381 120.526C40.4232 120.422 40.5128 120.318 40.6069 120.219L40.7144 120.1L40.8801 119.922L40.9921 119.813L41.1265 119.685L41.2116 119.6L41.3011 119.521C41.3594 119.467 41.4176 119.412 41.4803 119.363C41.5081 119.334 41.5381 119.307 41.5699 119.284C41.7177 119.155 41.87 119.031 42.0178 118.918L42.1119 118.848C42.1414 118.822 42.1729 118.799 42.2059 118.779L42.291 118.715L42.4254 118.626L42.4881 118.581L42.5867 118.517C42.7121 118.433 42.842 118.354 42.9719 118.279L43.048 118.235L43.169 118.165L43.2675 118.111L43.3705 118.062L43.469 118.007L43.5676 117.958L43.6706 117.908L44.0782 117.725L44.1812 117.686L44.2887 117.641L44.3873 117.606L44.4679 117.577L44.656 117.507L44.7546 117.473L44.8307 117.448H44.9069L45.0457 117.403L45.2249 117.354C45.4085 117.305 45.5967 117.26 45.7848 117.22H45.8609H45.9684H46.0759H46.2148H46.2954C46.4746 117.196 46.6537 117.176 46.8374 117.161H46.9314H48.1095H48.2438H48.3245L48.7724 117.206L48.9695 117.235H49.0994H49.2069H49.3144H49.386C49.5742 117.27 49.7578 117.314 49.9459 117.364L50.1699 117.433H50.2326L50.3311 117.468L50.5193 117.527L50.5999 117.557C50.7387 117.601 50.8731 117.656 51.0075 117.71L51.1015 117.75L51.2225 117.799L51.4061 117.883L51.6122 117.982L51.6973 118.022L51.8092 118.081L51.9078 118.131L52.0063 118.185L52.1317 118.255L52.2303 118.314L52.4587 118.452L52.5528 118.512C52.6648 118.586 52.7768 118.655 52.8843 118.735L52.9738 118.799L53.0679 118.868L53.162 118.937L53.2247 118.982L53.6144 119.299L53.7039 119.378L53.8831 119.536L53.9682 119.615L54.0578 119.699L54.1877 119.828L54.2997 119.937L54.4654 120.115L54.5774 120.234L54.6849 120.115L54.8506 119.937L54.9626 119.828L55.0925 119.699L55.1821 119.615L55.2672 119.536L55.4463 119.378L55.5359 119.299C55.6882 119.17 55.8405 119.046 55.9838 118.932L56.0779 118.863L56.172 118.794L56.2615 118.73L56.3914 118.641L56.4586 118.596L56.5527 118.532L56.9424 118.294L57.0185 118.25L57.1395 118.18L57.238 118.126L57.3365 118.076L57.4395 118.022L57.5381 117.973L57.6411 117.923L58.0487 117.74L58.1517 117.7L58.2592 117.656L58.3578 117.621L58.4384 117.592L58.6265 117.522L58.7251 117.488L58.8012 117.463H58.8774L59.0117 117.418L59.1954 117.369C59.379 117.319 59.5672 117.275 59.7553 117.235H59.8314H59.9389H60.0464H60.1808H60.2614L60.8034 117.176H60.9019H62.08H62.2143H62.2905C62.4383 117.176 62.5816 117.201 62.7384 117.22L62.931 117.25H63.0654H63.1729H63.2804H63.352C63.5402 117.285 63.7238 117.329 63.9075 117.379L64.1359 117.448H64.1986L64.2971 117.483L64.4853 117.542L64.5659 117.572C64.7003 117.616 64.8391 117.671 64.9735 117.725L65.0631 117.765L65.184 117.814L65.3677 117.898L65.5782 117.997L65.6588 118.037L65.7708 118.096L65.8738 118.146L65.9724 118.2L66.0978 118.269L66.1963 118.329C66.2725 118.373 66.3486 118.418 66.4203 118.467L66.5188 118.527L66.8503 118.749L66.9399 118.814L67.0339 118.883L67.1235 118.952L67.1817 118.997C67.3161 119.101 67.446 119.205 67.5714 119.313L67.6655 119.393L67.8402 119.551L67.9297 119.63L68.0148 119.714L68.1313 119.823L68.2433 119.937L68.306 120.006L68.4135 120.12L68.4628 120.174L68.521 120.239L68.6285 120.358L68.7942 120.551L68.8883 120.659L69.0406 120.852L69.2018 121.065C69.3855 121.318 69.5602 121.56 69.7214 121.837L69.7886 121.946L69.8558 122.065L69.914 122.169L70.0126 122.342L70.0977 122.505L70.1514 122.604L70.1917 122.683C70.1917 122.708 70.2141 122.738 70.2276 122.762C70.241 122.787 70.2679 122.842 70.2858 122.881C70.3037 122.921 70.3216 122.96 70.344 123C70.4694 123.277 70.5859 123.564 70.6934 123.851C70.6934 123.891 70.7247 123.93 70.7382 123.975L70.8591 124.331L70.8905 124.44C70.8905 124.489 70.9218 124.544 70.9397 124.593C70.9577 124.643 70.9666 124.687 70.9756 124.732L71.0024 124.821L71.0338 124.945L71.0741 125.103C71.0965 125.187 71.1144 125.271 71.1323 125.36C71.1449 125.404 71.1554 125.449 71.1637 125.494C71.1637 125.553 71.1906 125.618 71.1995 125.682V125.761C71.1995 125.801 71.1995 125.835 71.1995 125.875V125.959V126.033V126.098V126.167C71.1995 126.211 71.1995 126.256 71.1995 126.3C71.1995 126.345 71.1995 126.389 71.1995 126.439C71.1995 126.488 71.1995 126.538 71.1995 126.587C71.1995 126.637 71.1995 126.686 71.1995 126.731V126.815V126.968C71.1995 126.993 71.1995 127.018 71.1995 127.043C71.1995 127.067 71.1995 127.147 71.1995 127.196C71.1995 127.231 71.1995 127.26 71.1995 127.295C71.1974 127.328 71.1974 127.361 71.1995 127.394C71.1995 127.448 71.1995 127.503 71.1995 127.557C71.1995 127.617 71.1995 127.671 71.1995 127.725C71.1995 127.78 71.4459 127.918 71.4414 128.027Z" fill="#0C0B0B"/>
<path opacity="0.1" d="M108.663 77.3922V77.5159C108.666 77.5373 108.666 77.5588 108.663 77.5802C108.663 77.6346 108.663 77.694 108.663 77.7484V77.7831C108.663 77.8276 108.663 77.8722 108.663 77.9167V77.9711V78.0998C108.665 78.1327 108.665 78.1658 108.663 78.1987L108.636 78.4461L108.61 78.6045V78.6837C108.612 78.7001 108.612 78.7167 108.61 78.7332C108.61 78.7332 108.61 78.7579 108.61 78.7727C108.61 78.7876 108.61 78.8321 108.61 78.8618V78.9459V79.0053C108.608 79.0416 108.608 79.0779 108.61 79.1142V79.1834C108.61 79.2131 108.61 79.2478 108.587 79.2775L108.56 79.3863C108.56 79.3863 108.56 79.3863 108.56 79.4111L108.533 79.5249C108.502 79.6387 108.466 79.7525 108.43 79.8613C108.395 79.9702 108.43 79.9356 108.399 79.9702L108.377 80.0296C108.51 79.4172 108.575 78.789 108.569 78.1592C108.564 77.5025 108.484 76.8492 108.332 76.2145C108.019 74.9068 107.401 73.7125 106.54 72.7508C106.177 72.3512 105.776 71.9961 105.344 71.6918C105.219 71.6077 105.093 71.5236 104.964 71.4444C103.933 70.822 102.778 70.4958 101.604 70.4958C100.43 70.4958 99.2748 70.822 98.2448 71.4444C98.017 71.5838 97.7958 71.7358 97.5818 71.8997C97.2631 72.1564 96.9635 72.441 96.686 72.7508C96.4217 72.4595 96.1371 72.1914 95.835 71.9491C95.6037 71.7659 95.3613 71.6005 95.1093 71.4543C94.0793 70.8319 92.924 70.5058 91.75 70.5058C90.5759 70.5058 89.4207 70.8319 88.3906 71.4543C88.0419 71.666 87.7107 71.9111 87.4007 72.1867C87.1972 72.366 87.0028 72.5577 86.8184 72.7606C86.5379 73.0671 86.2803 73.398 86.048 73.7503C85.9091 73.968 85.7837 74.1907 85.6673 74.4183C85.5566 74.6332 85.4564 74.8546 85.3672 75.0814C85.3179 75.2051 85.2731 75.3288 85.2283 75.4574C85.2283 75.408 85.2507 75.3585 85.2597 75.309C85.2617 75.2843 85.2617 75.2594 85.2597 75.2348V75.1902L85.2865 75.0814C85.3089 74.9923 85.3358 74.9082 85.3582 74.829L85.394 74.7102C85.4478 74.547 85.5015 74.3886 85.5642 74.2154L85.6046 74.1214C85.6046 74.0719 85.6404 74.0274 85.6628 73.9779L85.7613 73.7503C85.7795 73.7167 85.7959 73.682 85.8106 73.6464L85.8688 73.5326C85.8915 73.4831 85.917 73.4351 85.945 73.3891C85.9542 73.3644 85.9663 73.3411 85.9808 73.3198V73.2802L86.0301 73.201L86.0838 73.107L86.2092 72.8992L86.254 72.825L86.3078 72.7408L86.3705 72.6468L86.4466 72.5429C86.4665 72.5095 86.489 72.478 86.5138 72.4489L86.5362 72.4143L86.5855 72.35C86.6124 72.3153 86.6348 72.2807 86.6616 72.251L86.6975 72.2064L86.7557 72.1372L86.8229 72.0531L87.011 71.8353L87.0872 71.7512L87.2081 71.6275C87.2356 71.6037 87.2611 71.5772 87.2842 71.5483L87.3783 71.4593L87.441 71.3999L87.5037 71.3454L87.6291 71.2316L87.6918 71.1772L88.0143 70.915L88.0815 70.8655L88.1487 70.8209L88.2114 70.7764L88.301 70.7121L88.3503 70.6824L88.4175 70.6379C88.507 70.5785 88.5966 70.5191 88.6907 70.4696L88.7444 70.435L88.8296 70.3855L88.9012 70.3509L88.9729 70.3113L89.0401 70.2766L89.1117 70.242L89.1834 70.2074L89.4746 70.0787L89.5462 70.049L89.6224 70.0193L89.6895 69.9896H89.7478L89.8821 69.9402H89.9493H90.0031H90.0568L90.1554 69.9105L90.2808 69.8758C90.4152 69.8363 90.5451 69.8066 90.6795 69.7818H90.7332H90.8093H90.8855H90.9795H91.0378C91.1632 69.7818 91.2931 69.7472 91.4185 69.7373H92.4801L92.7847 69.7719H92.9235H93.0176H93.0937H93.1699H93.2191C93.349 69.7967 93.4834 69.8263 93.6133 69.861L93.7745 69.9105H93.8193H93.8865L94.0209 69.9501H94.0747L94.3658 70.0589L94.4285 70.0886L94.5136 70.1233L94.6435 70.1826L94.7913 70.2519L94.8496 70.2816L94.9302 70.3212L95.0018 70.3608L95.069 70.3954L95.1586 70.4449L95.2258 70.4894L95.387 70.5834L95.4542 70.628L95.6916 70.7863L95.7543 70.8308L95.817 70.8754L95.8842 70.9249L95.929 70.9595C96.0231 71.0288 96.1127 71.103 96.2023 71.1822L96.265 71.2366L96.3949 71.3504L96.4531 71.4048L96.5158 71.4642L96.6099 71.5533L96.6905 71.6325C96.7271 71.6762 96.766 71.7175 96.8069 71.7562L96.8831 71.8403L96.9592 71.7562C97.0002 71.7175 97.0391 71.6762 97.0757 71.6325L97.1563 71.5533L97.2504 71.4642L97.3131 71.4048L97.3713 71.3504L97.5012 71.2366L97.5639 71.1822C97.6669 71.0931 97.7744 71.004 97.8864 70.9199L97.9536 70.8704L98.0163 70.8259L98.079 70.7814L98.1731 70.717L98.2179 70.6873L98.2851 70.6428C98.3791 70.5834 98.4687 70.5241 98.5628 70.4746L98.6165 70.4399L98.7016 70.3904L98.7688 70.3558L98.8405 70.3162L98.9121 70.2816L98.9838 70.247L99.0555 70.2123L99.3421 70.0837L99.4138 70.054L99.49 70.0243L99.5616 69.9946H99.6198L99.7498 69.9451H99.8214H99.8752H99.9289L100.023 69.9154L100.153 69.8808C100.283 69.8412 100.417 69.8115 100.547 69.7868H100.601H100.677H100.753H100.852H100.91C101.035 69.7868 101.161 69.7521 101.291 69.7422H102.352L102.657 69.7769H102.796H102.885H102.961H103.037H103.091L103.481 69.8659L103.642 69.9154H103.687H103.759L103.889 69.955H103.947L104.233 70.0639L104.301 70.0935L104.386 70.1282L104.516 70.1876L104.663 70.2568L104.722 70.2865L104.798 70.3261L104.869 70.3657L104.941 70.4003L105.026 70.4498L105.098 70.4944L105.259 70.5884L105.326 70.6329C105.407 70.6824 105.483 70.7368 105.559 70.7912L105.622 70.8358L105.689 70.8803L105.756 70.9298L105.797 70.9644C105.891 71.0337 105.985 71.1079 106.074 71.1871L106.137 71.2415C106.181 71.2767 106.223 71.3148 106.262 71.3554L106.325 71.4098L106.388 71.4692L106.469 71.5483L106.549 71.6275L106.594 71.677L106.67 71.7611L106.701 71.7957L106.746 71.8403L106.822 71.9293L106.939 72.0629L107.002 72.1421L107.109 72.2757L107.225 72.4291C107.355 72.6023 107.476 72.7854 107.593 72.9734L107.638 73.0476C107.638 73.0773 107.669 73.107 107.687 73.1318L107.727 73.206C107.75 73.2456 107.776 73.2852 107.799 73.3297L107.857 73.4435C107.871 73.4655 107.883 73.4887 107.893 73.5128L107.924 73.5672L107.951 73.6266L107.991 73.7107L108.032 73.7948C108.121 73.9878 108.202 74.1907 108.278 74.3936L108.309 74.4826C108.341 74.5668 108.368 74.6459 108.395 74.735C108.404 74.7589 108.411 74.7838 108.417 74.8092C108.417 74.8488 108.417 74.8834 108.453 74.9181L108.48 75.017C108.478 75.0385 108.478 75.0599 108.48 75.0814C108.48 75.1111 108.48 75.1407 108.502 75.1704L108.529 75.2793C108.529 75.3387 108.56 75.3981 108.574 75.4574C108.587 75.5168 108.574 75.5218 108.574 75.5564L108.601 75.69V75.7444V75.8236C108.598 75.8433 108.598 75.8633 108.601 75.883C108.601 75.883 108.601 75.9176 108.601 75.9325V75.9819C108.601 75.9819 108.601 76.0116 108.601 76.0314V76.1254V76.2194V76.3283C108.603 76.3629 108.603 76.3976 108.601 76.4322V76.4867C108.598 76.5229 108.598 76.5593 108.601 76.5955C108.598 76.6136 108.598 76.6319 108.601 76.6499C108.601 76.6846 108.601 76.7192 108.601 76.7588C108.603 76.7818 108.603 76.8051 108.601 76.8281C108.603 76.8511 108.603 76.8743 108.601 76.8974C108.603 76.9369 108.603 76.9766 108.601 77.0161C108.603 77.0557 108.603 77.0953 108.601 77.1349L108.663 77.3922Z" fill="black"/>
<path opacity="0.1" d="M214.367 119.195V119.318C214.369 119.342 214.369 119.365 214.367 119.388C214.367 119.442 214.367 119.497 214.367 119.551V119.586C214.365 119.63 214.365 119.675 214.367 119.719V119.784V119.907C214.369 119.94 214.369 119.973 214.367 120.006L214.34 120.254C214.34 120.308 214.34 120.363 214.34 120.417V120.496C214.343 120.513 214.343 120.529 214.34 120.546C214.34 120.546 214.34 120.575 214.34 120.59C214.342 120.618 214.342 120.646 214.34 120.674V120.758V120.823C214.34 120.857 214.34 120.892 214.34 120.932C214.338 120.956 214.338 120.981 214.34 121.006C214.34 121.036 214.34 121.065 214.34 121.095L214.313 121.204C214.313 121.204 214.313 121.204 214.313 121.233C214.301 121.269 214.29 121.305 214.282 121.342C214.251 121.456 214.219 121.57 214.183 121.684C214.169 121.717 214.157 121.752 214.148 121.788L214.125 121.847C214.258 121.235 214.323 120.606 214.318 119.977C214.306 118.691 214.004 117.429 213.438 116.306C212.873 115.182 212.062 114.233 211.079 113.544C210.954 113.455 210.828 113.371 210.699 113.292C209.668 112.669 208.513 112.343 207.339 112.343C206.165 112.343 205.01 112.669 203.98 113.292C203.751 113.431 203.53 113.584 203.317 113.752C202.997 114.007 202.697 114.292 202.421 114.603C202.158 114.309 201.873 114.039 201.57 113.796C201.338 113.618 201.097 113.452 200.849 113.301C199.819 112.68 198.663 112.354 197.489 112.354C196.316 112.354 195.16 112.68 194.13 113.301C193.782 113.515 193.451 113.76 193.14 114.034C192.936 114.213 192.741 114.407 192.558 114.613C192.276 114.917 192.02 115.248 191.792 115.602C191.651 115.818 191.522 116.042 191.407 116.275C191.295 116.493 191.196 116.716 191.107 116.938C191.057 117.062 191.013 117.186 190.968 117.314C190.968 117.265 190.968 117.215 191.004 117.166C191.002 117.141 191.002 117.116 191.004 117.092C191.002 117.077 191.002 117.062 191.004 117.047L191.031 116.938C191.031 116.854 191.08 116.77 191.102 116.686C191.116 116.647 191.128 116.608 191.138 116.567C191.192 116.404 191.25 116.246 191.308 116.072L191.349 115.973C191.349 115.929 191.384 115.879 191.407 115.83C191.429 115.78 191.474 115.677 191.51 115.602L191.555 115.498L191.613 115.385C191.64 115.335 191.662 115.286 191.689 115.241C191.699 115.217 191.711 115.194 191.725 115.172C191.725 115.172 191.725 115.147 191.725 115.132C191.725 115.103 191.756 115.073 191.774 115.048L191.828 114.954L191.953 114.746L191.998 114.677L192.056 114.588L192.114 114.499L192.191 114.39L192.258 114.296V114.261L192.307 114.197L192.383 114.098L192.419 114.054L192.477 113.979L192.544 113.9C192.607 113.826 192.67 113.752 192.737 113.682C192.76 113.652 192.786 113.624 192.813 113.598C192.85 113.555 192.889 113.513 192.93 113.475L193.01 113.395C193.038 113.362 193.068 113.33 193.1 113.301L193.163 113.242L193.225 113.188L193.351 113.074L193.413 113.019C193.521 112.93 193.628 112.841 193.736 112.762L193.803 112.713L193.87 112.663L193.933 112.619L194.027 112.554L194.072 112.525L194.139 112.48L194.412 112.312L194.466 112.277L194.551 112.233L194.623 112.193L194.694 112.158L194.766 112.119L194.833 112.084L194.905 112.05L195.196 111.921L195.268 111.891L195.344 111.861L195.411 111.837L195.469 111.812L195.604 111.767H195.671H195.725H195.778L195.877 111.738L196.002 111.703C196.137 111.669 196.267 111.634 196.401 111.609H196.455H196.531H196.607H196.701H196.759L197.145 111.565H198.202L198.511 111.599H198.645H198.739H198.815H198.891H198.941C199.074 111.623 199.205 111.654 199.335 111.693L199.496 111.738H199.541H199.608L199.743 111.782H199.801L200.087 111.891H200.15L200.235 111.926L200.365 111.985L200.513 112.054L200.571 112.084L200.652 112.129L200.723 112.163L200.791 112.203L200.88 112.252L200.952 112.292L201.109 112.391L201.18 112.431L201.413 112.589L201.476 112.633L201.543 112.683L201.606 112.732L201.651 112.767L201.924 112.99L201.991 113.044L202.116 113.158L202.179 113.212L202.237 113.272L202.331 113.366L202.412 113.445L202.529 113.569C202.556 113.594 202.582 113.622 202.605 113.653C202.632 113.623 202.654 113.593 202.681 113.569L202.802 113.445C202.825 113.416 202.85 113.39 202.878 113.366L202.972 113.272L203.035 113.212L203.097 113.158L203.223 113.044L203.286 112.99C203.393 112.901 203.501 112.812 203.608 112.732L203.675 112.683L203.742 112.633L203.805 112.589L203.895 112.525L203.944 112.495L204.011 112.45L204.284 112.282L204.338 112.247L204.423 112.203L204.495 112.163L204.562 112.129L204.634 112.089L204.705 112.054L204.777 112.02L205.064 111.891L205.135 111.861L205.212 111.832L205.283 111.807L205.341 111.782L205.476 111.738H205.543H205.597H205.651L205.749 111.708L205.874 111.673C206.004 111.639 206.139 111.604 206.269 111.579H206.327H206.399H206.479H206.573H206.631L207.012 111.535H208.074L208.378 111.57H208.517H208.611H208.687H208.764H208.813C208.943 111.594 209.077 111.624 209.207 111.664L209.368 111.708H209.409H209.48L209.61 111.753H209.668L209.955 111.861H210.022L210.107 111.896L210.237 111.956L210.385 112.025L210.443 112.054L210.524 112.099L210.591 112.134L210.663 112.173L210.752 112.223L210.819 112.262L210.981 112.361L211.048 112.401C211.129 112.45 211.205 112.505 211.281 112.559L211.344 112.604L211.411 112.653L211.478 112.703L211.523 112.737L211.796 112.96L211.859 113.014L211.984 113.128L212.047 113.183L212.109 113.242L212.19 113.321L212.271 113.4C212.285 113.418 212.3 113.435 212.316 113.45C212.316 113.48 212.365 113.504 212.392 113.534L212.428 113.569L212.468 113.618L212.544 113.702L212.66 113.836L212.723 113.915C212.761 113.959 212.797 114.005 212.831 114.054L212.947 114.202C213.077 114.38 213.198 114.558 213.314 114.746C213.314 114.771 213.346 114.796 213.359 114.825L213.408 114.905L213.449 114.979C213.476 115.018 213.498 115.063 213.52 115.103L213.579 115.216L213.619 115.286L213.646 115.345L213.673 115.399L213.713 115.484L213.753 115.568C213.843 115.766 213.928 115.964 214 116.166C214.012 116.195 214.023 116.225 214.031 116.256C214.062 116.34 214.089 116.424 214.116 116.508L214.143 116.587C214.151 116.622 214.162 116.657 214.174 116.691L214.201 116.79V116.854C214.201 116.884 214.201 116.914 214.201 116.943L214.228 117.052C214.228 117.112 214.259 117.176 214.273 117.235C214.286 117.295 214.273 117.295 214.273 117.329L214.3 117.463V117.517V117.596C214.3 117.596 214.3 117.636 214.3 117.656C214.3 117.676 214.3 117.691 214.3 117.71V117.755C214.3 117.755 214.3 117.789 214.3 117.804V117.898V117.997V118.101V118.205V118.264C214.3 118.299 214.3 118.334 214.3 118.368C214.3 118.403 214.3 118.403 214.3 118.423C214.3 118.443 214.3 118.497 214.3 118.532C214.298 118.553 214.298 118.575 214.3 118.596V118.665C214.302 118.705 214.302 118.745 214.3 118.784C214.302 118.824 214.302 118.863 214.3 118.903L214.367 119.195Z" fill="black"/>
<path d="M184.755 121.515C183.321 119.908 181.801 118.396 180.204 116.988C180.397 114.336 180.845 107.987 180.885 106.765C180.93 105.216 178.865 103.237 174.449 101.411C170.032 99.585 171.313 108.101 171.376 108.868C171.439 109.635 172.402 111.956 174.064 112.718C174.659 112.99 174.821 113.331 174.78 113.653L174.641 113.628C171.009 113.133 169.369 112.203 169.369 112.203C169.369 112.203 168.026 116.656 168.026 118.794C168.026 118.913 168.026 119.027 168.026 119.13C167.981 119.517 168.018 119.91 168.133 120.278H168.442C168.48 120.856 168.396 121.435 168.196 121.971C168.065 122.385 167.916 122.791 167.748 123.188C167.618 121.971 167.548 120.747 167.537 119.521C167.609 118.334 165.898 113.509 165.898 113.509C165.898 113.509 165.186 113.193 163.69 111.292C162.194 109.392 161.002 108.601 159.986 108.205C158.969 107.809 155.282 102.509 153.764 101.277C152.555 100.288 152.066 100.871 151.919 101.149L151.829 101.218C151.126 100.139 150.624 99.1099 150.624 98.3776C150.624 97.8382 150.673 96.7298 150.763 95.3245C151.29 95.7721 151.782 96.2688 152.232 96.809C153.262 98.0708 154.024 99.5751 155.148 100.738C156.001 101.691 157.152 102.247 158.364 102.292C158.761 102.311 159.157 102.242 159.529 102.089C161.025 101.45 161.988 99.4365 163.56 99.3573C164.796 99.4266 165.705 100.688 166.718 101.52C167.461 102.161 168.377 102.509 169.32 102.509C169.694 102.522 170.066 102.457 170.417 102.316C171.582 101.822 172.379 100.253 171.846 99.011C171.022 97.0911 168.218 97.5265 167.022 95.854C166.886 95.6922 166.789 95.4947 166.74 95.28C166.691 95.0654 166.693 94.8406 166.745 94.6268C166.796 94.4584 166.893 94.3116 167.023 94.207C167.153 94.1024 167.309 94.045 167.47 94.043C168.037 94.1122 168.566 94.3913 168.971 94.8347C169.553 95.4878 170.314 96.3191 171.036 96.2301C171.238 96.2572 171.443 96.214 171.622 96.1064C171.645 95.5175 171.672 94.9287 171.694 94.3398C172.457 94.8127 173.31 95.0805 174.184 95.1217C174.346 95.1283 174.508 95.12 174.668 95.0969C175.613 94.9584 176.514 93.9885 176.406 92.9791C176.824 93.3615 177.356 93.5574 177.898 93.5283C178.14 93.5429 178.383 93.5093 178.614 93.4294C179.01 93.278 179.358 93.003 179.616 92.6376C179.874 92.2723 180.03 91.8323 180.066 91.3709C180.137 90.2724 179.524 89.2828 178.932 88.402L176.003 83.9783C175.707 83.635 175.545 83.1759 175.555 82.7016C175.656 82.3357 175.827 81.9981 176.057 81.712C176.854 80.4254 176.464 78.5402 175.448 77.4565C174.431 76.3729 172.948 75.9968 171.542 76.0265C170.48 76.0512 169.302 76.2492 168.447 75.5811C167.77 75.0863 167.452 74.1363 167.237 73.2505C166.615 70.6478 166.579 67.9163 166.144 65.269C165.71 62.6217 164.774 59.9002 162.83 58.2871C162.39 57.8869 161.858 57.6299 161.293 57.5449C160.817 57.5533 160.341 57.5963 159.869 57.6735C158.257 57.7725 156.819 56.5453 155.802 55.1499C154.785 53.7545 154.01 52.1315 152.841 50.9093C151.117 48.9943 148.264 48.4352 145.97 49.1527C144.922 49.4743 144.089 50.4145 143.005 50.464C141.415 50.5431 139.69 50.1423 138.105 49.9692C136.613 49.8207 135.09 49.6772 133.626 50.078C132.969 50.2374 132.349 50.5486 131.809 50.9912C131.269 51.4338 130.819 51.9979 130.49 52.6461L130.109 49.0785C130.109 49.0785 129.321 42.3489 128.967 41.7996C128.712 41.3988 128.824 40.8397 129.012 40.2113L129.084 40.2855C129.138 40.1073 129.196 39.9243 129.254 39.7412C129.274 39.6035 129.274 39.4632 129.254 39.3255C129.393 37.9747 127.171 29.3747 127.171 29.3747H125.173C125.173 29.2707 125.142 29.1619 125.124 29.058C124.542 25.5596 123.561 20.0918 122.885 18.7756C122.437 17.87 122.387 16.5785 122.481 15.4504C122.6 14.1467 122.632 12.8352 122.576 11.5264C122.552 10.895 122.579 10.2624 122.656 9.63619C122.711 9.16729 122.652 8.69066 122.484 8.25565C122.316 7.82065 122.046 7.44309 121.702 7.16208C119.082 5.01456 112.712 0.125713 108.986 0.00200768C104.211 -0.156335 110.482 9.10179 110.41 9.97268C110.338 10.8436 115.185 11.6353 115.185 11.6353C115.185 11.6353 115.472 14.3222 115.758 15.8264C115.955 16.8705 116.287 24.6145 116.475 29.2608C115.306 29.1025 113.263 27.9298 113.263 27.9298C113.263 27.9298 107.705 26.2721 107.203 27.9298C106.701 29.5874 113.976 37.5838 113.976 37.5838C113.976 37.5838 116.542 45.1001 115.767 47.4802C114.992 49.8603 115.552 61.0878 115.552 61.0878C115.552 61.0878 115.624 74.448 116.157 77.8623C116.69 81.2765 115.194 83.1618 115.194 83.1618C115.194 83.1618 114.553 91.5491 115.194 92.3408C115.849 93.3283 116.436 94.3687 116.95 95.4532L117.138 95.8293C115.033 98.6695 112.941 101.386 111.843 101.767C109.707 102.48 95.1004 109.189 95.1004 109.189C95.1004 109.189 90.3301 114.227 89.6089 114.227C88.8878 114.227 93.9537 119.61 93.9537 119.61C93.9537 119.61 98.5135 123.643 99.0152 124.277C99.5168 124.91 112.005 132.426 112.005 132.426C112.005 132.426 114.146 133.139 114.356 133.851C114.567 134.564 117.42 136.538 117.42 136.538C117.42 136.538 119.606 139.329 120.179 141.11C120.179 141.239 120.179 141.348 120.211 141.452C120.237 141.947 120.269 142.174 120.296 142.056C120.676 143.213 123.243 146.168 122.007 148.275C121.433 149.265 122.007 151.042 123.113 152.477C122.813 154.248 122.396 156.267 121.948 156.93C121.093 158.197 121.474 159.988 120.605 160.201C119.736 160.413 119.463 165.055 119.463 165.055L118.723 175.283C118.723 175.283 118.531 177.391 117.487 177.92C116.444 178.45 117.487 181.295 117.487 181.295C117.487 181.295 116.367 183.72 117.039 185.09C117.711 186.461 115.696 192.795 115.696 192.795C115.696 192.795 114.84 205.032 115.696 206.719C116.469 208.393 116.926 210.223 117.039 212.098C117.039 213.152 117.514 232.88 117.514 232.88C117.514 232.88 116.372 240.896 115.991 242.371C115.61 243.845 117.039 247.121 116.09 248.804C115.14 250.486 115.328 254.286 115.328 254.286C115.328 254.286 113.904 269.16 114.759 274.648C115.615 280.136 114.486 281.294 114.486 281.294C115.073 281.661 115.691 281.962 116.332 282.194C116.354 282.402 116.376 282.625 116.399 282.852C116.847 287.454 117.505 295.381 116.905 297.202C116.305 299.023 116.135 302.457 116.076 304.407C116.076 304.52 116.076 304.624 116.076 304.728L114.415 307.697C114.415 307.697 114.083 310.315 113.653 310.735C113.223 311.156 109.653 318.316 109.174 319.236L109.125 319.335C109.125 319.335 105.514 326.669 114.446 326.877C123.377 327.084 122.235 322.027 122.235 322.027C122.235 322.027 122.262 321.038 122.347 319.825C122.455 318.341 122.652 316.535 122.997 316.065C123.615 315.223 125.42 311.265 125.42 311.265V305.456H124.846C124.846 305.357 124.846 305.248 124.878 305.139C124.953 303.93 125.12 302.73 125.375 301.552C125.657 300.814 124.757 296.381 124.757 296.381C124.757 296.381 124.954 287.855 125.836 282.466C125.877 282.229 125.917 281.996 125.957 281.773C126.621 281.455 127.263 281.085 127.879 280.665C127.879 280.665 127.879 269.908 129.021 268.008C130.163 266.107 129.921 260.729 129.921 260.729C129.921 260.729 130.204 255.983 131.059 255.033C131.915 254.083 131.713 249.862 131.713 249.862C131.713 249.862 132.47 247.121 133.326 244.914C134.181 242.707 134.669 236.478 134.669 236.478C134.966 235.384 135.42 234.35 136.013 233.415C136.967 231.93 136.013 228.669 136.013 228.669C136.013 228.669 134.969 226.561 135.637 224.448C136.304 222.335 140.004 205.249 140.004 205.249L141.433 199.133L143.52 206.937C143.52 206.937 143.238 212.528 143.52 214.112C143.802 215.695 145.8 219.06 145.8 219.06V235.621C145.8 235.621 145.993 246.804 146.754 248.596C147.516 250.387 147.892 257.037 147.892 257.037C147.892 257.037 150.458 276.553 148.841 279.398C149.668 280.02 150.547 280.552 151.466 280.987V292.481C151.466 292.481 149.603 299.439 150.239 304.174C150.239 304.268 150.266 304.362 150.279 304.456C150.109 304.595 149.921 304.713 149.804 304.664L150.104 312.581C150.104 312.581 150.185 316.975 149.424 319.286C149.173 320.098 149.022 320.943 148.976 321.8C148.81 324.932 149.903 329.222 156.142 328.777C164.451 328.193 163.17 322.344 163.17 322.344C163.17 322.344 163.17 322.116 163.139 321.716C162.946 318.731 162.247 315.814 161.078 313.116C159.085 308.791 159.372 303.407 159.372 303.407C159.207 303.472 159.038 303.522 158.866 303.556C158.866 303.452 158.866 303.343 158.888 303.234C158.996 301.749 159.161 299.825 159.336 298.924C159.618 297.341 159.336 293.654 159.336 293.654L160.407 282.1L160.465 281.457C160.985 281.182 161.479 280.851 161.938 280.467C161.621 279.428 161.435 278.346 161.387 277.251C161.326 276.52 161.524 275.791 161.938 275.217C163.175 273.846 164.026 256.651 164.026 256.651C164.026 256.651 164.698 250.6 164.702 248.556C164.702 248.413 164.702 248.289 164.702 248.19C164.626 246.958 164.035 242.133 164.044 239.318C164.019 238.724 164.081 238.129 164.227 237.556C164.796 235.973 165.571 206.224 165.571 206.224L166.521 193.042V182.215C166.522 177.033 165.952 171.871 164.823 166.841C167.412 168.326 171.851 171.7 172.662 170.8C173.66 169.691 174.158 150.7 173.871 148.805C173.871 148.701 173.835 148.567 173.804 148.419C173.737 148.073 173.638 147.607 173.517 147.068L173.911 146.311C175.86 142.585 178.838 136.667 179.076 134.93C179.344 132.951 179.698 127.81 180.37 125.558C180.424 125.377 180.488 125.2 180.563 125.029C180.737 124.638 180.926 124.425 181.141 124.484C182.354 124.801 183.138 125.83 183.779 125.434C183.811 125.414 183.84 125.387 183.864 125.355C183.927 125.279 183.982 125.194 184.025 125.103C184.083 124.987 184.133 124.866 184.173 124.742C184.218 124.613 184.258 124.47 184.298 124.316V124.272C184.298 124.207 184.33 124.143 184.343 124.079C184.345 124.057 184.345 124.036 184.343 124.014C184.343 123.96 184.366 123.901 184.379 123.846L184.406 123.722V123.658C184.518 123.099 184.603 122.52 184.657 122.114C184.657 121.966 184.688 121.842 184.702 121.748V121.55L184.755 121.515Z" fill="url(#paint0_linear)"/>
<path d="M120.282 142.684C120.322 142.384 120.288 142.078 120.184 141.798C120.215 142.511 120.251 142.837 120.282 142.684Z" fill="url(#paint1_linear)"/>
<path d="M174.014 115.81C174.014 115.81 175.707 114.534 174.055 113.781C172.402 113.029 171.43 110.714 171.367 109.951C171.304 109.189 170.023 100.718 174.44 102.529C178.856 104.34 180.921 106.31 180.876 107.853C180.831 109.397 180.115 119.185 180.115 119.185L174.014 115.81Z" fill="#FBBEBE"/>
<path d="M184.755 122.535C184.755 122.535 184.755 122.762 184.688 123.099C184.558 124.089 184.24 126.127 183.756 126.419C183.116 126.815 182.332 125.791 181.118 125.474C180.903 125.42 180.715 125.627 180.54 126.018C180.466 126.189 180.402 126.364 180.348 126.543C179.676 128.789 179.322 133.906 179.053 135.875C178.811 137.612 175.837 143.505 173.889 147.212C173.598 147.771 173.324 148.28 173.091 148.696C172.554 149.686 172.196 150.334 172.196 150.334L167.269 140.131V125.083C167.621 124.419 167.921 123.722 168.164 123C168.365 122.468 168.449 121.892 168.411 121.318C168.391 121.132 168.317 120.958 168.2 120.823C168.162 120.777 168.13 120.726 168.106 120.669C168.088 120.628 168.073 120.585 168.061 120.541C168.027 120.415 168.005 120.286 167.999 120.155C167.999 120.056 167.999 119.942 167.999 119.828C167.999 117.705 169.342 113.267 169.342 113.267C169.342 113.267 170.982 114.212 174.614 114.682C178.247 115.152 184.755 122.535 184.755 122.535Z" fill="#A94E4E"/>
<path opacity="0.1" d="M184.688 123.099C184.558 124.089 184.24 126.127 183.756 126.419C183.116 126.815 182.332 125.791 181.118 125.474C180.903 125.42 180.715 125.627 180.54 126.018C180.466 126.189 180.402 126.364 180.348 126.543C177.898 125.227 173.629 122.842 173.356 122.169C173.083 121.496 170.108 121.342 168.429 121.313H168.124C168.009 120.946 167.972 120.555 168.017 120.17C168.142 117.958 169.36 113.915 169.36 113.915C169.36 113.915 171 114.86 174.632 115.33C178.059 115.766 184.007 122.337 184.688 123.099Z" fill="black"/>
<path d="M184.755 122.54C184.755 122.54 184.397 126.028 183.756 126.419C183.116 126.81 182.332 125.791 181.118 125.479C180.903 125.42 180.715 125.627 180.54 126.018C178.126 124.722 173.62 122.228 173.374 121.54C173.127 120.852 169.737 120.694 168.142 120.674C167.555 119.318 169.378 113.252 169.378 113.252C169.378 113.252 171.018 114.197 174.65 114.672C178.283 115.147 184.755 122.54 184.755 122.54Z" fill="#A94E4E"/>
<path d="M172.639 171.577C171.64 172.68 165.154 167.326 163.376 167.009C161.598 166.693 155.135 136.786 155.135 136.786L156.107 119.932L152.317 104.424L151.824 102.396C151.824 102.396 152.201 101.158 153.724 102.396C155.247 103.633 158.946 108.907 159.945 109.298C160.944 109.689 162.153 110.486 163.649 112.376C165.145 114.266 165.858 114.578 165.858 114.578C165.858 114.578 167.569 119.383 167.497 120.56C167.425 121.738 168.07 129.774 168.841 130.482C169.611 131.189 170.906 137.647 170.906 137.647C170.906 137.647 173.262 146.717 173.759 149.305C173.792 149.456 173.814 149.585 173.826 149.691C174.135 151.581 173.638 170.473 172.639 171.577Z" fill="#A94E4E"/>
<path opacity="0.1" d="M161.522 134.049L166.225 135.44C166.225 135.44 167.121 144.416 167.452 144.891C167.784 145.366 168.93 163.783 168.93 163.783L161.522 160.082L158.74 150.185V139.235L161.522 134.049Z" fill="black"/>
<path d="M126.459 279.75C126.156 280.716 125.929 281.709 125.783 282.719C124.887 288.082 124.703 296.574 124.703 296.574C124.703 296.574 125.599 300.982 125.321 301.72C125.066 302.892 124.899 304.085 124.824 305.287C124.748 306.059 124.703 306.648 124.703 306.648L116.005 306.02C116.005 306.02 116.005 305.451 116.031 304.58C116.09 302.64 116.273 299.226 116.86 297.415C117.447 295.604 116.806 287.697 116.354 283.114C116.161 281.135 116.005 279.779 116.005 279.779C116.005 279.779 127.924 275.534 126.459 279.75Z" fill="#FBBEBE"/>
<path d="M160.407 282.333L159.336 293.827C159.336 293.827 159.618 297.499 159.336 299.072C159.175 299.968 159.009 301.878 158.888 303.363C158.807 304.486 158.754 305.372 158.754 305.372C158.754 305.372 152.102 310.518 150.584 306C150.403 305.453 150.277 304.885 150.207 304.308C149.571 299.592 151.435 292.669 151.435 292.669V277.879L160.653 279.542L160.407 282.333Z" fill="#FBBEBE"/>
<path opacity="0.1" d="M126.459 279.75C126.156 280.716 125.929 281.709 125.783 282.719C122.796 284.114 119.45 284.253 116.376 283.109C116.184 281.13 116.027 279.774 116.027 279.774C116.027 279.774 127.924 275.534 126.459 279.75Z" fill="black"/>
<path opacity="0.1" d="M160.666 279.537L160.407 282.323C157.182 283.956 153.737 282.956 151.448 281.828V277.869L160.666 279.537Z" fill="black"/>
<path d="M123.548 150.319C123.548 150.319 122.791 156.514 121.935 157.776C121.079 159.038 121.46 160.819 120.591 161.027C119.722 161.235 119.449 165.856 119.449 165.856L118.723 176.04C118.723 176.04 118.531 178.138 117.487 178.662C116.444 179.187 117.487 182.022 117.487 182.022C117.487 182.022 116.367 184.437 117.039 185.803C117.711 187.168 115.696 193.463 115.696 193.463C115.696 193.463 114.84 205.64 115.696 207.318C116.468 208.983 116.925 210.805 117.039 212.672C117.039 213.721 117.514 233.35 117.514 233.35C117.514 233.35 116.372 241.332 115.991 242.801C115.61 244.271 117.039 247.522 116.09 249.204C115.14 250.887 115.328 254.647 115.328 254.647C115.328 254.647 113.859 269.467 114.715 274.91C115.57 280.353 114.441 281.521 114.441 281.521C116.523 282.734 118.859 283.315 121.21 283.205C123.561 283.094 125.844 282.296 127.825 280.893C127.825 280.893 127.825 270.185 128.967 268.295C130.109 266.404 129.921 261.055 129.921 261.055C129.921 261.055 130.204 256.33 131.059 255.385C131.915 254.439 131.713 250.253 131.713 250.253C131.713 250.253 132.47 247.522 133.326 245.305C134.181 243.088 134.669 236.893 134.669 236.893C134.966 235.804 135.42 234.775 136.013 233.845C136.967 232.361 136.013 229.124 136.013 229.124C136.013 229.124 134.969 227.021 135.637 224.923C136.304 222.825 140.004 205.818 140.004 205.818L141.433 199.732L143.52 207.501C143.52 207.501 143.238 213.062 143.52 214.636C143.802 216.21 145.8 219.584 145.8 219.584V236.067C145.8 236.067 145.993 247.195 146.754 248.977C147.515 250.758 147.892 257.389 147.892 257.389C147.892 257.389 150.458 276.81 148.841 279.656C148.841 279.656 156.16 285.425 161.956 280.705C161.956 280.705 160.72 276.82 161.956 275.455C163.193 274.089 164.044 256.978 164.044 256.978C164.044 256.978 164.805 250.154 164.711 248.566C164.617 246.978 163.667 239.54 164.236 237.967C164.805 236.393 165.58 206.793 165.58 206.793L166.53 193.675V182.938C166.533 177.126 165.81 171.341 164.38 165.748C162.771 159.488 160.545 152.308 158.673 151.858C158.642 151.858 129.155 155.465 123.548 150.319Z" fill="#A94E4E"/>
<path opacity="0.1" d="M124.824 305.258C124.748 306.03 124.703 306.618 124.703 306.618L116.005 305.99C116.005 305.99 116.005 305.421 116.031 304.55C120.112 300.552 124.179 305.258 124.179 305.258H124.824Z" fill="black"/>
<path d="M125.366 305.589V311.418C125.366 311.418 123.574 315.377 122.943 316.193C122.598 316.658 122.401 318.445 122.293 319.934C122.208 321.122 122.181 322.121 122.181 322.121C122.181 322.121 123.324 327.164 114.392 326.951C105.461 326.738 109.071 319.444 109.071 319.444L109.12 319.35C109.568 318.43 113.183 311.285 113.599 310.889C114.016 310.493 114.361 307.865 114.361 307.865L116.023 304.897C120.112 300.859 124.197 305.579 124.197 305.579L125.366 305.589Z" fill="black"/>
<path opacity="0.1" d="M122.181 322.101C122.181 322.101 123.324 327.144 114.392 326.931C105.461 326.718 109.071 319.444 109.071 319.444L109.12 319.35C109.366 320.835 110.419 322.374 113.774 322.176C118.32 321.913 121.093 320.632 122.284 319.934C122.208 321.102 122.181 322.101 122.181 322.101Z" fill="black"/>
<path opacity="0.1" d="M158.902 303.353C158.821 304.476 158.767 305.362 158.767 305.362C158.767 305.362 152.116 310.508 150.597 305.99C150.416 305.443 150.29 304.875 150.221 304.298C150.354 304.189 150.479 304.07 150.597 303.942C151.686 302.16 157.482 302.106 157.764 302.952C157.938 303.437 158.489 303.437 158.902 303.353Z" fill="black"/>
<path d="M156.156 328.772C149.885 329.207 148.806 324.947 148.989 321.844C149.035 320.993 149.186 320.152 149.437 319.345C150.199 317.044 150.118 312.67 150.118 312.67L149.818 304.798C150.055 304.901 150.629 304.273 150.629 304.273C151.717 302.492 157.513 302.437 157.795 303.283C158.077 304.13 159.412 303.556 159.412 303.556C159.412 303.556 159.125 308.91 161.119 313.21C162.287 315.895 162.986 318.799 163.179 321.77C163.206 322.166 163.21 322.393 163.21 322.393C163.21 322.393 164.465 328.193 156.156 328.772Z" fill="black"/>
<g opacity="0.1">
<path opacity="0.1" d="M162.619 159.582C161.334 155.525 159.932 152.16 158.66 151.878L157.526 152.006C158.709 152.709 160.008 155.836 161.195 159.582C163.796 167.897 165.113 176.635 165.092 185.432V193.695L164.142 206.818C164.142 206.818 163.381 236.418 162.798 237.992C162.216 239.565 163.179 247.017 163.273 248.596C163.367 250.174 162.606 257.008 162.606 257.008C162.606 257.008 161.75 274.119 160.519 275.479C159.287 276.84 160.519 280.729 160.519 280.729C159.214 281.798 157.66 282.431 156.039 282.555C158.147 282.76 160.25 282.111 161.956 280.729C161.956 280.729 160.72 276.845 161.956 275.479C163.193 274.114 164.044 257.008 164.044 257.008C164.044 257.008 164.805 250.184 164.711 248.596C164.617 247.007 163.667 239.565 164.236 237.992C164.805 236.418 165.58 206.818 165.58 206.818L166.53 193.695V185.432C166.547 176.634 165.225 167.896 162.619 159.582Z" fill="black"/>
</g>
<g opacity="0.1">
<path opacity="0.1" d="M116.184 281.536C116.184 281.536 117.313 280.378 116.457 274.92C115.601 269.462 117.026 254.662 117.026 254.662C117.026 254.662 116.838 250.882 117.787 249.219C118.737 247.557 117.313 244.271 117.689 242.816C118.065 241.361 119.212 233.365 119.212 233.365C119.212 233.365 118.723 213.726 118.723 212.672C118.61 210.806 118.153 208.986 117.38 207.323C116.524 205.64 117.38 193.468 117.38 193.468C117.38 193.468 119.373 187.168 118.723 185.808C118.074 184.447 119.171 182.027 119.171 182.027C119.171 182.027 118.128 179.192 119.171 178.667C120.215 178.143 120.408 176.045 120.408 176.045L121.165 165.861C121.165 165.861 121.451 161.245 122.307 161.032C123.162 160.819 122.782 159.053 123.651 157.781C124.291 156.836 124.882 153.11 125.133 151.309C124.565 151.07 124.033 150.736 123.556 150.319C123.556 150.319 122.795 156.509 121.939 157.771C121.084 159.033 121.465 160.814 120.596 161.022C119.727 161.23 119.458 165.852 119.458 165.852L118.723 176.04C118.723 176.04 118.531 178.138 117.487 178.662C116.444 179.187 117.487 182.022 117.487 182.022C117.487 182.022 116.367 184.437 117.039 185.803C117.711 187.168 115.696 193.463 115.696 193.463C115.696 193.463 114.84 205.64 115.696 207.318C116.468 208.981 116.926 210.801 117.039 212.667C117.039 213.721 117.514 233.345 117.514 233.345C117.514 233.345 116.372 241.327 115.996 242.796C115.619 244.266 117.039 247.517 116.09 249.199C115.14 250.882 115.328 254.642 115.328 254.642C115.328 254.642 113.89 269.467 114.746 274.91C115.601 280.353 114.473 281.526 114.473 281.526C116.636 282.797 119.079 283.371 121.523 283.184C119.655 283.073 117.833 282.511 116.184 281.536Z" fill="black"/>
</g>
<path d="M152.823 52.2998C154.001 53.517 154.767 55.1351 155.784 56.5206C156.801 57.9061 158.239 59.1283 159.851 59.0343C160.323 58.9554 160.799 58.9108 161.275 58.9007C161.84 58.9857 162.372 59.2427 162.812 59.6429C164.756 61.2461 165.692 63.9479 166.126 66.5704C166.561 69.193 166.574 71.9244 167.219 74.5173C167.434 75.398 167.752 76.3184 168.429 76.838C169.302 77.501 170.462 77.2982 171.524 77.2784C172.93 77.2487 174.413 77.6297 175.43 78.7035C176.446 79.7772 176.836 81.6724 176.039 82.9391C175.811 83.2152 175.639 83.5427 175.537 83.8991C175.532 84.1333 175.569 84.3662 175.646 84.5845C175.723 84.8028 175.838 85.002 175.985 85.1708L178.914 89.5747C179.506 90.4555 180.119 91.4451 180.048 92.5436C180.017 93.0048 179.863 93.4455 179.605 93.8094C179.347 94.1734 178.996 94.4441 178.598 94.5869C178.2 94.7298 177.773 94.7383 177.37 94.6115C176.968 94.4846 176.609 94.2281 176.339 93.8747C176.657 94.9683 175.68 96.1014 174.65 96.2498C173.62 96.3983 172.617 95.8886 171.681 95.3889L171.604 97.2543C170.744 97.7492 169.835 96.7595 169.15 95.9876C168.465 95.2157 167.054 94.7703 166.727 95.7798C166.675 95.9935 166.673 96.2183 166.722 96.433C166.771 96.6476 166.868 96.8451 167.004 97.0069C168.2 98.6547 171.004 98.2341 171.828 100.144C172.361 101.381 171.564 102.965 170.4 103.435C169.235 103.905 167.896 103.435 166.897 102.643C165.898 101.851 164.922 100.471 163.618 100.481C161.992 100.481 161.02 102.559 159.502 103.207C158.073 103.811 156.438 103.024 155.323 101.866C154.207 100.708 153.432 99.2089 152.402 97.952C149.751 94.7208 145.733 93.4393 141.988 92.0587C138.244 90.6782 134.28 88.7978 132.345 84.9976C131.753 83.8249 131.377 82.5235 130.642 81.4497C129.379 79.6288 127.256 78.7777 125.872 77.0705C125.106 76.0908 124.611 74.8889 124.445 73.6074C124.279 72.326 124.45 71.0189 124.936 69.8412C125.59 68.3122 126.728 67.1296 127.664 65.7738C129.222 63.4498 130.074 60.6399 130.096 57.7477C130.096 56.6591 129.993 55.5359 130.307 54.5017C130.786 52.9381 132.174 51.8841 133.626 51.4833C135.077 51.0825 136.6 51.226 138.105 51.3695C139.69 51.5278 141.415 51.9237 143.005 51.8643C144.089 51.8099 144.922 50.8747 145.97 50.558C148.246 49.8504 151.099 50.3947 152.823 52.2998Z" fill="#3F3D56"/>
<g opacity="0.1">
<path opacity="0.1" d="M165.356 65.3284C165.804 67.9658 165.804 70.6824 166.453 73.2703C166.582 73.9116 166.824 74.5186 167.166 75.0566C167.112 74.8834 167.063 74.7053 167.022 74.5321C166.4 71.9392 166.364 69.2227 165.929 66.5853C165.691 64.9846 165.204 63.4414 164.491 62.023C164.888 63.0865 165.178 64.195 165.356 65.3284Z" fill="black"/>
<path opacity="0.1" d="M175.273 81.6922C175.039 81.9757 174.866 82.314 174.767 82.6818C174.762 82.9152 174.799 83.1474 174.876 83.3649C174.952 83.5824 175.068 83.7808 175.215 83.9486C175.255 84.008 175.291 84.0673 175.331 84.1218C175.325 84.061 175.325 83.9995 175.331 83.9387C175.435 83.5821 175.608 83.2546 175.837 82.9787C176.536 81.8456 176.317 80.2572 175.564 79.1587C175.684 79.5792 175.72 80.0234 175.67 80.4607C175.619 80.898 175.484 81.3182 175.273 81.6922Z" fill="black"/>
<path opacity="0.1" d="M171.21 99.5157C171.237 100.089 171.097 100.657 170.812 101.138C170.527 101.618 170.111 101.986 169.625 102.188C168.456 102.653 167.121 102.188 166.122 101.391C165.123 100.594 164.147 99.2237 162.848 99.2336C161.217 99.2336 160.25 101.312 158.727 101.955C157.298 102.564 155.663 101.772 154.548 100.614C153.432 99.4563 152.658 97.957 151.632 96.7051C148.98 93.4739 144.962 92.1874 141.213 90.8068C137.464 89.4263 133.527 87.5558 131.588 83.7704C131.762 84.191 131.941 84.6067 132.143 85.0075C134.078 88.8077 138.038 90.6881 141.782 92.0686C145.527 93.4492 149.549 94.7308 152.201 97.9619C153.231 99.2188 153.992 100.718 155.117 101.876C156.241 103.034 157.867 103.821 159.296 103.217C160.819 102.569 161.786 100.505 163.417 100.49C164.715 100.49 165.656 101.797 166.695 102.653C167.734 103.509 169.029 103.915 170.193 103.445C171.358 102.975 172.16 101.391 171.627 100.154C171.522 99.9165 171.381 99.7007 171.21 99.5157Z" fill="black"/>
<path opacity="0.1" d="M179.152 90.2774C179.252 90.6036 179.294 90.9479 179.277 91.2918C179.246 91.7532 179.092 92.1941 178.834 92.5583C178.575 92.9224 178.225 93.1934 177.827 93.3367C177.428 93.48 177.001 93.4891 176.598 93.3628C176.195 93.2366 175.835 92.9807 175.564 92.6278C175.882 93.7164 174.906 94.8495 173.875 95.0029C172.845 95.1563 171.842 94.6417 170.906 94.1419C170.879 94.7604 170.856 95.3839 170.83 96.0024C169.97 96.4973 169.038 95.5076 168.379 94.7407C167.721 93.9737 166.283 93.5184 165.952 94.5328C165.901 94.7459 165.9 94.9696 165.949 95.1832C165.998 95.3968 166.094 95.5935 166.229 95.755C166.304 95.8594 166.387 95.957 166.476 96.047C166.479 95.9593 166.495 95.8726 166.521 95.7897C166.852 94.8 168.263 95.2355 168.948 95.9975C169.634 96.7595 170.538 97.764 171.403 97.2642C171.403 96.6408 171.452 96.0222 171.475 95.3988C172.411 95.8936 173.418 96.3884 174.449 96.2597C175.479 96.1311 176.455 94.9782 176.133 93.8846C176.403 94.2373 176.763 94.4932 177.165 94.6197C177.568 94.7461 177.995 94.7374 178.394 94.5947C178.792 94.452 179.142 94.1818 179.401 93.8183C179.66 93.4548 179.815 93.0146 179.846 92.5535C179.848 91.731 179.604 90.9306 179.152 90.2774Z" fill="black"/>
<path opacity="0.1" d="M129.868 80.1978C128.609 78.3769 126.481 77.5307 125.102 75.8187C124.908 75.5812 124.733 75.3263 124.578 75.0566C124.823 75.8013 125.194 76.488 125.671 77.0805C127.05 78.7876 129.178 79.6387 130.436 81.4596C130.614 81.717 130.774 81.9882 130.916 82.2711C130.634 81.5409 130.283 80.8458 129.868 80.1978Z" fill="black"/>
</g>
<path d="M138.338 79.1537C138.338 79.1537 139.381 91.9597 134.629 95.8391C129.877 99.7185 144.797 110.328 144.797 110.328L156.107 107.596C156.107 107.596 150.593 101.93 150.593 99.5157C150.593 97.1009 151.542 83.5576 153.065 81.9841C154.588 80.4106 138.338 79.1537 138.338 79.1537Z" fill="#FBBEBE"/>
<path d="M135.032 79.1538L132.448 85.3934C132.448 85.3934 128.595 87.917 128.313 88.1496C128.031 88.3822 124.963 92.2467 124.963 92.2467L117.407 97.6007C117.407 97.6007 117.223 97.2197 116.959 96.6803C116.443 95.6017 115.856 94.5664 115.203 93.5827C114.562 92.796 115.203 84.4533 115.203 84.4533C115.203 84.4533 116.699 82.5631 116.166 79.1785C115.633 75.7939 115.561 62.4881 115.561 62.4881C115.561 62.4881 114.992 51.3052 115.776 48.9449C116.56 46.5846 113.984 39.1029 113.984 39.1029C113.984 39.1029 106.719 31.1263 107.216 29.4786C107.714 27.8308 113.277 29.4786 113.277 29.4786C113.277 29.4786 115.485 30.7404 116.623 30.8195C117.312 30.8641 120.999 30.8839 123.825 30.8888H127.171C127.171 30.8888 129.523 39.9391 129.24 40.8842C129.182 41.0673 129.124 41.2504 129.07 41.4285C128.842 42.1559 128.667 42.8041 128.954 43.2445C129.308 43.7987 130.096 50.4887 130.096 50.4887L130.88 57.7329C130.88 57.7329 132.089 63.3986 132.018 64.1903C131.946 64.982 130.163 66.6298 130.947 68.1242C131.731 69.6185 132.022 74.1857 132.022 74.1857C132.022 74.1857 133.33 77.5357 134.624 78.8123C134.748 78.9433 134.885 79.0579 135.032 79.1538Z" fill="#A94E4E"/>
<path opacity="0.1" d="M147.054 87.6696C154.612 87.6696 160.738 80.9016 160.738 72.5528C160.738 64.204 154.612 57.436 147.054 57.436C139.497 57.436 133.37 64.204 133.37 72.5528C133.37 80.9016 139.497 87.6696 147.054 87.6696Z" fill="black"/>
<path d="M147.054 87.0412C154.612 87.0412 160.738 80.2732 160.738 71.9244C160.738 63.5756 154.612 56.8076 147.054 56.8076C139.497 56.8076 133.37 63.5756 133.37 71.9244C133.37 80.2732 139.497 87.0412 147.054 87.0412Z" fill="#FBBEBE"/>
<path d="M161.522 134.049C160.286 135.534 160.003 149.884 160.733 151.16C161.464 152.437 157.056 154.941 154.49 154.832C151.923 154.723 144.9 157.143 144.9 157.143C144.9 157.143 130.831 152.942 127.879 155.045C124.927 157.148 120.753 151.264 121.989 149.166C123.225 147.068 120.645 144.129 120.278 142.976C120.191 142.486 120.14 141.99 120.125 141.491C119.781 136.207 119.422 119.274 119.422 119.274V99.8324L132.349 89.7528C134.411 90.9066 136.414 92.1869 138.347 93.5877C139.721 94.5667 141.018 95.6707 142.226 96.8882C145.746 100.565 154.485 104.449 154.485 104.449C154.485 104.449 164.084 117.151 165.316 118.413C166.547 119.675 162.754 132.58 161.522 134.049Z" fill="white"/>
<path opacity="0.1" d="M119.427 119.249V102.534C119.427 102.534 119.821 132.981 120.13 141.467C119.785 136.182 119.427 119.249 119.427 119.249Z" fill="black"/>
<path opacity="0.1" d="M120.184 142.724C120.288 143.002 120.322 143.306 120.282 143.604C120.251 143.753 120.215 143.426 120.184 142.724Z" fill="black"/>
<path opacity="0.1" d="M138.432 98.9912C137.597 99.9422 136.9 101.031 136.367 102.217C135.655 103.949 119.427 102.534 119.427 102.534V99.8323L132.354 89.7528C134.416 90.9066 136.418 92.1869 138.351 93.5877C138.432 96.5467 138.432 98.9912 138.432 98.9912Z" fill="black"/>
<path opacity="0.1" d="M120.184 141.462C120.288 141.74 120.322 142.044 120.282 142.343C120.251 142.496 120.215 142.169 120.184 141.462Z" fill="black"/>
<path opacity="0.1" d="M135.032 79.1538L132.448 85.3934C132.448 85.3934 128.596 87.917 128.313 88.1496C128.031 88.3822 124.963 92.2467 124.963 92.2467L117.407 97.6007C117.407 97.6007 117.223 97.2197 116.959 96.6803C119.015 93.9242 121.115 90.9899 122.334 89.9607C124.757 87.917 122.262 87.6795 122.334 87.2837C122.405 86.8878 127.682 84.765 129.106 83.2707C130.266 82.0484 133.491 79.6684 134.633 78.8173C134.754 78.9459 134.888 79.0588 135.032 79.1538Z" fill="black"/>
<path d="M135.032 79.1537C135.032 79.1537 130.522 82.38 129.097 83.8743C127.673 85.3687 122.378 87.4964 122.325 87.8923C122.271 88.2881 124.748 88.5207 122.325 90.5693C119.901 92.6178 113.989 102.217 111.848 102.94C109.707 103.662 95.1048 110.362 95.1048 110.362C95.1048 110.362 90.3301 115.31 89.6179 115.31C88.9057 115.31 93.9627 120.664 93.9627 120.664C93.9627 120.664 98.5225 124.682 99.0241 125.311C99.5258 125.939 112.005 133.391 112.005 133.391C112.005 133.391 114.146 134.099 114.356 134.806C114.567 135.514 117.42 137.483 117.42 137.483C117.42 137.483 120.605 141.526 120.296 142.966C119.987 144.406 119.44 101.896 119.44 101.896C119.44 101.896 135.668 103.311 136.38 101.579C136.914 100.392 137.61 99.3039 138.445 98.3528C138.445 98.3528 138.4 83.7902 137.491 82.7115C136.582 81.6328 135.05 80.4898 135.032 79.1537Z" fill="#A94E4E"/>
<path opacity="0.1" d="M97.3131 113.712C97.3131 113.712 101.586 118.829 103.584 119.695C104.839 120.316 105.833 121.443 106.361 122.847C106.361 122.847 108.713 124.331 109.998 124.578C111.284 124.826 113.205 126.939 113.205 126.939C113.205 126.939 117.98 128.423 117.98 129.537C117.98 130.65 119.906 132.139 119.906 132.139L119.427 101.906C119.427 101.906 111.494 103.004 109.214 106.705C106.934 110.407 97.3131 113.712 97.3131 113.712Z" fill="black"/>
<path opacity="0.1" d="M106.63 116.567C106.988 116.33 116.717 102.485 116.717 102.485L118.508 102.079C118.508 102.079 113.89 109.719 113.962 110.347C114.034 110.976 106.63 116.567 106.63 116.567Z" fill="black"/>
<path opacity="0.1" d="M110.71 121.115C110.71 121.115 113.277 114.578 113.989 113.475C114.701 112.371 118.535 104.974 118.535 104.974C118.645 105.598 118.645 106.24 118.535 106.864C118.334 107.571 110.71 121.115 110.71 121.115Z" fill="black"/>
<path opacity="0.1" d="M127.883 72.3796C127.883 72.3796 122.181 83.8743 122.683 84.4285C123.185 84.9827 127.883 72.3796 127.883 72.3796Z" fill="black"/>
<path opacity="0.1" d="M129.881 76.9468C129.881 76.9468 125.178 84.5423 125.603 84.4434C126.029 84.3444 129.881 76.9468 129.881 76.9468Z" fill="black"/>
<path d="M125.603 33.5707L116.623 34.2783C116.623 34.2783 116.623 33.9567 116.591 33.4025C116.466 30.1268 116.014 18.7063 115.772 17.4296C115.485 15.9452 115.198 13.2583 115.198 13.2583C115.198 13.2583 110.352 12.4715 110.424 11.6056C110.495 10.7396 104.224 1.52606 108.999 1.70914C112.726 1.83285 119.095 6.69695 121.716 8.82963C122.056 9.10736 122.324 9.47997 122.492 9.90942C122.659 10.3389 122.721 10.8098 122.67 11.2741C122.592 11.897 122.565 12.5262 122.589 13.1544C122.645 14.4565 122.614 15.7615 122.495 17.0585C122.401 18.1818 122.441 19.4683 122.898 20.3689C123.561 21.6802 124.542 27.1183 125.138 30.5969C125.415 32.3139 125.603 33.5707 125.603 33.5707Z" fill="#FBBEBE"/>
<path opacity="0.1" d="M129.241 41.2059L129.07 41.7452C127.122 39.6125 114.916 38.2518 114.916 38.2518C113.846 36.8762 114.804 36.2725 115.946 34.5901C116.614 33.6004 120.614 32.1952 123.825 31.2006H127.171C127.171 31.2006 129.523 40.2608 129.241 41.2059Z" fill="black"/>
<path opacity="0.1" d="M125.603 33.5707L116.623 34.2783C116.623 34.2783 116.623 33.9567 116.591 33.4025C118.002 32.4871 121.178 31.3886 123.825 30.5721H125.124C125.415 32.3139 125.603 33.5707 125.603 33.5707Z" fill="black"/>
<path d="M129.241 40.8892C129.182 41.0722 129.124 41.2553 129.07 41.4335C127.122 39.2958 114.916 37.9351 114.916 37.9351C113.846 36.5595 114.804 35.9558 115.946 34.2784C116.614 33.2887 120.614 31.8785 123.825 30.8839H127.171C127.171 30.8839 129.523 39.9441 129.241 40.8892Z" fill="#A94E4E"/>
<path opacity="0.1" d="M137.007 118.829C137.007 118.829 136.009 140.007 137.007 141.031C138.006 142.056 137.007 118.829 137.007 118.829Z" fill="black"/>
<path opacity="0.1" d="M144.062 127.725C144.062 127.725 143.704 151.032 144.062 151.264C144.42 151.497 144.062 127.725 144.062 127.725Z" fill="black"/>
<path opacity="0.1" d="M152.317 130.482C152.317 130.482 153.661 146.544 154.884 147.172C156.106 147.8 152.317 130.482 152.317 130.482Z" fill="black"/>
<path opacity="0.1" d="M173.495 149.621C173.087 149.546 172.698 149.378 172.352 149.127C171.143 148.261 169.786 138.968 168.008 137.711C166.229 136.454 159.811 124.089 159.811 124.089C159.811 124.089 157.316 119.14 156.317 117.869C155.318 116.597 155.82 110.941 155.82 110.941C155.82 110.941 153.164 107.561 152.039 104.721C151.762 104.087 151.595 103.4 151.547 102.697C151.547 102.697 151.927 101.455 153.446 102.697C154.964 103.939 158.669 109.209 159.667 109.6C160.666 109.991 161.876 110.783 163.376 112.673C164.877 114.563 165.584 114.88 165.584 114.88C165.584 114.88 167.295 119.68 167.224 120.862C167.152 122.045 167.793 130.071 168.568 130.783C169.342 131.496 170.632 137.944 170.632 137.944C170.632 137.944 172.997 147.033 173.495 149.621Z" fill="black"/>
<path opacity="0.1" d="M168.017 120.16C168.017 120.061 168.017 119.947 168.017 119.833C168.066 120.066 168.092 120.306 168.092 120.546C168.053 120.421 168.028 120.291 168.017 120.16Z" fill="black"/>
<path opacity="0.1" d="M173.889 147.212C173.598 147.771 173.324 148.28 173.091 148.696C171.913 147.355 170.588 138.607 168.863 137.389C168.257 136.829 167.729 136.174 167.295 135.445V125.053C167.648 124.389 167.948 123.692 168.191 122.97C168.402 125.781 168.886 129.947 169.441 130.452C170.225 131.16 171.506 137.617 171.506 137.617C171.506 137.617 173.038 143.575 173.889 147.212Z" fill="black"/>
<path d="M173.781 149.305C173.372 149.235 172.982 149.066 172.639 148.81C171.425 147.944 170.073 138.656 168.29 137.394C166.507 136.133 160.097 123.777 160.097 123.777C160.097 123.777 157.603 118.829 156.604 117.557C155.605 116.285 156.107 110.629 156.107 110.629C156.107 110.629 153.45 107.245 152.326 104.409C152.049 103.773 151.882 103.085 151.833 102.381C151.833 102.381 152.21 101.144 153.733 102.381C155.255 103.618 158.955 108.893 159.954 109.283C160.953 109.674 162.162 110.471 163.658 112.361C165.154 114.251 165.867 114.563 165.867 114.563C165.867 114.563 167.578 119.368 167.506 120.546C167.434 121.723 168.079 129.759 168.85 130.467C169.62 131.174 170.915 137.632 170.915 137.632C170.915 137.632 173.284 146.717 173.781 149.305Z" fill="#A94E4E"/>
<path d="M159.242 119.897C159.774 119.897 160.205 119.421 160.205 118.834C160.205 118.246 159.774 117.77 159.242 117.77C158.71 117.77 158.279 118.246 158.279 118.834C158.279 119.421 158.71 119.897 159.242 119.897Z" fill="#3F3D56"/>
<path d="M165.567 129.462C166.098 129.462 166.53 128.986 166.53 128.398C166.53 127.811 166.098 127.335 165.567 127.335C165.035 127.335 164.603 127.811 164.603 128.398C164.603 128.986 165.035 129.462 165.567 129.462Z" fill="#3F3D56"/>
<path opacity="0.1" d="M172.921 125.578C172.921 125.578 168.285 123.237 168.998 124.499C169.71 125.761 172.921 125.578 172.921 125.578Z" fill="black"/>
<path opacity="0.1" d="M172.921 128.987C172.921 128.987 168.214 127.572 169.213 128.398C170.211 129.225 172.921 128.987 172.921 128.987Z" fill="black"/>
<path opacity="0.1" d="M172.142 132.728C172.142 132.728 168.935 130.165 169.719 131.11C170.503 132.055 172.142 132.728 172.142 132.728Z" fill="black"/>
<path opacity="0.1" d="M175.488 135.44C175.488 135.44 172.218 142.545 173.781 143.011C175.345 143.476 175.488 135.44 175.488 135.44Z" fill="black"/>
<path opacity="0.1" d="M128.931 252.035C128.931 252.035 121.424 259.907 123.61 259.803C125.796 259.699 128.931 252.035 128.931 252.035Z" fill="black"/>
<path opacity="0.1" d="M118.383 262.955C118.764 262.955 126.365 262.114 124.367 261.694C122.369 261.273 118.383 262.955 118.383 262.955Z" fill="black"/>
<path opacity="0.1" d="M155.345 250.778C155.345 250.778 163.408 251.09 163.233 252.035C163.058 252.98 155.345 250.778 155.345 250.778Z" fill="black"/>
<path opacity="0.1" d="M154.015 254.345C154.015 254.345 158.669 258.23 159.717 256.968C160.765 255.706 154.015 254.345 154.015 254.345Z" fill="black"/>
<path d="M131.713 198.708C131.655 198.989 131.555 199.259 131.417 199.504C131.364 199.598 131.294 199.679 131.211 199.742C130.257 200.474 127.789 201.84 127.409 201.721C127.234 201.672 126.553 201.444 125.805 201.226C124.932 200.944 123.964 200.642 123.601 200.588C123.238 200.534 123.028 199.895 122.974 199.272C122.92 198.648 122.974 198.163 123.212 198.069C123.309 197.988 123.38 197.873 123.413 197.743C123.463 197.599 123.505 197.452 123.539 197.302L123.574 197.154C123.7 196.58 123.803 195.853 123.874 195.254C123.915 194.932 123.942 194.645 123.964 194.452C123.964 194.348 123.964 194.269 123.964 194.225V194.185L124.591 194.15H125.187C126.799 194.076 129.568 193.997 130.62 194.21C131.068 194.309 131.413 194.804 131.61 195.467C131.738 195.928 131.813 196.405 131.834 196.887C131.873 197.497 131.833 198.11 131.713 198.708Z" fill="#FBBEBE"/>
<path d="M164.254 202.364C164.252 202.399 164.252 202.434 164.254 202.468C164.254 203.542 164.187 204.354 164.187 204.487C164.187 204.903 154.306 207.847 151.838 207.634C150.216 207.496 151.421 206.269 152.326 205.002C152.639 204.609 152.883 204.154 153.043 203.661C153.088 203.485 153.088 203.298 153.043 203.122C152.994 202.924 152.949 202.745 152.917 202.582C152.684 201.449 152.801 201.098 153.043 200.821C153.189 200.619 153.299 200.389 153.37 200.143C153.444 199.916 153.491 199.68 153.509 199.44C153.568 198.901 153.438 198.358 153.146 197.921C152.384 196.803 155.999 196.204 155.999 196.204H162.866C163.537 196.204 163.896 197.253 164.075 198.609C164.073 198.623 164.073 198.639 164.075 198.653C164.124 199.049 164.165 199.47 164.187 199.9C164.209 200.331 164.227 200.712 164.232 201.108C164.236 201.503 164.254 201.964 164.254 202.364Z" fill="#FBBEBE"/>
<path d="M134.248 234.088C134.248 234.088 126.634 236.067 127.409 235.572C127.7 235.369 127.767 234.686 127.74 233.914C127.728 233.532 127.698 233.15 127.65 232.771C127.552 231.895 127.409 231.163 127.409 231.163C127.409 231.163 131.4 230.218 132.824 230.639C133.081 230.739 133.313 230.907 133.5 231.127C133.686 231.348 133.821 231.615 133.894 231.905C133.917 231.962 133.936 232.02 133.953 232.079C134.137 232.729 134.236 233.406 134.248 234.088Z" fill="#FBBEBE"/>
<path opacity="0.1" d="M140.026 67.7382C141.07 67.3473 141.988 66.6446 142.992 66.1399C143.995 65.6352 145.164 65.3284 146.181 65.7936C146.698 66.0652 147.171 66.4316 147.578 66.8772C148.474 67.753 149.37 68.6289 150.212 69.5641C151.027 70.5837 151.948 71.4924 152.958 72.2708C155.309 73.8591 158.297 73.5029 161.02 73.0278C161.572 72.9621 162.109 72.7949 162.61 72.533C163.806 71.8106 164.268 70.0589 163.985 68.5992C163.703 67.1395 162.848 65.8678 161.938 64.7445C159.328 61.5191 156.146 58.9189 152.59 57.1045C148.819 55.1895 144.331 54.2345 140.568 56.1594C139.424 56.7746 138.368 57.5714 137.433 58.5246C136.125 59.8112 132.743 63.0819 133.491 65.2938C134.315 67.7827 138.078 68.4606 140.026 67.7382Z" fill="black"/>
<path d="M140.026 67.4215C141.07 67.0356 141.988 66.328 142.992 65.8233C143.995 65.3185 145.164 65.0167 146.181 65.4769C146.697 65.7521 147.169 66.1181 147.578 66.5605C148.474 67.4364 149.37 68.3122 150.212 69.2474C151.025 70.2684 151.947 71.1772 152.958 71.9541C155.309 73.5425 158.297 73.1862 161.02 72.7112C161.572 72.6478 162.11 72.4804 162.61 72.2164C163.806 71.4989 164.268 69.7423 163.985 68.2825C163.703 66.8228 162.848 65.5511 161.938 64.4279C159.328 61.2026 156.147 58.6039 152.59 56.7928C148.819 54.8778 144.331 53.9228 140.568 55.8427C139.425 56.4597 138.369 57.2563 137.433 58.2079C136.125 59.4945 132.743 62.7702 133.491 64.9821C134.315 67.471 138.078 68.1489 140.026 67.4215Z" fill="#3F3D56"/>
<path opacity="0.1" d="M162.619 71.5632C162.12 71.8277 161.584 71.9951 161.034 72.058C158.31 72.5528 155.327 72.8843 152.971 71.3009C151.956 70.5158 151.029 69.5988 150.212 68.5695C149.37 67.6293 148.47 66.7585 147.578 65.8826C147.17 65.4371 146.698 65.0693 146.181 64.794C145.159 64.3338 143.99 64.6357 142.987 65.1453C141.984 65.655 141.07 66.3527 140.026 66.7436C138.078 67.4661 134.315 66.7882 133.473 64.3091C133.433 64.189 133.405 64.0646 133.388 63.938C133.343 64.2706 133.372 64.6104 133.473 64.9276C134.315 67.4017 138.078 68.0846 140.026 67.3621C141.07 66.9712 141.988 66.2686 142.987 65.7639C143.986 65.2591 145.159 64.9524 146.181 65.4175C146.698 65.6892 147.171 66.0556 147.578 66.5012C148.474 67.377 149.37 68.2528 150.212 69.188C151.027 70.2077 151.948 71.1163 152.958 71.8947C155.309 73.4831 158.292 73.1268 161.02 72.6518C161.57 72.5863 162.106 72.4191 162.606 72.157C163.663 71.5236 164.142 70.0985 164.053 68.7625C164.048 69.3252 163.914 69.8773 163.663 70.3671C163.412 70.8569 163.053 71.2685 162.619 71.5632Z" fill="black"/>
<path opacity="0.1" d="M124.036 194.502C123.93 195.452 123.764 196.393 123.539 197.317C123.741 196.378 123.89 195.426 123.986 194.467L124.036 194.502Z" fill="black"/>
<path opacity="0.1" d="M131.211 199.762C130.257 200.494 127.789 201.86 127.409 201.741C127.028 201.622 124.273 200.692 123.601 200.588C122.929 200.484 122.755 198.277 123.212 198.069C123.309 197.988 123.38 197.873 123.413 197.743C123.367 197.893 123.313 198.04 123.252 198.183C122.732 199.42 123.7 200.494 123.7 200.494L127.65 201.622L131.373 199.376C132.268 198.015 131.265 194.878 130.754 194.368C130.244 193.858 124.139 194.368 124.139 194.368L124.004 194.225V194.185L124.631 194.15H125.227C126.84 194.076 129.608 193.997 130.66 194.21C132.161 194.512 132.161 199.029 131.211 199.762Z" fill="black"/>
<path opacity="0.1" d="M162.879 196.194H156.012C156.012 196.194 152.398 196.793 153.159 197.911C153.921 199.029 153.329 200.494 153.056 200.811C152.783 201.127 152.667 201.548 153.056 203.121C153.446 204.695 149.365 207.426 151.833 207.634C154.301 207.842 164.183 204.903 164.183 204.487C164.183 204.072 164.716 196.194 162.879 196.194ZM163.806 204.339C163.806 204.735 154.494 207.501 152.16 207.308C149.827 207.115 153.679 204.542 153.312 203.057C152.944 201.573 153.052 201.177 153.312 200.88C153.571 200.583 154.127 199.198 153.41 198.144C152.693 197.09 156.098 196.526 156.098 196.526H162.57C164.308 196.521 163.806 203.943 163.806 204.339Z" fill="black"/>
<path opacity="0.1" d="M132.824 230.624C131.399 230.203 127.409 231.148 127.409 231.148C127.409 231.148 128.17 235.033 127.409 235.557C126.647 236.082 134.253 234.073 134.253 234.073C134.253 234.073 134.253 231.044 132.824 230.624ZM127.525 235.473C128.26 234.978 127.525 231.213 127.525 231.213C127.525 231.213 131.382 230.302 132.757 230.718C134.132 231.133 134.132 234.063 134.132 234.063C134.132 234.063 126.786 235.978 127.525 235.473Z" fill="black"/>
<path opacity="0.1" d="M164.25 201.098L152.931 202.582L164.205 199.9C164.227 200.291 164.245 200.687 164.25 201.098Z" fill="black"/>
<path d="M152.828 202.285L164.586 199.49L164.836 200.707L152.828 202.285Z" fill="#3F3D56"/>
<path opacity="0.1" d="M164.254 202.364C164.252 202.399 164.252 202.434 164.254 202.468L152.317 205.002C152.63 204.609 152.874 204.154 153.034 203.661L164.254 202.364Z" fill="black"/>
<path d="M151.036 203.582L165.369 201.919L151.417 204.883L151.036 203.582Z" fill="#3F3D56"/>
<path opacity="0.1" d="M164.088 198.599L153.522 199.43C153.504 199.67 153.458 199.906 153.383 200.133L164.093 198.648L164.088 198.599Z" fill="black"/>
<path d="M152.828 199.173L164.836 198.228L152.649 199.92L152.828 199.173Z" fill="#3F3D56"/>
<path opacity="0.1" d="M131.856 196.872L123.574 197.169C123.7 196.595 123.803 195.867 123.874 195.269L131.632 195.452C131.76 195.913 131.836 196.39 131.856 196.872Z" fill="black"/>
<path d="M122.956 194.932L134.253 195.194L132.873 196.526L122.956 196.877V194.932Z" fill="#3F3D56"/>
<path opacity="0.1" d="M131.713 198.708C131.655 198.989 131.555 199.259 131.417 199.504L125.805 201.221C124.932 200.939 123.964 200.637 123.601 200.583C123.238 200.529 123.028 199.89 122.974 199.267L131.713 198.708Z" fill="black"/>
<path d="M121.474 199.074L134.633 198.228L122.567 201.919L121.474 199.074Z" fill="#3F3D56"/>
<path opacity="0.1" d="M133.953 232.064L127.74 233.899C127.728 233.517 127.698 233.135 127.65 232.756C129.384 232.499 132.273 232.108 133.894 231.89C133.916 231.947 133.936 232.005 133.953 232.064Z" fill="black"/>
<rect y="352" width="289" height="37" fill="#C4C4C4"/>
<path d="M16.75 362.141C17.8125 362.141 18.8398 362.207 19.832 362.34C20.832 362.465 21.7266 362.684 22.5156 362.996C23.3125 363.301 23.9648 363.715 24.4727 364.238C24.9883 364.762 25.2891 365.414 25.375 366.195L22.3281 367.039C22.3281 366.57 22.168 366.188 21.8477 365.891C21.5352 365.586 21.1172 365.348 20.5938 365.176C20.0781 364.996 19.4844 364.871 18.8125 364.801C18.1484 364.73 17.4609 364.695 16.75 364.695C16.0547 364.695 15.3711 364.727 14.6992 364.789C14.0273 364.852 13.4219 364.969 12.8828 365.141C12.3516 365.312 11.9219 365.551 11.5938 365.855C11.2656 366.16 11.1016 366.555 11.1016 367.039V369.828H25.375V375.898C25.375 376.422 25.2578 376.891 25.0234 377.305C24.7969 377.711 24.4805 378.066 24.0742 378.371C23.6758 378.668 23.1992 378.922 22.6445 379.133C22.0977 379.336 21.5039 379.5 20.8633 379.625C20.2305 379.75 19.5625 379.84 18.8594 379.895C18.1562 379.949 17.4531 379.977 16.75 379.977C16.0312 379.977 15.3242 379.949 14.6289 379.895C13.9336 379.84 13.2734 379.75 12.6484 379.625C12.0234 379.5 11.4414 379.336 10.9023 379.133C10.3711 378.922 9.90234 378.668 9.49609 378.371C9.08984 378.066 8.76172 377.711 8.51172 377.305C8.26172 376.898 8.10938 376.43 8.05469 375.898L11.1016 375.055C11.1016 375.539 11.2656 375.934 11.5938 376.238C11.9219 376.543 12.3516 376.781 12.8828 376.953C13.4219 377.125 14.0273 377.242 14.6992 377.305C15.3711 377.367 16.0547 377.398 16.75 377.398C17.4609 377.398 18.1484 377.367 18.8125 377.305C19.4844 377.234 20.0781 377.113 20.5938 376.941C21.1172 376.762 21.5352 376.52 21.8477 376.215C22.168 375.91 22.3281 375.523 22.3281 375.055V372.195H8.05469V366.195C8.05469 365.672 8.16797 365.211 8.39453 364.812C8.62891 364.406 8.94531 364.055 9.34375 363.758C9.75 363.453 10.2305 363.199 10.7852 362.996C11.3398 362.785 11.9375 362.617 12.5781 362.492C13.2266 362.367 13.9023 362.277 14.6055 362.223C15.3164 362.168 16.0312 362.141 16.75 362.141ZM34.9141 362.188C36.125 362.188 37.3984 362.23 38.7344 362.316C40.0703 362.402 41.4766 362.57 42.9531 362.82V365.797C42.4297 365.648 41.832 365.508 41.1602 365.375C40.582 365.266 39.8867 365.16 39.0742 365.059C38.2617 364.957 37.3438 364.891 36.3203 364.859V380.023H33.5312V364.859C32.5078 364.891 31.5898 364.957 30.7773 365.059C29.9648 365.16 29.2695 365.266 28.6914 365.375C28.0195 365.508 27.4219 365.648 26.8984 365.797V362.82C28.3594 362.57 29.7656 362.402 31.1172 362.316C32.4688 362.23 33.7344 362.188 34.9141 362.188ZM53.4062 361.695C53.8906 361.695 54.3828 361.746 54.8828 361.848C55.3828 361.941 55.8281 362.07 56.2188 362.234C56.9062 363.438 57.5312 364.664 58.0938 365.914C58.6641 367.156 59.1719 368.438 59.6172 369.758C59.9219 369.797 60.2305 369.84 60.543 369.887C60.8555 369.926 61.1719 369.969 61.4922 370.016V373.016L60.4844 372.734C60.7656 373.898 61.0039 375.086 61.1992 376.297C61.3945 377.508 61.5391 378.742 61.6328 380H58.8438C58.7266 378.656 58.5312 377.328 58.2578 376.016C57.9844 374.703 57.6719 373.445 57.3203 372.242C56.5625 372.18 55.8398 372.133 55.1523 372.102C54.4727 372.07 53.8906 372.055 53.4062 372.055C52.7578 372.055 52.1133 372.066 51.4727 372.09C50.832 372.113 50.1875 372.156 49.5391 372.219C49.1875 373.422 48.8711 374.68 48.5898 375.992C48.3164 377.305 48.125 378.641 48.0156 380H45.2266C45.3125 378.742 45.4492 377.512 45.6367 376.309C45.832 375.105 46.0703 373.922 46.3516 372.758L45.4375 373.016V370.016L47.2422 369.758C47.6797 368.438 48.1797 367.156 48.7422 365.914C49.3125 364.664 49.9453 363.438 50.6406 362.234C51.0312 362.07 51.4727 361.941 51.9648 361.848C52.457 361.746 52.9375 361.695 53.4062 361.695ZM53.4062 369.406C53.875 369.406 54.3594 369.414 54.8594 369.43C55.3594 369.438 55.875 369.461 56.4062 369.5C56.0078 368.414 55.6133 367.473 55.2227 366.676C54.8398 365.871 54.5078 365.25 54.2266 364.812C54.0859 364.75 53.9531 364.707 53.8281 364.684C53.7031 364.66 53.5625 364.648 53.4062 364.648C53.1562 364.648 52.8984 364.703 52.6328 364.812C52.3516 365.25 52.0156 365.871 51.625 366.676C51.2344 367.473 50.8438 368.414 50.4531 369.5C50.9688 369.461 51.4727 369.438 51.9648 369.43C52.4648 369.414 52.9453 369.406 53.4062 369.406ZM71.5703 362.094C72.3516 362.094 73.1484 362.133 73.9609 362.211C74.7812 362.281 75.5781 362.41 76.3516 362.598C77.125 362.777 77.8516 363.031 78.5312 363.359C79.2109 363.68 79.8047 364.09 80.3125 364.59C80.8281 365.082 81.2344 365.676 81.5312 366.371C81.8281 367.059 81.9766 367.867 81.9766 368.797C81.9766 370.078 81.7461 371.16 81.2852 372.043C80.8242 372.918 80.1953 373.625 79.3984 374.164C79.7344 374.68 80.0234 375.219 80.2656 375.781C80.5078 376.344 80.7031 376.891 80.8516 377.422C81.0078 377.945 81.1211 378.434 81.1914 378.887C81.2617 379.34 81.2969 379.719 81.2969 380.023H78.2969C78.2969 379.547 78.2578 379.098 78.1797 378.676C78.1016 378.246 77.9922 377.84 77.8516 377.457C77.7109 377.066 77.5469 376.699 77.3594 376.355C77.1797 376.012 76.9844 375.68 76.7734 375.359C76.0312 375.57 75.2461 375.723 74.418 375.816C73.5898 375.902 72.7266 375.945 71.8281 375.945C71.2891 375.945 70.7422 375.93 70.1875 375.898C69.6328 375.867 69.0859 375.828 68.5469 375.781V379.977H65.6406V362.773C65.8125 362.719 66.0859 362.652 66.4609 362.574C66.8438 362.496 67.293 362.422 67.8086 362.352C68.332 362.281 68.9141 362.223 69.5547 362.176C70.1953 362.121 70.8672 362.094 71.5703 362.094ZM72.4141 364.672C71.8984 364.672 71.4062 364.695 70.9375 364.742C70.4688 364.781 70.0586 364.828 69.707 364.883C69.2852 364.945 68.8984 365.016 68.5469 365.094V373.109C68.7969 373.164 69.0742 373.211 69.3789 373.25C69.6367 373.289 69.9375 373.324 70.2812 373.355C70.625 373.379 70.9922 373.391 71.3828 373.391C71.8906 373.391 72.4258 373.379 72.9883 373.355C73.5586 373.324 74.1211 373.258 74.6758 373.156C75.2383 373.055 75.7695 372.906 76.2695 372.711C76.7773 372.508 77.2227 372.242 77.6055 371.914C77.9961 371.578 78.3047 371.164 78.5312 370.672C78.7656 370.18 78.8828 369.586 78.8828 368.891C78.8828 368.312 78.7891 367.805 78.6016 367.367C78.4141 366.93 78.1602 366.555 77.8398 366.242C77.5195 365.93 77.1445 365.672 76.7148 365.469C76.293 365.266 75.8398 365.105 75.3555 364.988C74.8789 364.871 74.3867 364.789 73.8789 364.742C73.3789 364.695 72.8906 364.672 72.4141 364.672ZM91.375 362.188C92.5859 362.188 93.8594 362.23 95.1953 362.316C96.5312 362.402 97.9375 362.57 99.4141 362.82V365.797C98.8906 365.648 98.293 365.508 97.6211 365.375C97.043 365.266 96.3477 365.16 95.5352 365.059C94.7227 364.957 93.8047 364.891 92.7812 364.859V380.023H89.9922V364.859C88.9688 364.891 88.0508 364.957 87.2383 365.059C86.4258 365.16 85.7305 365.266 85.1523 365.375C84.4805 365.508 83.8828 365.648 83.3594 365.797V362.82C84.8203 362.57 86.2266 362.402 87.5781 362.316C88.9297 362.23 90.1953 362.188 91.375 362.188ZM119.125 362.188C120.336 362.188 121.609 362.23 122.945 362.316C124.281 362.402 125.688 362.57 127.164 362.82V365.797C126.641 365.648 126.043 365.508 125.371 365.375C124.793 365.266 124.098 365.16 123.285 365.059C122.473 364.957 121.555 364.891 120.531 364.859V380.023H117.742V364.859C116.719 364.891 115.801 364.957 114.988 365.059C114.176 365.16 113.48 365.266 112.902 365.375C112.23 365.508 111.633 365.648 111.109 365.797V362.82C112.57 362.57 113.977 362.402 115.328 362.316C116.68 362.23 117.945 362.188 119.125 362.188ZM134.102 362.328C134.062 362.68 134.027 363.055 133.996 363.453C133.973 363.852 133.961 364.25 133.961 364.648C133.961 365.32 134.047 365.914 134.219 366.43C134.398 366.938 134.641 367.395 134.945 367.801C135.25 368.199 135.602 368.559 136 368.879C136.406 369.191 136.836 369.484 137.289 369.758C137.742 369.484 138.172 369.191 138.578 368.879C138.984 368.559 139.34 368.199 139.645 367.801C139.957 367.395 140.203 366.938 140.383 366.43C140.57 365.914 140.664 365.32 140.664 364.648C140.664 364.25 140.648 363.852 140.617 363.453C140.586 363.055 140.547 362.68 140.5 362.328C141.141 362.352 141.75 362.395 142.328 362.457C142.914 362.512 143.43 362.57 143.875 362.633C144.398 362.711 144.883 362.789 145.328 362.867V365.844C145.219 365.812 145.074 365.773 144.895 365.727C144.715 365.68 144.527 365.633 144.332 365.586C144.137 365.539 143.945 365.496 143.758 365.457C143.578 365.418 143.43 365.391 143.312 365.375C143.305 366.141 143.207 366.82 143.02 367.414C142.832 368.008 142.574 368.539 142.246 369.008C141.926 369.477 141.551 369.891 141.121 370.25C140.691 370.609 140.234 370.938 139.75 371.234L138.695 371.844V377.398C139.719 377.367 140.637 377.301 141.449 377.199C142.262 377.098 142.957 376.992 143.535 376.883C144.207 376.75 144.805 376.609 145.328 376.461V379.438C143.867 379.688 142.465 379.855 141.121 379.941C139.777 380.027 138.516 380.07 137.336 380.07C136.133 380.07 134.855 380.027 133.504 379.941C132.16 379.855 130.75 379.688 129.273 379.438V376.461C129.797 376.609 130.395 376.75 131.066 376.883C131.645 376.992 132.34 377.098 133.152 377.199C133.965 377.301 134.883 377.367 135.906 377.398V371.844L134.875 371.234C134.383 370.938 133.922 370.609 133.492 370.25C133.062 369.891 132.688 369.477 132.367 369.008C132.047 368.539 131.793 368.008 131.605 367.414C131.418 366.82 131.32 366.141 131.312 365.375C131.195 365.391 131.043 365.418 130.855 365.457C130.676 365.496 130.484 365.539 130.281 365.586C130.086 365.633 129.895 365.68 129.707 365.727C129.527 365.773 129.383 365.812 129.273 365.844V362.867C129.719 362.789 130.203 362.711 130.727 362.633C131.172 362.57 131.684 362.512 132.262 362.457C132.848 362.395 133.461 362.352 134.102 362.328ZM154.914 362.094C155.695 362.094 156.492 362.133 157.305 362.211C158.125 362.281 158.922 362.41 159.695 362.598C160.469 362.777 161.195 363.031 161.875 363.359C162.555 363.68 163.148 364.09 163.656 364.59C164.172 365.082 164.578 365.676 164.875 366.371C165.172 367.059 165.32 367.867 165.32 368.797C165.32 369.742 165.191 370.574 164.934 371.293C164.684 372.012 164.328 372.637 163.867 373.168C163.414 373.699 162.871 374.145 162.238 374.504C161.613 374.855 160.926 375.141 160.176 375.359C159.426 375.57 158.629 375.723 157.785 375.816C156.941 375.902 156.078 375.945 155.195 375.945C154.641 375.945 154.09 375.93 153.543 375.898C152.996 375.867 152.445 375.828 151.891 375.781V379.977H148.984V362.773C149.156 362.719 149.43 362.652 149.805 362.574C150.188 362.496 150.637 362.422 151.152 362.352C151.676 362.281 152.258 362.223 152.898 362.176C153.539 362.121 154.211 362.094 154.914 362.094ZM155.758 364.672C155.242 364.672 154.75 364.695 154.281 364.742C153.812 364.781 153.402 364.828 153.051 364.883C152.629 364.945 152.242 365.016 151.891 365.094V373.109C152.141 373.164 152.418 373.211 152.723 373.25C152.98 373.289 153.281 373.324 153.625 373.355C153.969 373.379 154.336 373.391 154.727 373.391C155.234 373.391 155.77 373.379 156.332 373.355C156.902 373.324 157.465 373.258 158.02 373.156C158.582 373.055 159.113 372.906 159.613 372.711C160.121 372.508 160.566 372.242 160.949 371.914C161.34 371.578 161.648 371.164 161.875 370.672C162.109 370.18 162.227 369.586 162.227 368.891C162.227 368.312 162.133 367.805 161.945 367.367C161.758 366.93 161.504 366.555 161.184 366.242C160.863 365.93 160.488 365.672 160.059 365.469C159.637 365.266 159.184 365.105 158.699 364.988C158.223 364.871 157.73 364.789 157.223 364.742C156.723 364.695 156.234 364.672 155.758 364.672ZM175.047 362.164C176.258 362.164 177.535 362.207 178.879 362.293C180.223 362.379 181.625 362.547 183.086 362.797V365.773C182.562 365.625 181.965 365.484 181.293 365.352C180.715 365.242 180.02 365.137 179.207 365.035C178.395 364.934 177.477 364.867 176.453 364.836V377.328C177.477 377.297 178.395 377.23 179.207 377.129C180.02 377.027 180.715 376.922 181.293 376.812C181.965 376.68 182.562 376.539 183.086 376.391V379.367C181.625 379.617 180.223 379.785 178.879 379.871C177.535 379.957 176.258 380 175.047 380C173.867 380 172.605 379.957 171.262 379.871C169.918 379.785 168.508 379.617 167.031 379.367V376.391C167.555 376.539 168.152 376.68 168.824 376.812C169.402 376.922 170.098 377.027 170.91 377.129C171.723 377.23 172.641 377.297 173.664 377.328V364.836C172.641 364.867 171.723 364.934 170.91 365.035C170.098 365.137 169.402 365.242 168.824 365.352C168.152 365.484 167.555 365.625 167.031 365.773V362.797C168.508 362.547 169.918 362.379 171.262 362.293C172.605 362.207 173.867 362.164 175.047 362.164ZM199.656 375.383V362.328C200.328 362.352 200.957 362.395 201.543 362.457C202.137 362.512 202.66 362.57 203.113 362.633C203.637 362.711 204.125 362.789 204.578 362.867V365.844C203.953 365.656 203.234 365.492 202.422 365.352V377.164C202.844 377.102 203.23 377.027 203.582 376.941C203.941 376.855 204.273 376.766 204.578 376.672V379.438C204.016 379.531 203.504 379.609 203.043 379.672C202.582 379.734 202.152 379.785 201.754 379.824C201.363 379.863 200.996 379.895 200.652 379.918C200.309 379.941 199.977 379.961 199.656 379.977L191.805 366.945V379.977C191.484 379.961 191.152 379.941 190.809 379.918C190.465 379.895 190.098 379.863 189.707 379.824C189.316 379.785 188.891 379.734 188.43 379.672C187.969 379.609 187.461 379.531 186.906 379.438V376.461C187.484 376.648 188.203 376.812 189.062 376.953V365.117C188.648 365.188 188.262 365.266 187.902 365.352C187.543 365.438 187.211 365.523 186.906 365.609V362.867C187.344 362.789 187.824 362.711 188.348 362.633C188.793 362.57 189.312 362.512 189.906 362.457C190.5 362.395 191.133 362.352 191.805 362.328L199.656 375.383ZM216.531 362.141C217.711 362.141 218.824 362.246 219.871 362.457C220.918 362.668 221.832 362.961 222.613 363.336C223.402 363.711 224.027 364.16 224.488 364.684C224.949 365.207 225.18 365.781 225.18 366.406V368.305H222.133V367.297C222.133 366.961 222.004 366.641 221.746 366.336C221.488 366.031 221.117 365.762 220.633 365.527C220.156 365.293 219.57 365.109 218.875 364.977C218.188 364.836 217.406 364.766 216.531 364.766C215.688 364.766 214.922 364.832 214.234 364.965C213.547 365.098 212.957 365.277 212.465 365.504C211.973 365.73 211.594 366 211.328 366.312C211.062 366.617 210.93 366.945 210.93 367.297V374.891C210.93 375.234 211.062 375.562 211.328 375.875C211.594 376.18 211.973 376.449 212.465 376.684C212.957 376.91 213.547 377.09 214.234 377.223C214.922 377.355 215.688 377.422 216.531 377.422C217.406 377.422 218.188 377.355 218.875 377.223C219.57 377.082 220.156 376.895 220.633 376.66C221.117 376.426 221.488 376.156 221.746 375.852C222.004 375.547 222.133 375.227 222.133 374.891V373.203C221.406 373.203 220.754 373.223 220.176 373.262C219.605 373.301 219.117 373.34 218.711 373.379C218.234 373.434 217.812 373.492 217.445 373.555L217.75 370.719C218.945 370.625 220.07 370.578 221.125 370.578C222.539 370.578 223.891 370.648 225.18 370.789V375.781C225.18 376.406 224.949 376.98 224.488 377.504C224.027 378.02 223.402 378.465 222.613 378.84C221.832 379.215 220.918 379.508 219.871 379.719C218.824 379.922 217.711 380.023 216.531 380.023C215.352 380.023 214.238 379.922 213.191 379.719C212.145 379.508 211.227 379.215 210.438 378.84C209.656 378.465 209.035 378.02 208.574 377.504C208.113 376.98 207.883 376.406 207.883 375.781V366.406C207.883 365.781 208.113 365.207 208.574 364.684C209.035 364.16 209.656 363.711 210.438 363.336C211.227 362.961 212.145 362.668 213.191 362.457C214.238 362.246 215.352 362.141 216.531 362.141ZM231.062 376.062C231.344 376.062 231.621 376.086 231.895 376.133C232.176 376.18 232.426 376.25 232.645 376.344C232.863 376.438 233.039 376.559 233.172 376.707C233.312 376.855 233.383 377.031 233.383 377.234V378.945C233.383 379.133 233.312 379.293 233.172 379.426C233.039 379.559 232.863 379.668 232.645 379.754C232.426 379.84 232.176 379.902 231.895 379.941C231.621 379.98 231.344 380 231.062 380C230.781 380 230.504 379.98 230.23 379.941C229.957 379.902 229.711 379.84 229.492 379.754C229.273 379.668 229.098 379.559 228.965 379.426C228.832 379.293 228.766 379.133 228.766 378.945V377.234C228.766 377.031 228.832 376.855 228.965 376.707C229.098 376.559 229.273 376.438 229.492 376.344C229.711 376.25 229.957 376.18 230.23 376.133C230.504 376.086 230.781 376.062 231.062 376.062ZM239.125 376.062C239.406 376.062 239.684 376.086 239.957 376.133C240.238 376.18 240.488 376.25 240.707 376.344C240.926 376.438 241.102 376.559 241.234 376.707C241.375 376.855 241.445 377.031 241.445 377.234V378.945C241.445 379.133 241.375 379.293 241.234 379.426C241.102 379.559 240.926 379.668 240.707 379.754C240.488 379.84 240.238 379.902 239.957 379.941C239.684 379.98 239.406 380 239.125 380C238.844 380 238.566 379.98 238.293 379.941C238.02 379.902 237.773 379.84 237.555 379.754C237.336 379.668 237.16 379.559 237.027 379.426C236.895 379.293 236.828 379.133 236.828 378.945V377.234C236.828 377.031 236.895 376.855 237.027 376.707C237.16 376.559 237.336 376.438 237.555 376.344C237.773 376.25 238.02 376.18 238.293 376.133C238.566 376.086 238.844 376.062 239.125 376.062ZM247.188 376.062C247.469 376.062 247.746 376.086 248.02 376.133C248.301 376.18 248.551 376.25 248.77 376.344C248.988 376.438 249.164 376.559 249.297 376.707C249.438 376.855 249.508 377.031 249.508 377.234V378.945C249.508 379.133 249.438 379.293 249.297 379.426C249.164 379.559 248.988 379.668 248.77 379.754C248.551 379.84 248.301 379.902 248.02 379.941C247.746 379.98 247.469 380 247.188 380C246.906 380 246.629 379.98 246.355 379.941C246.082 379.902 245.836 379.84 245.617 379.754C245.398 379.668 245.223 379.559 245.09 379.426C244.957 379.293 244.891 379.133 244.891 378.945V377.234C244.891 377.031 244.957 376.855 245.09 376.707C245.223 376.559 245.398 376.438 245.617 376.344C245.836 376.25 246.082 376.18 246.355 376.133C246.629 376.086 246.906 376.062 247.188 376.062ZM255.25 376.062C255.531 376.062 255.809 376.086 256.082 376.133C256.363 376.18 256.613 376.25 256.832 376.344C257.051 376.438 257.227 376.559 257.359 376.707C257.5 376.855 257.57 377.031 257.57 377.234V378.945C257.57 379.133 257.5 379.293 257.359 379.426C257.227 379.559 257.051 379.668 256.832 379.754C256.613 379.84 256.363 379.902 256.082 379.941C255.809 379.98 255.531 380 255.25 380C254.969 380 254.691 379.98 254.418 379.941C254.145 379.902 253.898 379.84 253.68 379.754C253.461 379.668 253.285 379.559 253.152 379.426C253.02 379.293 252.953 379.133 252.953 378.945V377.234C252.953 377.031 253.02 376.855 253.152 376.707C253.285 376.559 253.461 376.438 253.68 376.344C253.898 376.25 254.145 376.18 254.418 376.133C254.691 376.086 254.969 376.062 255.25 376.062ZM263.312 376.062C263.594 376.062 263.871 376.086 264.145 376.133C264.426 376.18 264.676 376.25 264.895 376.344C265.113 376.438 265.289 376.559 265.422 376.707C265.562 376.855 265.633 377.031 265.633 377.234V378.945C265.633 379.133 265.562 379.293 265.422 379.426C265.289 379.559 265.113 379.668 264.895 379.754C264.676 379.84 264.426 379.902 264.145 379.941C263.871 379.98 263.594 380 263.312 380C263.031 380 262.754 379.98 262.48 379.941C262.207 379.902 261.961 379.84 261.742 379.754C261.523 379.668 261.348 379.559 261.215 379.426C261.082 379.293 261.016 379.133 261.016 378.945V377.234C261.016 377.031 261.082 376.855 261.215 376.707C261.348 376.559 261.523 376.438 261.742 376.344C261.961 376.25 262.207 376.18 262.48 376.133C262.754 376.086 263.031 376.062 263.312 376.062ZM271.375 376.062C271.656 376.062 271.934 376.086 272.207 376.133C272.488 376.18 272.738 376.25 272.957 376.344C273.176 376.438 273.352 376.559 273.484 376.707C273.625 376.855 273.695 377.031 273.695 377.234V378.945C273.695 379.133 273.625 379.293 273.484 379.426C273.352 379.559 273.176 379.668 272.957 379.754C272.738 379.84 272.488 379.902 272.207 379.941C271.934 379.98 271.656 380 271.375 380C271.094 380 270.816 379.98 270.543 379.941C270.27 379.902 270.023 379.84 269.805 379.754C269.586 379.668 269.41 379.559 269.277 379.426C269.145 379.293 269.078 379.133 269.078 378.945V377.234C269.078 377.031 269.145 376.855 269.277 376.707C269.41 376.559 269.586 376.438 269.805 376.344C270.023 376.25 270.27 376.18 270.543 376.133C270.816 376.086 271.094 376.062 271.375 376.062ZM279.438 376.062C279.719 376.062 279.996 376.086 280.27 376.133C280.551 376.18 280.801 376.25 281.02 376.344C281.238 376.438 281.414 376.559 281.547 376.707C281.688 376.855 281.758 377.031 281.758 377.234V378.945C281.758 379.133 281.688 379.293 281.547 379.426C281.414 379.559 281.238 379.668 281.02 379.754C280.801 379.84 280.551 379.902 280.27 379.941C279.996 379.98 279.719 380 279.438 380C279.156 380 278.879 379.98 278.605 379.941C278.332 379.902 278.086 379.84 277.867 379.754C277.648 379.668 277.473 379.559 277.34 379.426C277.207 379.293 277.141 379.133 277.141 378.945V377.234C277.141 377.031 277.207 376.855 277.34 376.707C277.473 376.559 277.648 376.438 277.867 376.344C278.086 376.25 278.332 376.18 278.605 376.133C278.879 376.086 279.156 376.062 279.438 376.062Z" fill="#0C0B0B"/>
<defs>
<linearGradient id="paint0_linear" x1="137.151" y1="328.801" x2="137.151" y2="0.0613698" gradientUnits="userSpaceOnUse">
<stop stop-color="#808080" stop-opacity="0.25"/>
<stop offset="0.54" stop-color="#808080" stop-opacity="0.12"/>
<stop offset="1" stop-color="#808080" stop-opacity="0.1"/>
</linearGradient>
<linearGradient id="paint1_linear" x1="184.38" y1="594.797" x2="184.38" y2="593.071" gradientUnits="userSpaceOnUse">
<stop stop-color="#808080" stop-opacity="0.25"/>
<stop offset="0.54" stop-color="#808080" stop-opacity="0.12"/>
<stop offset="1" stop-color="#808080" stop-opacity="0.1"/>
</linearGradient>
</defs>
</svg>
