<svg width="425" height="297" viewBox="0 0 619 297" fill="none" xmlns="http://www.w3.org/2000/svg">
<g id="Component 2">
<g id="Rectangle 1" filter="url(#filter0_d)">
<path d="M4 24H550V265H4V24Z" fill="#FF9447"/>
</g>
<g id="Component 1">
<g id="Ellipse 4" filter="url(#filter1_d)">
<circle cx="470.5" cy="144.5" r="144.5" fill="#FF9447"/>
</g>
<g id="undraw_At_work_re_qotl 1" clip-path="url(#clip0)">
<path id="Vector" d="M557.16 227.92L475.155 266.38C474.134 266.857 473.018 266.752 472.052 266.089C471.086 265.426 470.349 264.258 470.003 262.842L432.018 106.881C431.674 105.464 431.749 103.916 432.227 102.575C432.705 101.235 433.546 100.213 434.567 99.7324L516.571 61.2731C517.593 60.796 518.709 60.9004 519.674 61.5636C520.64 62.2267 521.377 63.3944 521.723 64.8104L559.709 220.771C560.052 222.189 559.977 223.737 559.499 225.077C559.021 226.418 558.18 227.44 557.16 227.92Z" fill="#E6E6E6"/>
<path id="Vector_2" d="M555.067 225.04L475.56 262.328C474.87 262.651 474.116 262.58 473.463 262.132C472.811 261.684 472.313 260.895 472.079 259.938L434.937 107.443C434.705 106.485 434.756 105.439 435.079 104.534C435.402 103.628 435.97 102.937 436.66 102.613L516.167 65.3247C516.857 65.0023 517.611 65.0728 518.263 65.5209C518.916 65.969 519.414 66.7579 519.648 67.7147L556.789 220.21C557.021 221.167 556.97 222.214 556.648 223.119C556.325 224.025 555.756 224.716 555.067 225.04Z" fill="white"/>
<path id="Vector_3" d="M535.079 272.664H448.518C447.441 272.662 446.407 272.067 445.645 271.01C444.883 269.952 444.455 268.519 444.454 267.024V102.396C444.455 100.901 444.883 99.467 445.645 98.4097C446.407 97.3524 447.441 96.7576 448.518 96.7559H535.079C536.157 96.7576 537.19 97.3524 537.952 98.4097C538.714 99.467 539.143 100.901 539.144 102.396V267.024C539.143 268.519 538.714 269.952 537.952 271.01C537.19 272.067 536.157 272.662 535.079 272.664Z" fill="#CCCCCC"/>
<path id="Vector_4" d="M533.761 269.005H449.836C449.108 269.004 448.41 268.602 447.895 267.888C447.38 267.173 447.091 266.205 447.09 265.194V104.225C447.091 103.215 447.38 102.246 447.895 101.532C448.41 100.817 449.108 100.415 449.836 100.414H533.761C534.489 100.415 535.187 100.817 535.702 101.532C536.217 102.246 536.507 103.215 536.507 104.225V265.194C536.507 266.205 536.217 267.173 535.702 267.888C535.187 268.602 534.489 269.004 533.761 269.005Z" fill="white"/>
<g id="messages">
<path id="Vector_5" d="M515.883 146.076H460.452C459.985 146.076 459.537 145.819 459.207 145.361C458.877 144.902 458.691 144.281 458.691 143.633C458.691 142.985 458.877 142.364 459.207 141.905C459.537 141.447 459.985 141.19 460.452 141.19H515.883C516.349 141.19 516.797 141.447 517.128 141.905C517.458 142.364 517.643 142.985 517.643 143.633C517.643 144.281 517.458 144.902 517.128 145.361C516.797 145.819 516.349 146.076 515.883 146.076Z" fill="#CCCCCC"/>
<path id="Vector_6" d="M523.145 154.322H460.452C460.221 154.322 459.992 154.259 459.778 154.136C459.565 154.013 459.371 153.833 459.207 153.606C459.044 153.38 458.914 153.11 458.825 152.814C458.737 152.517 458.691 152.2 458.691 151.879C458.691 151.558 458.737 151.24 458.825 150.944C458.914 150.647 459.044 150.378 459.207 150.151C459.371 149.924 459.565 149.744 459.778 149.622C459.992 149.499 460.221 149.436 460.452 149.436H523.145C523.612 149.436 524.06 149.693 524.39 150.151C524.721 150.609 524.906 151.231 524.906 151.879C524.906 152.527 524.721 153.148 524.39 153.606C524.06 154.065 523.612 154.322 523.145 154.322Z" fill="#CA4FA7"/>
<path id="Vector_7" d="M515.883 183.03H460.452C459.986 183.029 459.538 182.772 459.208 182.313C458.879 181.855 458.693 181.234 458.693 180.587C458.693 179.939 458.879 179.318 459.208 178.86C459.538 178.402 459.986 178.144 460.452 178.144H515.883C516.349 178.144 516.797 178.401 517.128 178.859C517.458 179.317 517.643 179.939 517.643 180.587C517.643 181.235 517.458 181.856 517.128 182.314C516.797 182.773 516.349 183.03 515.883 183.03Z" fill="#CA4FA7"/>
<path id="Vector_8" d="M523.145 191.276H460.452C459.986 191.275 459.538 191.018 459.208 190.559C458.879 190.101 458.693 189.48 458.693 188.833C458.693 188.185 458.879 187.564 459.208 187.106C459.538 186.648 459.986 186.39 460.452 186.389H523.145C523.612 186.389 524.06 186.647 524.39 187.105C524.721 187.563 524.906 188.185 524.906 188.833C524.906 189.481 524.721 190.102 524.39 190.56C524.06 191.019 523.612 191.276 523.145 191.276Z" fill="#CCCCCC"/>
<path id="Vector_9" d="M515.883 219.984H460.452C459.986 219.983 459.538 219.725 459.208 219.267C458.879 218.809 458.693 218.188 458.693 217.541C458.693 216.893 458.879 216.272 459.208 215.814C459.538 215.356 459.986 215.098 460.452 215.097H515.883C516.349 215.097 516.797 215.355 517.128 215.813C517.458 216.271 517.643 216.893 517.643 217.541C517.643 218.189 517.458 218.81 517.128 219.268C516.797 219.726 516.349 219.984 515.883 219.984Z" fill="#CA4FA7"/>
<path id="Vector_10" d="M523.145 228.23H460.452C459.985 228.23 459.537 227.972 459.207 227.514C458.877 227.056 458.691 226.435 458.691 225.787C458.691 225.139 458.877 224.517 459.207 224.059C459.537 223.601 459.985 223.343 460.452 223.343H523.145C523.612 223.343 524.06 223.601 524.39 224.059C524.721 224.517 524.906 225.139 524.906 225.787C524.906 226.435 524.721 227.056 524.39 227.514C524.06 227.972 523.612 228.23 523.145 228.23Z" fill="#CCCCCC"/>
</g>
<path id="Vector_11" d="M426.623 173.967H413.88C413.618 173.967 413.367 173.822 413.181 173.565C412.996 173.308 412.892 172.959 412.891 172.596V164.974C412.891 162.265 413.667 159.668 415.047 157.752C416.427 155.837 418.299 154.761 420.251 154.761C422.203 154.761 424.075 155.837 425.456 157.752C426.836 159.668 427.611 162.265 427.611 164.974V172.596C427.611 172.959 427.507 173.308 427.321 173.565C427.136 173.822 426.885 173.967 426.623 173.967Z" fill="#2F2E41"/>
<path id="Vector_12" d="M446.29 213.744C445.967 213.721 445.652 213.599 445.367 213.389C445.082 213.178 444.834 212.884 444.639 212.525C444.445 212.167 444.31 211.754 444.243 211.316C444.177 210.877 444.18 210.424 444.253 209.987L437.613 204.176L441.329 201.841L447.065 207.718C447.586 207.937 448.03 208.414 448.314 209.057C448.598 209.7 448.702 210.466 448.606 211.209C448.511 211.952 448.222 212.62 447.795 213.087C447.368 213.554 446.833 213.788 446.29 213.744Z" fill="#FFB8B8"/>
<path id="Vector_13" d="M441.707 209.002C441.482 208.973 441.267 208.855 441.088 208.661L422.82 189.012L420.465 183.199C420.237 182.64 420.134 181.999 420.171 181.359C420.207 180.718 420.381 180.108 420.669 179.605C420.868 179.255 421.117 178.967 421.401 178.757C421.684 178.548 421.996 178.422 422.316 178.387C422.637 178.352 422.959 178.41 423.262 178.556C423.566 178.703 423.844 178.934 424.08 179.237L444.442 202.153C444.574 202.277 444.686 202.436 444.773 202.621C444.86 202.805 444.919 203.012 444.948 203.229C444.976 203.446 444.973 203.669 444.939 203.885C444.904 204.1 444.839 204.304 444.747 204.484L442.795 208.309C442.702 208.492 442.584 208.647 442.446 208.764C442.309 208.881 442.156 208.958 441.996 208.991C441.9 209.01 441.804 209.014 441.707 209.002Z" fill="#2F2E41"/>
<path id="Vector_14" d="M398.655 265.259L401.152 266.661L406.237 253.964L402.552 251.895L398.655 265.259Z" fill="#FFB8B8"/>
<path id="Vector_15" d="M398.348 263.77L403.265 266.531L403.266 266.531C403.677 266.762 404.052 267.103 404.368 267.535C404.685 267.967 404.937 268.481 405.11 269.049C405.283 269.616 405.374 270.225 405.378 270.841C405.381 271.457 405.298 272.068 405.131 272.639L405.09 272.78L397.039 268.26L398.348 263.77Z" fill="#2F2E41"/>
<path id="Vector_16" d="M427.749 269.157L430.442 269.157L431.724 254.74L427.749 254.74L427.749 269.157Z" fill="#FFB8B8"/>
<path id="Vector_17" d="M427.062 267.937L432.366 267.936H432.367C432.811 267.936 433.25 268.058 433.66 268.293C434.07 268.529 434.443 268.875 434.757 269.31C435.071 269.746 435.32 270.263 435.49 270.832C435.66 271.401 435.747 272.011 435.747 272.627V272.78L427.062 272.78L427.062 267.937Z" fill="#2F2E41"/>
<path id="Vector_18" d="M429.968 261.007C428.898 261.007 427.849 260.402 427.27 259.999C427.12 259.896 426.989 259.747 426.888 259.562C426.786 259.377 426.716 259.163 426.684 258.935L421.006 219.215L406.278 257.455C406.145 257.799 405.923 258.059 405.656 258.182C402.484 259.653 400.754 257.339 400.157 256.276C400.036 256.058 399.96 255.798 399.938 255.524C399.917 255.25 399.95 254.973 400.034 254.723L406.856 234.16L410.98 214.626L415.149 200.331L415.24 200.345L429.181 202.381L430.876 215.318L432.584 258.394C432.599 258.737 432.528 259.077 432.384 259.357C432.111 259.888 431.747 260.316 431.326 260.604C430.904 260.892 430.438 261.03 429.968 261.007Z" fill="#2F2E41"/>
<path id="Vector_19" d="M422.068 173.852C425.048 173.852 427.464 170.499 427.464 166.364C427.464 162.228 425.048 158.876 422.068 158.876C419.088 158.876 416.672 162.228 416.672 166.364C416.672 170.499 419.088 173.852 422.068 173.852Z" fill="#FFB8B8"/>
<path id="Vector_20" d="M423.944 208.327C421.595 208.327 418.688 206.419 415.275 202.63L415.217 202.565L417.63 176.144L417.743 176.138C421.195 175.965 424.004 177.182 426.33 179.866L426.35 179.895L428.236 183.259L428.237 183.321L428.503 203.987L428.496 204.016C428.247 204.962 427.844 205.816 427.318 206.511C426.793 207.207 426.16 207.726 425.467 208.028C424.973 208.231 424.46 208.332 423.944 208.327Z" fill="#CA4FA7"/>
<path id="Vector_21" d="M427.419 220.679C427.155 220.678 426.899 220.557 426.69 220.334C426.481 220.111 426.331 219.798 426.263 219.445L422.949 202.04L420.85 217.897C420.795 218.318 420.625 218.692 420.375 218.943C420.125 219.193 419.815 219.3 419.51 219.24L410.371 217.47C410.196 217.436 410.03 217.35 409.882 217.216C409.735 217.083 409.611 216.906 409.519 216.698C409.426 216.49 409.368 216.257 409.348 216.014C409.329 215.772 409.348 215.526 409.404 215.295L414.027 196.387L412.992 185.309C412.886 184.168 412.951 183.009 413.185 181.905C413.418 180.802 413.815 179.777 414.349 178.898C414.883 178.018 415.543 177.302 416.287 176.795C417.031 176.288 417.843 176.002 418.672 175.954L418.764 175.949L423.16 190.661L423.859 186.78L424.954 178.427L425.117 178.558C426.662 179.794 427.932 181.595 428.789 183.765C429.646 185.935 430.056 188.39 429.975 190.862L429.698 199.709L432.154 217.772C432.212 218.204 432.145 218.65 431.967 219.013C431.789 219.376 431.514 219.626 431.204 219.709L427.641 220.65C427.568 220.67 427.494 220.679 427.419 220.679Z" fill="#2F2E41"/>
<path id="Vector_22" d="M429.352 165.736H421.561L421.481 164.184L421.081 165.736H419.882L419.723 162.659L418.931 165.736H416.61V165.584C416.612 163.442 417.226 161.388 418.317 159.874C419.409 158.359 420.888 157.507 422.432 157.505H423.53C425.074 157.507 426.554 158.359 427.645 159.874C428.737 161.388 429.351 163.442 429.352 165.584V165.736Z" fill="#2F2E41"/>
<path id="Vector_23" d="M424.132 212.213C424.131 212.702 424.207 213.186 424.353 213.631C424.499 214.076 424.712 214.472 424.978 214.793C425.244 215.113 425.557 215.351 425.895 215.489C426.233 215.628 426.588 215.663 426.937 215.594C427.259 216.62 427.789 217.492 428.464 218.105C429.138 218.717 429.926 219.044 430.732 219.044C431.275 219.044 431.814 218.895 432.316 218.607C432.818 218.318 433.274 217.895 433.659 217.362C434.043 216.828 434.348 216.195 434.556 215.498C434.764 214.801 434.871 214.054 434.871 213.3V208.323C434.871 207.043 434.123 206.614 433.199 206.614H428.264C427.341 206.614 426.593 207.043 426.593 208.323V208.798C425.94 208.799 425.315 209.159 424.853 209.8C424.392 210.44 424.132 211.308 424.132 212.213ZM424.803 212.213C424.803 211.555 424.992 210.924 425.328 210.458C425.663 209.992 426.118 209.73 426.593 209.73V213.3C426.593 213.768 426.634 214.234 426.715 214.689C426.674 214.692 426.634 214.697 426.593 214.697C426.118 214.696 425.663 214.435 425.328 213.969C424.992 213.503 424.803 212.872 424.803 212.213H424.803Z" fill="#CA4FA7"/>
<path id="Vector_24" d="M426.113 211.392C425.963 210.996 425.752 210.649 425.495 210.378C425.238 210.106 424.942 209.916 424.626 209.821C424.31 209.726 423.983 209.728 423.669 209.828C423.354 209.927 423.058 210.121 422.803 210.395L416.222 204.454L416.247 210.115L422.493 214.889C422.854 215.453 423.351 215.814 423.891 215.903C424.431 215.992 424.976 215.804 425.422 215.373C425.869 214.942 426.186 214.298 426.313 213.565C426.44 212.831 426.369 212.058 426.113 211.392H426.113Z" fill="#FFB8B8"/>
<path id="Vector_25" d="M418.988 214.848C418.726 214.848 418.474 214.703 418.289 214.446L409.91 202.818C409.642 202.449 409.447 201.991 409.342 201.488C409.238 200.985 409.228 200.453 409.313 199.943C410.03 195.591 411.778 185.194 412.516 182.634C413.054 180.709 414.051 179.098 415.341 178.068L415.374 178.045L418.027 178.725L418.26 190.079L415.056 199.608L421.87 208.534C422.049 208.767 422.159 209.085 422.178 209.425C422.197 209.765 422.124 210.103 421.972 210.372L419.77 214.316C419.684 214.47 419.575 214.597 419.451 214.688C419.327 214.779 419.19 214.833 419.05 214.845C419.03 214.847 419.009 214.848 418.988 214.848Z" fill="#2F2E41"/>
<path id="Vector_26" d="M430.722 208.184C432.421 208.184 433.798 207.911 433.798 207.575C433.798 207.238 432.421 206.965 430.722 206.965C429.024 206.965 427.647 207.238 427.647 207.575C427.647 207.911 429.024 208.184 430.722 208.184Z" fill="#2F2E41"/>
</g>
</g>
</g>
<defs>
<filter id="filter0_d" x="0" y="24" width="554" height="249" filterUnits="userSpaceOnUse" color-interpolation-filters="sRGB">
<feFlood flood-opacity="0" result="BackgroundImageFix"/>
<feColorMatrix in="SourceAlpha" type="matrix" values="0 0 0 0 0 0 0 0 0 0 0 0 0 0 0 0 0 0 127 0"/>
<feOffset dy="4"/>
<feGaussianBlur stdDeviation="2"/>
<feColorMatrix type="matrix" values="0 0 0 0 0 0 0 0 0 0 0 0 0 0 0 0 0 0 0.69 0"/>
<feBlend mode="normal" in2="BackgroundImageFix" result="effect1_dropShadow"/>
<feBlend mode="normal" in="SourceGraphic" in2="effect1_dropShadow" result="shape"/>
</filter>
<filter id="filter1_d" x="322" y="0" width="297" height="297" filterUnits="userSpaceOnUse" color-interpolation-filters="sRGB">
<feFlood flood-opacity="0" result="BackgroundImageFix"/>
<feColorMatrix in="SourceAlpha" type="matrix" values="0 0 0 0 0 0 0 0 0 0 0 0 0 0 0 0 0 0 127 0"/>
<feOffset dy="4"/>
<feGaussianBlur stdDeviation="2"/>
<feColorMatrix type="matrix" values="0 0 0 0 0 0 0 0 0 0 0 0 0 0 0 0 0 0 0.71 0"/>
<feBlend mode="normal" in2="BackgroundImageFix" result="effect1_dropShadow"/>
<feBlend mode="normal" in="SourceGraphic" in2="effect1_dropShadow" result="shape"/>
</filter>
<clipPath id="clip0">
<rect width="178.227" height="212.145" fill="white" transform="translate(381.696 60.9758)"/>
</clipPath>
</defs>
</svg>
