<svg width="425" height="297" viewBox="0 0 626 297" fill="none" xmlns="http://www.w3.org/2000/svg">
<g id="Component 2">
<g id="Rectangle 1" filter="url(#filter0_d)">
<rect x="4" y="21" width="546" height="244" fill="#FF9447"/>
</g>
<g id="Component 1">
<g id="Ellipse 3" filter="url(#filter1_d)">
<circle cx="477.5" cy="144.5" r="144.5" fill="#FF9447"/>
</g>
<g id="undraw_Co_workers_re_1i6i 1" clip-path="url(#clip0)">
<path id="Vector" d="M559.44 174.022C559.632 174.971 559.811 175.925 559.978 176.883H503.075V174.022H559.44Z" fill="#E6E6E6"/>
<path id="Vector_2" d="M557.626 166.48C556.71 163.196 555.642 159.983 554.427 156.858C554.054 155.895 553.666 154.941 553.263 153.997C553.197 153.835 553.126 153.673 553.056 153.511V174.803H557.973V167.747L557.626 166.48Z" fill="#E6E6E6"/>
<path id="Vector_3" d="M554.427 156.858H553.056V153.997H553.263C553.666 154.941 554.054 155.894 554.427 156.858Z" fill="#CCCCCC"/>
<path id="Vector_4" d="M557.626 166.48H553.056V169.341H557.973V167.747L557.626 166.48Z" fill="#CCCCCC"/>
<path id="Vector_5" d="M550.393 150.097H545.477V174.803H550.393V150.097Z" fill="#E6E6E6"/>
<path id="Vector_6" d="M550.393 153.998H545.477V156.859H550.393V153.998Z" fill="#CCCCCC"/>
<path id="Vector_7" d="M550.393 166.481H545.477V169.342H550.393V166.481Z" fill="#CCCCCC"/>
<path id="Vector_8" d="M527.973 149.953H510.336C510.065 149.954 509.804 150.091 509.612 150.335C509.42 150.579 509.312 150.91 509.311 151.255V173.646C509.311 173.773 509.326 173.9 509.354 174.022C509.418 174.29 509.548 174.524 509.725 174.691C509.902 174.857 510.116 174.947 510.336 174.948H527.973C528.193 174.947 528.407 174.857 528.584 174.691C528.761 174.524 528.891 174.29 528.955 174.022C528.983 173.9 528.998 173.773 528.998 173.646V151.255C528.998 150.91 528.89 150.579 528.697 150.335C528.505 150.091 528.245 149.954 527.973 149.953Z" fill="#E6E6E6"/>
<path id="Vector_9" d="M526.72 151.544H511.59C511.318 151.545 511.057 151.682 510.865 151.926C510.673 152.17 510.565 152.501 510.564 152.846V172.055C510.565 172.4 510.673 172.731 510.865 172.975C511.057 173.219 511.318 173.356 511.59 173.357H526.72C526.991 173.356 527.252 173.219 527.444 172.975C527.636 172.731 527.745 172.4 527.745 172.055V152.846C527.745 152.501 527.636 152.17 527.444 151.926C527.252 151.682 526.991 151.545 526.72 151.544Z" fill="white"/>
<path id="Vector_10" d="M524.081 154.894H514.228C513.957 154.895 513.696 155.032 513.504 155.276C513.312 155.52 513.203 155.851 513.203 156.196V168.705C513.203 169.05 513.312 169.381 513.504 169.625C513.696 169.869 513.957 170.006 514.228 170.007H524.081C524.353 170.005 524.613 169.867 524.805 169.623C524.997 169.38 525.105 169.05 525.106 168.705V156.196C525.106 155.851 524.998 155.52 524.806 155.276C524.613 155.032 524.353 154.895 524.081 154.894Z" fill="#CCCCCC"/>
<path id="Vector_11" d="M523.474 166.499L521.393 161.922C521.353 161.834 521.295 161.761 521.226 161.711C521.156 161.66 521.078 161.633 520.998 161.633C520.918 161.633 520.839 161.66 520.77 161.711C520.701 161.761 520.643 161.834 520.603 161.922L519.084 165.264L517.091 160.882C517.051 160.794 516.993 160.721 516.924 160.67C516.855 160.619 516.776 160.593 516.696 160.593C516.616 160.593 516.537 160.619 516.468 160.67C516.399 160.721 516.341 160.794 516.301 160.882L514.22 165.458L511.745 170.902H516.52L516.046 171.943H525.949L523.474 166.499Z" fill="white"/>
<path id="Vector_12" d="M522.739 159.459C523.531 159.459 524.173 158.644 524.173 157.639C524.173 156.634 523.531 155.818 522.739 155.818C521.947 155.818 521.305 156.634 521.305 157.639C521.305 158.644 521.947 159.459 522.739 159.459Z" fill="white"/>
<path id="Vector_13" d="M561.616 194.238C561.6 193.115 561.565 191.998 561.511 190.888C561.489 190.355 561.461 189.826 561.427 189.296H551.807C551.535 189.297 551.275 189.434 551.082 189.678C550.89 189.922 550.782 190.253 550.782 190.598V212.989C550.781 213.092 550.791 213.194 550.811 213.293C550.865 213.577 550.992 213.83 551.173 214.011C551.354 214.192 551.577 214.29 551.807 214.291H560.675C560.721 213.961 560.764 213.626 560.803 213.293C560.828 213.096 560.853 212.897 560.876 212.7C560.93 212.228 560.983 211.757 561.031 211.285C561.099 210.643 561.161 209.998 561.215 209.35C561.416 207.027 561.545 204.679 561.603 202.306V202.303C561.623 201.409 561.634 200.511 561.634 199.61V196.138C561.634 195.502 561.63 194.868 561.616 194.238Z" fill="#E6E6E6"/>
<path id="Vector_14" d="M561.616 194.238C561.6 193.115 561.565 191.998 561.511 190.888H553.06C552.788 190.888 552.528 191.025 552.336 191.269C552.143 191.513 552.035 191.844 552.035 192.189V211.398C552.035 211.743 552.143 212.074 552.336 212.318C552.528 212.562 552.788 212.699 553.06 212.7H560.876C560.93 212.228 560.983 211.757 561.031 211.285C561.099 210.643 561.161 209.998 561.215 209.35C561.416 207.027 561.545 204.679 561.603 202.306V202.303C561.623 201.409 561.634 200.511 561.634 199.61V196.138C561.634 195.502 561.63 194.868 561.616 194.238Z" fill="white"/>
<path id="Vector_15" d="M561.616 194.238H555.699C555.427 194.238 555.166 194.375 554.974 194.619C554.782 194.863 554.674 195.194 554.673 195.539V208.048C554.674 208.393 554.782 208.724 554.974 208.968C555.166 209.212 555.427 209.35 555.699 209.35H561.215C561.416 207.027 561.545 204.679 561.603 202.306V202.303C561.623 201.409 561.634 200.511 561.634 199.61V196.138C561.634 195.502 561.63 194.868 561.616 194.238Z" fill="#CCCCCC"/>
<path id="Vector_16" d="M561.603 202.306C561.546 204.678 561.417 207.026 561.215 209.35C561.161 209.998 561.099 210.643 561.031 211.285H557.517L557.991 210.247H553.215L554.673 207.039L555.69 204.802L557.772 200.226C557.812 200.138 557.869 200.064 557.939 200.013C558.008 199.962 558.086 199.935 558.167 199.935C558.247 199.935 558.325 199.962 558.394 200.013C558.464 200.064 558.521 200.138 558.561 200.226L560.554 204.609L561.603 202.306Z" fill="white"/>
<path id="Vector_17" d="M544.338 137.615H503.075V134.754H542.292C542.989 135.688 543.671 136.642 544.338 137.615Z" fill="#E6E6E6"/>
<path id="Vector_18" d="M524.992 117.773C526.674 118.947 528.313 120.206 529.91 121.548V135.532H524.992V117.773Z" fill="#E6E6E6"/>
<path id="Vector_19" d="M529.909 127.211H524.992V130.072H529.909V127.211Z" fill="#CCCCCC"/>
<path id="Vector_20" d="M537.488 128.896V135.532H532.571V123.9C533.717 124.961 534.838 126.066 535.932 127.212C536.456 127.762 536.975 128.323 537.488 128.896Z" fill="#E6E6E6"/>
<path id="Vector_21" d="M537.488 128.896V130.07H532.571V127.212H535.932C536.456 127.762 536.975 128.323 537.488 128.896Z" fill="#CCCCCC"/>
<path id="Vector_22" d="M519.973 114.585C521.274 115.328 522.553 116.121 523.81 116.963L522.798 119.555L519.437 128.178L518.437 130.741L516.872 134.754L516.527 135.636L515.126 134.754L512.123 132.865L514.03 127.97H514.032L515.03 125.407L518.394 116.783L519.383 114.249L519.394 114.22L519.973 114.585Z" fill="#E6E6E6"/>
<path id="Vector_23" d="M523.798 116.989L522.798 119.555L518.394 116.783L519.383 114.249L519.394 114.22L519.973 114.585L523.798 116.989Z" fill="#CCCCCC"/>
<path id="Vector_24" d="M515.031 125.408L514.031 127.972L518.437 130.741L519.436 128.177L515.031 125.408Z" fill="#CCCCCC"/>
<path id="Vector_25" d="M560.803 213.293C560.764 213.626 560.721 213.961 560.675 214.291C560.596 214.916 560.509 215.535 560.415 216.154H503.075V213.293H560.803Z" fill="#E6E6E6"/>
<path id="Vector_26" d="M529.909 189.367H524.992V214.074H529.909V189.367Z" fill="#E6E6E6"/>
<path id="Vector_27" d="M529.909 193.268H524.992V196.129H529.909V193.268Z" fill="#CCCCCC"/>
<path id="Vector_28" d="M529.909 205.752H524.992V208.612H529.909V205.752Z" fill="#CCCCCC"/>
<path id="Vector_29" d="M537.488 189.367H532.572V214.074H537.488V189.367Z" fill="#E6E6E6"/>
<path id="Vector_30" d="M537.488 193.268H532.572V196.129H537.488V193.268Z" fill="#CCCCCC"/>
<path id="Vector_31" d="M537.488 205.752H532.572V208.612H537.488V205.752Z" fill="#CCCCCC"/>
<path id="Vector_32" d="M520.756 189.265L512.122 211.407L516.528 214.176L525.162 192.034L520.756 189.265Z" fill="#E6E6E6"/>
<path id="Vector_33" d="M519.393 192.761L518.393 195.325L522.799 198.094L523.799 195.53L519.393 192.761Z" fill="#CCCCCC"/>
<path id="Vector_34" d="M515.03 203.948L514.031 206.512L518.437 209.281L519.436 206.718L515.03 203.948Z" fill="#CCCCCC"/>
<path id="Vector_35" d="M465.364 224.318C465.57 224.468 465.766 224.639 465.95 224.828L486.236 216.813L487.38 210.423L495.201 211.355L494.042 222.916C493.948 223.851 493.619 224.721 493.102 225.397C492.586 226.072 491.911 226.517 491.178 226.665L467.305 231.463C466.956 232.535 466.359 233.447 465.593 234.077C464.827 234.708 463.927 235.027 463.014 234.993C462.102 234.958 461.219 234.572 460.483 233.885C459.747 233.198 459.194 232.243 458.896 231.147C458.599 230.051 458.571 228.866 458.817 227.749C459.063 226.632 459.57 225.637 460.272 224.896C460.975 224.155 461.838 223.702 462.747 223.599C463.657 223.496 464.57 223.747 465.364 224.318Z" fill="#FFB8B8"/>
<path id="Vector_36" d="M498.816 215.188L498.682 212.272V212.269L498.645 211.471L498.249 202.884C498.367 201.094 497.922 199.318 497.011 197.943C496.101 196.569 494.798 195.709 493.388 195.551C492.983 195.505 492.575 195.518 492.172 195.591C490.974 195.806 489.869 196.528 489.036 197.641C488.203 198.753 487.69 200.19 487.58 201.719L486.758 206.064L485.32 213.663C485.218 214.195 485.26 214.755 485.44 215.252C485.619 215.75 485.925 216.156 486.309 216.406C486.53 216.554 486.773 216.644 487.022 216.672L489.419 216.944L491.727 217.204L494.391 217.505L494.582 217.525L495.074 217.583L496.722 217.768H496.726C497.002 217.796 497.278 217.75 497.538 217.632C497.798 217.515 498.036 217.328 498.235 217.086C498.38 216.906 498.502 216.699 498.597 216.472C498.763 216.079 498.839 215.634 498.816 215.188V215.188Z" fill="#6C63FF"/>
<path id="Vector_37" d="M521.077 179.829C521.077 189.73 513.866 188.232 504.971 188.232C496.075 188.232 488.864 189.73 488.864 179.829C488.864 169.928 492.387 152.377 504.971 152.377C517.988 152.377 521.077 169.928 521.077 179.829Z" fill="#2F2E41"/>
<path id="Vector_38" d="M512.58 184.186C516.813 178.812 516.813 170.1 512.58 164.726C508.348 159.353 501.486 159.353 497.253 164.726C493.021 170.1 493.021 178.812 497.253 184.186C501.486 189.559 508.348 189.559 512.58 184.186Z" fill="#FFB8B8"/>
<path id="Vector_39" d="M520.173 194C519.965 193.745 519.743 193.507 519.51 193.289C518.037 191.875 516.185 191.253 514.354 191.556L494.382 194.764C492.552 195.052 490.883 196.234 489.728 198.058C488.574 199.882 488.024 202.206 488.195 204.536C488.252 205.346 488.316 206.2 488.387 207.088C488.478 208.202 488.58 209.37 488.699 210.579C488.895 212.613 489.134 214.76 489.419 216.944C489.667 218.824 489.95 220.731 490.274 222.614C490.367 223.158 490.464 223.7 490.565 224.24C490.565 224.241 490.565 224.243 490.565 224.244C490.566 224.246 490.567 224.247 490.567 224.248C490.579 224.315 490.59 224.381 490.604 224.445C490.603 224.45 490.604 224.455 490.606 224.46C490.747 225.212 490.896 225.955 491.051 226.69C491.11 226.962 491.167 227.231 491.226 227.497C491.385 228.22 491.554 228.929 491.727 229.626C493.028 234.813 494.749 239.231 497.02 241.58C497.05 241.614 497.08 241.643 497.112 241.675L497.203 241.765L497.335 241.713L497.895 241.502L498.374 241.316L504.608 238.936L506.16 238.343L511.145 236.436H511.148L515.707 234.695L516.263 234.481L520.18 232.985L520.305 231.128L520.474 228.663L520.574 227.182L521.367 215.5L521.83 208.685L522.331 201.285C522.424 199.943 522.279 198.591 521.905 197.331C521.532 196.07 520.94 194.932 520.173 194Z" fill="#2F2E41"/>
<path id="Vector_40" d="M531.341 250.525C531.288 250.331 531.238 250.137 531.186 249.946C528.843 241.267 525.389 234.703 520.305 231.128C520.303 231.128 520.303 231.125 520.301 231.125L520.214 231.064L515.785 233.011L515.238 233.251L514.668 233.503L514.661 233.506L510.514 235.328L510.507 235.331L507.254 236.76H507.251L504.241 238.082H504.239L503.539 238.392L498.278 240.703L497.667 240.972L497.121 241.212L497.036 241.25L497.02 241.58L496.644 249.946L496.619 250.525L496.15 260.965L480.562 289H491.226C494.799 289.001 498.367 288.656 501.899 287.967L511.904 274.278C511.988 274.168 512.094 274.089 512.211 274.049C512.327 274.01 512.45 274.012 512.566 274.055C512.682 274.098 512.786 274.18 512.868 274.293C512.95 274.406 513.006 274.544 513.03 274.695L514.499 283.952C521.74 280.701 528.513 275.97 534.551 269.945C533.849 262.756 532.824 256.203 531.341 250.525Z" fill="#2F2E41"/>
<path id="Vector_41" d="M492.394 173.106H496.681L498.572 166.383L498.95 173.106H500.999L502.102 169.184L502.323 173.106H517.547C517.547 171.193 517.25 169.299 516.673 167.532C516.097 165.765 515.252 164.159 514.186 162.806C513.121 161.454 511.856 160.381 510.464 159.649C509.072 158.917 507.58 158.54 506.074 158.54H503.867C500.825 158.54 497.906 160.075 495.755 162.806C493.603 165.538 492.394 169.243 492.394 173.106Z" fill="#2F2E41"/>
<path id="Vector_42" d="M466.028 246.008C465.328 246.381 464.572 246.555 463.814 246.518C463.055 246.48 462.312 246.232 461.638 245.79C460.963 245.349 460.372 244.725 459.908 243.962C459.444 243.2 459.117 242.317 458.951 241.377L440.616 238.741L446.762 229.396L463.231 233.332C464.493 233.082 465.784 233.428 466.86 234.306C467.935 235.183 468.719 236.53 469.064 238.093C469.408 239.655 469.29 241.324 468.73 242.783C468.171 244.242 467.209 245.389 466.028 246.008L466.028 246.008Z" fill="#A0616A"/>
<path id="Vector_43" d="M456.142 228.712L448.393 226.953L447.83 226.826C447.38 226.724 446.953 226.502 446.575 226.176C446.198 225.849 445.879 225.424 445.64 224.93C445.401 224.436 445.247 223.883 445.188 223.308C445.129 222.733 445.167 222.148 445.299 221.593L449.104 205.54L449.218 205.063C449.693 203.022 449.608 200.838 448.978 198.866C448.347 196.895 447.208 195.254 445.747 194.212C444.759 193.514 443.656 193.116 442.526 193.048C441.396 192.98 440.269 193.243 439.233 193.818C438.196 194.393 437.278 195.264 436.55 196.363C435.821 197.461 435.303 198.759 435.033 200.154L430.18 225.301L430 226.233C429.661 227.988 429.624 229.815 429.892 231.589C430.159 233.364 430.725 235.044 431.551 236.516C432.376 237.987 433.442 239.216 434.675 240.117C435.909 241.019 437.281 241.572 438.698 241.739C438.713 241.742 438.727 241.742 438.743 241.745L441.648 242.072L445.417 242.497L450.157 243.032L454.579 243.532C455.159 243.599 455.737 243.387 456.198 242.938C456.66 242.489 456.972 241.836 457.072 241.108C457.079 241.068 457.083 241.027 457.088 240.987L458.027 232.088L458.036 232.007C458.117 231.254 457.965 230.49 457.612 229.875C457.259 229.261 456.732 228.844 456.142 228.712Z" fill="#CCCCCC"/>
<path id="Vector_44" d="M444.203 161.288C441.109 169.01 438.671 176.974 431.848 176.974C428.571 176.974 425.428 175.322 423.111 172.38C420.794 169.438 419.492 165.448 419.492 161.288C419.492 152.625 425.024 145.71 431.848 145.602C438.782 145.491 449.961 146.915 444.203 161.288Z" fill="#2F2E41"/>
<path id="Vector_45" d="M451.964 262.307L451.683 258.755L451.474 258.769L414.631 261.023L414.727 264.619L414.888 270.778C420.589 276.291 426.92 280.666 433.662 283.752L433.901 281.397C433.922 281.206 433.994 281.029 434.106 280.897C434.218 280.765 434.362 280.686 434.515 280.674C434.667 280.662 434.818 280.717 434.942 280.83C435.066 280.943 435.155 281.106 435.195 281.293L435.922 284.733C441.795 287.137 447.894 288.539 454.058 288.902L451.964 262.307Z" fill="#2F2E41"/>
<path id="Vector_46" d="M440.119 173.25C444.352 167.876 444.352 159.164 440.119 153.79C435.887 148.417 429.024 148.417 424.792 153.79C420.559 159.164 420.559 167.876 424.792 173.25C429.024 178.623 435.887 178.623 440.119 173.25Z" fill="#A0616A"/>
<path id="Vector_47" d="M454.08 258.995L451.932 250.525L451.895 250.38L451.786 249.946L451.173 247.533C450.975 246.749 450.785 245.962 450.61 245.173C450.448 244.461 450.297 243.747 450.157 243.032C449.956 242.037 449.774 241.038 449.61 240.035C449.054 236.665 448.683 233.25 448.5 229.814C448.45 228.863 448.414 227.909 448.393 226.953C448.259 221.096 448.675 215.239 449.63 209.506C450.462 204.549 450.018 199.383 448.363 194.77C446.708 190.158 443.93 186.341 440.438 183.884C438.147 182.276 435.611 181.31 433.001 181.052C432.821 181.034 432.641 181.02 432.459 181.005C429.702 180.784 426.941 181.352 424.38 182.667C421.818 183.982 419.523 186.01 417.662 188.602C416.665 189.981 415.799 191.503 415.082 193.138C413.093 197.688 412.346 202.946 412.958 208.092L415.52 229.924L414.936 239.115L414.248 249.946L414.212 250.525L413.478 262.073C413.443 262.611 413.546 263.149 413.771 263.608C413.996 264.066 414.331 264.421 414.727 264.619C414.958 264.737 415.206 264.797 415.456 264.795C415.492 264.795 415.526 264.795 415.563 264.792L451.964 262.307L452.296 262.284C452.6 262.264 452.896 262.156 453.161 261.967C453.426 261.779 453.654 261.516 453.827 261.198C453.999 260.88 454.112 260.516 454.156 260.134C454.2 259.752 454.174 259.362 454.08 258.995L454.08 258.995Z" fill="#CCCCCC"/>
<path id="Vector_48" d="M443.956 155.744C441.48 157.911 438.54 159.064 435.532 159.049C436.605 159.994 437.827 160.632 439.113 160.919C435.113 162.008 430.98 162.038 426.972 161.006C426.08 160.824 425.221 160.449 424.43 159.897C423.66 159.304 423.016 158.36 422.861 157.234C422.595 155.302 423.78 153.546 425.013 152.364C426.899 150.58 429.075 149.351 431.381 148.766C433.688 148.181 436.068 148.254 438.35 148.98C439.84 149.469 441.332 150.295 442.3 151.814C443.267 153.333 443.554 155.675 442.632 157.239L443.956 155.744Z" fill="#2F2E41"/>
<path id="Vector_49" d="M444.51 243.146C443.817 243.538 443.065 243.733 442.306 243.716C441.547 243.699 440.8 243.471 440.118 243.048C439.435 242.625 438.835 242.018 438.358 241.268C437.88 240.519 437.539 239.645 437.356 238.71L418.98 236.578L424.966 227.067L441.498 230.55C442.756 230.265 444.053 230.575 445.143 231.423C446.232 232.271 447.039 233.596 447.411 235.149C447.782 236.701 447.692 238.373 447.157 239.847C446.623 241.321 445.681 242.494 444.51 243.146L444.51 243.146Z" fill="#A0616A"/>
<path id="Vector_50" d="M434.334 226.126L430.18 225.301L425.99 224.468C425.538 224.379 425.107 224.169 424.724 223.853C424.341 223.537 424.015 223.121 423.768 222.634C423.52 222.146 423.357 221.598 423.288 221.025C423.22 220.451 423.247 219.866 423.369 219.307L427.006 202.673C427.446 200.62 427.324 198.439 426.66 196.485C425.996 194.532 424.83 192.922 423.351 191.92C422.352 191.244 421.243 190.872 420.112 190.834C418.98 190.797 417.857 191.094 416.832 191.703C415.804 192.303 414.899 193.197 414.189 194.316C413.479 195.435 412.984 196.748 412.742 198.152L408.155 224.364C407.846 226.132 407.842 227.964 408.142 229.735C408.442 231.505 409.041 233.173 409.895 234.623C410.75 236.073 411.842 237.271 413.095 238.136C414.349 239 415.735 239.511 417.158 239.633L433.024 240.984C433.604 241.034 434.178 240.806 434.632 240.345C435.086 239.883 435.387 239.223 435.476 238.493C435.482 238.453 435.485 238.412 435.489 238.372L436.275 229.45L436.282 229.369C436.35 228.614 436.185 227.854 435.822 227.25C435.459 226.645 434.926 226.243 434.334 226.126Z" fill="#CCCCCC"/>
<path id="Vector_51" d="M504.623 212.298L503.673 212.956L491.958 221.071L491.007 221.73C490.546 222.05 490.203 222.59 490.055 223.231C489.907 223.871 489.964 224.561 490.216 225.147L498.939 245.446C499.192 246.032 499.617 246.466 500.122 246.655C500.626 246.843 501.169 246.769 501.631 246.45L501.633 246.449L515.245 237.02L515.247 237.018C515.709 236.698 516.051 236.158 516.199 235.517C516.348 234.877 516.29 234.188 516.038 233.601L507.315 213.302C507.062 212.717 506.637 212.282 506.133 212.093C505.628 211.905 505.085 211.979 504.623 212.298Z" fill="#E6E6E6"/>
<path id="Vector_52" d="M504.897 212.934L503.771 213.714L492.407 221.586L491.281 222.366C490.952 222.595 490.708 222.979 490.603 223.435C490.497 223.891 490.538 224.382 490.717 224.8L499.441 245.099C499.62 245.516 499.923 245.825 500.283 245.959C500.642 246.093 501.028 246.041 501.357 245.814L501.36 245.812L514.971 236.383L514.974 236.382C515.302 236.153 515.546 235.769 515.652 235.313C515.757 234.857 515.716 234.366 515.537 233.948L506.814 213.65C506.634 213.232 506.331 212.923 505.972 212.789C505.612 212.655 505.226 212.707 504.897 212.934Z" fill="white"/>
<path id="Vector_53" d="M505.217 218.665C505.174 218.568 505.103 218.495 505.019 218.464C504.935 218.433 504.845 218.445 504.768 218.497L504.314 218.813L499.691 222.015C499.614 222.069 499.558 222.159 499.533 222.265C499.509 222.372 499.519 222.486 499.56 222.584C499.602 222.681 499.673 222.754 499.757 222.785C499.84 222.817 499.931 222.805 500.008 222.753L505.084 219.235C505.161 219.181 505.218 219.091 505.243 218.985C505.267 218.878 505.258 218.763 505.217 218.665Z" fill="#E6E6E6"/>
<path id="Vector_54" d="M506.946 219.079C506.925 219.031 506.897 218.988 506.864 218.953C506.83 218.919 506.791 218.893 506.75 218.878C506.708 218.863 506.665 218.858 506.622 218.864C506.579 218.87 506.537 218.887 506.499 218.914L500.226 223.259C500.188 223.285 500.155 223.321 500.128 223.364C500.1 223.407 500.08 223.456 500.068 223.509C500.056 223.562 500.052 223.617 500.057 223.672C500.061 223.726 500.075 223.779 500.095 223.828C500.116 223.876 500.144 223.918 500.178 223.953C500.212 223.987 500.25 224.013 500.292 224.028C500.334 224.044 500.377 224.049 500.42 224.043C500.463 224.037 500.505 224.02 500.543 223.994L500.835 223.791L502.66 222.527H502.662L506.814 219.649C506.852 219.623 506.886 219.587 506.914 219.544C506.941 219.501 506.962 219.452 506.974 219.399C506.986 219.346 506.99 219.29 506.985 219.235C506.981 219.18 506.967 219.127 506.946 219.079Z" fill="#E6E6E6"/>
<path id="Vector_55" d="M500.128 226.004L498.137 221.367C498.116 221.32 498.082 221.286 498.041 221.272C498.001 221.257 497.957 221.263 497.92 221.289L496.954 221.957L496.453 222.304L493.762 224.167L493.24 224.529C493.204 224.555 493.177 224.599 493.165 224.65C493.153 224.702 493.158 224.757 493.179 224.804L493.306 225.102L495.17 229.441C495.19 229.487 495.224 229.522 495.265 229.536C495.305 229.551 495.348 229.545 495.384 229.519L498.597 227.295L499.099 226.947L500.065 226.279C500.083 226.267 500.099 226.249 500.113 226.229C500.126 226.208 500.136 226.184 500.142 226.159C500.148 226.133 500.15 226.106 500.147 226.08C500.145 226.053 500.139 226.028 500.128 226.004Z" fill="#E6E6E6"/>
<path id="Vector_56" d="M507.734 224.549C507.693 224.452 507.622 224.38 507.538 224.348C507.455 224.317 507.365 224.329 507.288 224.382L500.402 229.152C500.341 229.194 500.292 229.26 500.262 229.339C500.233 229.419 500.223 229.508 500.235 229.594C500.24 229.639 500.252 229.683 500.27 229.722C500.287 229.762 500.309 229.798 500.336 229.829L500.338 229.832C500.389 229.89 500.453 229.927 500.521 229.937C500.589 229.947 500.658 229.931 500.719 229.89L507.605 225.119C507.643 225.093 507.676 225.057 507.703 225.014C507.73 224.971 507.751 224.921 507.763 224.868C507.775 224.816 507.778 224.76 507.774 224.705C507.769 224.651 507.755 224.597 507.734 224.549Z" fill="#E6E6E6"/>
<path id="Vector_57" d="M509.466 224.963C509.445 224.915 509.417 224.872 509.383 224.838C509.349 224.803 509.31 224.778 509.269 224.762C509.227 224.747 509.183 224.742 509.14 224.748C509.097 224.755 509.055 224.771 509.017 224.798L500.935 230.396C500.874 230.437 500.825 230.501 500.795 230.58C500.765 230.658 500.756 230.747 500.769 230.833V230.836C500.774 230.88 500.785 230.924 500.803 230.963C500.82 231.004 500.844 231.041 500.871 231.073C500.922 231.132 500.986 231.17 501.054 231.18C501.122 231.191 501.192 231.173 501.252 231.131L509.334 225.533C509.411 225.479 509.468 225.389 509.493 225.283C509.517 225.176 509.508 225.061 509.466 224.963Z" fill="#E6E6E6"/>
<path id="Vector_58" d="M498.095 233.795C498.869 233.795 499.497 232.999 499.497 232.016C499.497 231.033 498.869 230.237 498.095 230.237C497.321 230.237 496.694 231.033 496.694 232.016C496.694 232.999 497.321 233.795 498.095 233.795Z" fill="#E6E6E6"/>
<path id="Vector_59" d="M508.725 204.487L507.774 205.146L496.059 213.261L495.109 213.919C494.647 214.24 494.305 214.779 494.156 215.42C494.008 216.061 494.066 216.75 494.317 217.336L503.041 237.635C503.293 238.221 503.718 238.656 504.223 238.844C504.728 239.032 505.27 238.959 505.732 238.64L505.735 238.638L519.346 229.209L519.349 229.207C519.81 228.887 520.152 228.347 520.301 227.706C520.449 227.066 520.391 226.377 520.14 225.79L511.416 205.491C511.164 204.906 510.739 204.471 510.234 204.283C509.73 204.094 509.187 204.168 508.725 204.487Z" fill="#CCCCCC"/>
<path id="Vector_60" d="M508.998 205.123L507.872 205.903L496.508 213.775L495.382 214.556C495.053 214.784 494.81 215.168 494.704 215.624C494.598 216.081 494.64 216.571 494.819 216.989L503.542 237.288C503.722 237.705 504.025 238.014 504.384 238.149C504.743 238.283 505.13 238.23 505.459 238.003L505.461 238.001L519.073 228.573L519.075 228.571C519.404 228.343 519.648 227.958 519.753 227.502C519.859 227.046 519.818 226.555 519.639 226.137L510.915 205.839C510.735 205.422 510.432 205.112 510.073 204.978C509.714 204.844 509.327 204.896 508.998 205.123Z" fill="white"/>
<path id="Vector_61" d="M509.318 210.854C509.276 210.757 509.205 210.685 509.121 210.653C509.037 210.622 508.946 210.634 508.869 210.687L506.531 212.307L505.88 212.758L503.792 214.204C503.716 214.258 503.659 214.348 503.635 214.454C503.61 214.561 503.62 214.676 503.662 214.773C503.704 214.87 503.774 214.943 503.858 214.975C503.942 215.006 504.032 214.995 504.109 214.942L506.57 213.238L507.085 212.879L509.186 211.424C509.263 211.37 509.319 211.28 509.344 211.174C509.369 211.067 509.36 210.952 509.318 210.854Z" fill="#CCCCCC"/>
<path id="Vector_62" d="M511.047 211.268C511.027 211.22 510.999 211.177 510.965 211.143C510.932 211.108 510.893 211.083 510.851 211.067C510.81 211.052 510.766 211.047 510.723 211.053C510.68 211.059 510.639 211.076 510.601 211.103L507.34 213.362L506.839 213.71L504.328 215.448C504.29 215.475 504.256 215.51 504.229 215.553C504.202 215.596 504.182 215.645 504.17 215.698C504.157 215.751 504.154 215.806 504.158 215.861C504.163 215.915 504.176 215.968 504.197 216.017C504.218 216.065 504.246 216.108 504.279 216.142C504.313 216.176 504.352 216.202 504.394 216.218C504.435 216.233 504.479 216.238 504.522 216.232C504.565 216.226 504.607 216.209 504.645 216.183L507.156 214.444L507.657 214.097L510.915 211.838C510.954 211.812 510.988 211.776 511.015 211.733C511.043 211.691 511.063 211.641 511.075 211.588C511.088 211.535 511.092 211.479 511.087 211.424C511.082 211.37 511.069 211.316 511.047 211.268Z" fill="#CCCCCC"/>
<path id="Vector_63" d="M504.23 218.194L502.642 214.496L502.368 213.86L502.238 213.556C502.218 213.51 502.183 213.475 502.143 213.461C502.102 213.446 502.059 213.452 502.022 213.478L498.798 215.711L497.342 216.718C497.305 216.745 497.278 216.788 497.266 216.84C497.255 216.891 497.26 216.946 497.28 216.993L497.41 217.294L497.551 217.627L497.684 217.93V217.933L499.272 221.63C499.292 221.677 499.326 221.711 499.366 221.726C499.406 221.74 499.449 221.734 499.486 221.708L504.166 218.468C504.185 218.456 504.201 218.439 504.214 218.418C504.227 218.397 504.237 218.373 504.243 218.348C504.249 218.322 504.251 218.296 504.249 218.269C504.246 218.243 504.24 218.217 504.23 218.194Z" fill="#CA4FA7"/>
<path id="Vector_64" d="M511.836 216.738C511.794 216.641 511.724 216.569 511.64 216.537C511.556 216.506 511.466 216.518 511.389 216.571L509.332 217.997L508.83 218.344L506.843 219.718L504.503 221.341C504.465 221.367 504.431 221.403 504.404 221.446C504.377 221.489 504.356 221.538 504.344 221.591C504.332 221.644 504.328 221.7 504.333 221.755C504.337 221.809 504.35 221.863 504.371 221.911C504.392 221.959 504.42 222.002 504.454 222.037C504.488 222.072 504.526 222.097 504.568 222.113C504.61 222.129 504.654 222.134 504.697 222.128C504.74 222.122 504.782 222.105 504.82 222.079L509.147 219.082L509.648 218.735L511.706 217.308C511.744 217.282 511.778 217.246 511.805 217.203C511.832 217.16 511.852 217.111 511.864 217.058C511.876 217.005 511.88 216.949 511.875 216.894C511.87 216.84 511.857 216.787 511.836 216.738Z" fill="#CCCCCC"/>
<path id="Vector_65" d="M513.568 217.152C513.547 217.104 513.518 217.061 513.485 217.027C513.451 216.992 513.412 216.967 513.37 216.952C513.328 216.936 513.285 216.932 513.242 216.938C513.198 216.944 513.157 216.961 513.119 216.987L509.867 219.241L509.366 219.588L505.037 222.585C504.998 222.611 504.965 222.647 504.937 222.69C504.91 222.733 504.889 222.782 504.877 222.835C504.865 222.888 504.861 222.943 504.866 222.998C504.87 223.053 504.883 223.106 504.904 223.154C504.925 223.203 504.953 223.245 504.987 223.28C505.021 223.314 505.06 223.34 505.102 223.356C505.143 223.371 505.187 223.376 505.23 223.37C505.273 223.363 505.315 223.346 505.353 223.32L509.68 220.323L510.182 219.976L513.435 217.722C513.512 217.668 513.569 217.578 513.594 217.472C513.619 217.365 513.609 217.25 513.568 217.152Z" fill="#CCCCCC"/>
<path id="Vector_66" d="M502.197 225.984C502.971 225.984 503.598 225.188 503.598 224.205C503.598 223.223 502.971 222.426 502.197 222.426C501.423 222.426 500.795 223.223 500.795 224.205C500.795 225.188 501.423 225.984 502.197 225.984Z" fill="#CCCCCC"/>
<path id="Vector_67" d="M503.138 234.208C503.374 234.238 503.608 234.291 503.837 234.367L519.731 216.467L518.703 210.045L526.133 206.809L528.823 217.953C529.04 218.853 529.022 219.819 528.77 220.705C528.518 221.59 528.047 222.348 527.427 222.865L507.222 239.707C507.252 240.866 507.003 242.009 506.509 242.984C506.014 243.959 505.298 244.719 504.455 245.165C503.612 245.61 502.682 245.719 501.789 245.477C500.896 245.235 500.082 244.654 499.455 243.81C498.829 242.967 498.42 241.901 498.282 240.755C498.144 239.609 498.285 238.436 498.684 237.394C499.084 236.352 499.724 235.488 500.52 234.919C501.316 234.35 502.229 234.102 503.138 234.208Z" fill="#FFB8B8"/>
<path id="Vector_68" d="M530.671 208.413L526.168 197.495C525.705 195.834 524.751 194.467 523.509 193.683C522.267 192.898 520.833 192.757 519.51 193.289C519.46 193.306 519.412 193.326 519.362 193.349C518.022 193.944 516.922 195.19 516.304 196.813C515.686 198.437 515.601 200.305 516.067 202.008L517.874 214.074C517.926 214.42 518.036 214.747 518.196 215.033C518.357 215.32 518.564 215.559 518.804 215.735C519.066 215.929 519.362 216.041 519.665 216.059C519.915 216.079 520.165 216.034 520.401 215.928L521.367 215.5L527.569 212.758L529.598 211.861C529.859 211.745 530.098 211.559 530.298 211.315C530.497 211.071 530.654 210.776 530.755 210.449C530.857 210.121 530.902 209.77 530.888 209.419C530.873 209.068 530.799 208.724 530.671 208.413Z" fill="#CA4FA7"/>
<path id="Vector_69" d="M547.668 250.525H398.875C398.815 250.525 398.757 250.494 398.714 250.44C398.672 250.386 398.648 250.312 398.648 250.235C398.648 250.159 398.672 250.085 398.714 250.031C398.757 249.976 398.815 249.946 398.875 249.946H547.668C547.728 249.946 547.786 249.976 547.829 250.031C547.871 250.085 547.895 250.159 547.895 250.235C547.895 250.312 547.871 250.386 547.829 250.44C547.786 250.494 547.728 250.525 547.668 250.525Z" fill="#3F3D56"/>
<path id="Vector_70" d="M424.509 245.173V245.317C424.509 246.298 424.734 247.257 425.156 248.079C425.578 248.901 426.179 249.549 426.885 249.946C427.392 250.234 427.941 250.381 428.496 250.38H465.296V245.173H424.509Z" fill="#3F3D56"/>
<path id="Vector_71" d="M490.989 210.854C490.405 209.324 489.506 208.022 488.387 207.088C487.88 206.661 487.332 206.317 486.758 206.064C485.975 205.717 485.151 205.54 484.322 205.54H449.004C447.04 205.543 445.158 206.534 443.77 208.297C442.381 210.06 441.6 212.449 441.598 214.942V240.978C441.598 241.343 441.614 241.709 441.648 242.072C441.698 242.614 441.785 243.15 441.908 243.674C442.03 244.19 442.187 244.692 442.377 245.173C442.991 246.738 443.936 248.054 445.107 248.974C446.277 249.894 447.627 250.381 449.004 250.38H484.322C485.294 250.38 486.258 250.138 487.156 249.665C488.055 249.193 488.871 248.5 489.559 247.627C490.247 246.754 490.792 245.717 491.164 244.577C491.536 243.436 491.728 242.213 491.727 240.978V214.942C491.729 213.526 491.476 212.128 490.989 210.854Z" fill="#3F3D56"/>
<path id="Vector_72" d="M468.599 230.274C469.606 230.274 470.422 229.238 470.422 227.96C470.422 226.682 469.606 225.646 468.599 225.646C467.593 225.646 466.777 226.682 466.777 227.96C466.777 229.238 467.593 230.274 468.599 230.274Z" fill="white"/>
</g>
</g>
</g>
<defs>
<filter id="filter0_d" x="0" y="21" width="554" height="252" filterUnits="userSpaceOnUse" color-interpolation-filters="sRGB">
<feFlood flood-opacity="0" result="BackgroundImageFix"/>
<feColorMatrix in="SourceAlpha" type="matrix" values="0 0 0 0 0 0 0 0 0 0 0 0 0 0 0 0 0 0 127 0"/>
<feOffset dy="4"/>
<feGaussianBlur stdDeviation="2"/>
<feColorMatrix type="matrix" values="0 0 0 0 0 0 0 0 0 0 0 0 0 0 0 0 0 0 0.67 0"/>
<feBlend mode="normal" in2="BackgroundImageFix" result="effect1_dropShadow"/>
<feBlend mode="normal" in="SourceGraphic" in2="effect1_dropShadow" result="shape"/>
</filter>
<filter id="filter1_d" x="329" y="0" width="297" height="297" filterUnits="userSpaceOnUse" color-interpolation-filters="sRGB">
<feFlood flood-opacity="0" result="BackgroundImageFix"/>
<feColorMatrix in="SourceAlpha" type="matrix" values="0 0 0 0 0 0 0 0 0 0 0 0 0 0 0 0 0 0 127 0"/>
<feOffset dy="4"/>
<feGaussianBlur stdDeviation="2"/>
<feColorMatrix type="matrix" values="0 0 0 0 0 0 0 0 0 0 0 0 0 0 0 0 0 0 0.67 0"/>
<feBlend mode="normal" in2="BackgroundImageFix" result="effect1_dropShadow"/>
<feBlend mode="normal" in="SourceGraphic" in2="effect1_dropShadow" result="shape"/>
</filter>
<clipPath id="clip0">
<rect width="162.987" height="174.78" fill="white" transform="translate(398.648 114.22)"/>
</clipPath>
</defs>
</svg>
